<svg width="7" height="7" viewBox="0 0 7 7" fill="none" xmlns="http://www.w3.org/2000/svg">
<path d="M4.02897 3.50007L6.39147 1.14132C6.46208 1.07071 6.50176 0.974933 6.50176 0.87507C6.50176 0.775206 6.46208 0.679433 6.39147 0.60882C6.32086 0.538206 6.22508 0.498535 6.12522 0.498535C6.02536 0.498535 5.92959 0.538206 5.85897 0.60882L3.50022 2.97132L1.14147 0.60882C1.07086 0.538206 0.975084 0.498535 0.875221 0.498535C0.775358 0.498535 0.679585 0.538206 0.608971 0.60882C0.538357 0.679433 0.498687 0.775206 0.498687 0.87507C0.498687 0.974933 0.538357 1.07071 0.608971 1.14132L2.97147 3.50007L0.608971 5.85882C0.573823 5.89368 0.545925 5.93516 0.526887 5.98085C0.507849 6.02655 0.498047 6.07557 0.498047 6.12507C0.498047 6.17457 0.507849 6.22359 0.526887 6.26929C0.545925 6.31498 0.573823 6.35646 0.608971 6.39132C0.643832 6.42647 0.685308 6.45437 0.731005 6.4734C0.776702 6.49244 0.825717 6.50224 0.875221 6.50224C0.924726 6.50224 0.97374 6.49244 1.01944 6.4734C1.06513 6.45437 1.10661 6.42647 1.14147 6.39132L3.50022 4.02882L5.85897 6.39132C5.89383 6.42647 5.93531 6.45437 5.981 6.4734C6.0267 6.49244 6.07572 6.50224 6.12522 6.50224C6.17473 6.50224 6.22374 6.49244 6.26944 6.4734C6.31514 6.45437 6.35661 6.42647 6.39147 6.39132C6.42662 6.35646 6.45452 6.31498 6.47356 6.26929C6.49259 6.22359 6.5024 6.17457 6.5024 6.12507C6.5024 6.07557 6.49259 6.02655 6.47356 5.98085C6.45452 5.93516 6.42662 5.89368 6.39147 5.85882L4.02897 3.50007Z" fill="white"/>
</svg>
