<svg width="23" height="7" viewBox="0 0 23 7" fill="none" xmlns="http://www.w3.org/2000/svg">
<path d="M0.566002 1.65815H1.50998V1.30461C1.50998 0.585222 2.12763 0 2.88688 0H20.1146C20.8739 0 21.4916 0.585222 21.4916 1.30461V1.65815H22.4341C22.7466 1.65815 23 1.89814 23 2.19431C23 2.49036 22.7467 2.73047 22.4341 2.73047H21.461C21.3762 3.47662 21.1033 4.57196 20.2715 5.41876C19.4844 6.22011 18.3795 6.62645 16.9874 6.62645C16.1664 6.62645 15.4267 6.48602 14.789 6.2089C14.2293 5.96577 13.7438 5.6162 13.3463 5.17008C12.64 4.37765 12.348 3.43828 12.2274 2.7899C12.2041 2.66442 12.0896 2.57329 11.9553 2.57329H11.1828C11.0395 2.57329 10.9213 2.67454 10.908 2.80882C10.7979 3.91261 10.4359 4.82184 9.83183 5.51145C8.9666 6.49916 7.6472 7 5.91027 7C4.45551 7 3.32604 6.59438 2.55331 5.79448C1.42868 4.63043 1.49318 3.04737 1.50985 2.81099V2.73035H0.565876C0.253422 2.73035 0 2.49036 0 2.19419C0.000127792 1.89814 0.253424 1.65815 0.566002 1.65815ZM3.39423 5.07691C3.94382 5.64152 4.79047 5.9278 5.91039 5.9278C8.2992 5.9278 9.56543 4.87452 9.78157 2.70793C9.85015 2.01989 10.4527 1.50109 11.183 1.50109H11.9555C12.6401 1.50109 13.2233 1.9648 13.3421 2.60379C13.5923 3.94974 14.428 5.55412 16.9876 5.55412C18.0497 5.55412 18.8744 5.26435 19.4385 4.69299C20.4678 3.65044 20.3625 1.97577 20.3613 1.96034L20.3599 1.94106V1.30461C20.3599 1.17647 20.2499 1.0722 20.1146 1.0722H2.88688C2.75165 1.0722 2.6416 1.17647 2.6416 1.30461V2.83064L2.64173 2.85234L2.63956 2.87596C2.63842 2.8891 2.53753 4.19684 3.39423 5.07691Z" fill="white"/>
</svg>
