<svg width="28" height="25" viewBox="0 0 28 25" fill="none" xmlns="http://www.w3.org/2000/svg">
<path d="M10.827 12.6556H17.2043C17.4519 12.6556 17.6525 12.455 17.6525 12.2074C17.6525 11.9599 17.4519 11.7593 17.2043 11.7593H10.827C10.5795 11.7593 10.3789 11.9599 10.3789 12.2074C10.3789 12.455 10.5795 12.6556 10.827 12.6556Z" fill="white"/>
<path d="M10.827 15.1609H17.2043C17.4519 15.1609 17.6525 14.9603 17.6525 14.7128C17.6525 14.4652 17.4519 14.2646 17.2043 14.2646H10.827C10.5795 14.2646 10.3789 14.4652 10.3789 14.7128C10.3789 14.9603 10.5795 15.1609 10.827 15.1609Z" fill="white"/>
<path d="M10.827 17.6658H17.2043C17.4519 17.6658 17.6525 17.4652 17.6525 17.2177C17.6525 16.9701 17.4519 16.7695 17.2043 16.7695H10.827C10.5795 16.7695 10.3789 16.9701 10.3789 17.2177C10.3789 17.4652 10.5795 17.6658 10.827 17.6658Z" fill="white"/>
<path d="M10.827 20.1712H17.2043C17.4519 20.1712 17.6525 19.9706 17.6525 19.723C17.6525 19.4755 17.4519 19.2749 17.2043 19.2749H10.827C10.5795 19.2749 10.3789 19.4755 10.3789 19.723C10.3789 19.9706 10.5795 20.1712 10.827 20.1712Z" fill="white"/>
<path d="M10.827 22.6761H17.2043C17.4519 22.6761 17.6525 22.4755 17.6525 22.2279C17.6525 21.9804 17.4519 21.7798 17.2043 21.7798H10.827C10.5795 21.7798 10.3789 21.9804 10.3789 22.2279C10.3789 22.4755 10.5795 22.6761 10.827 22.6761Z" fill="white"/>
<path d="M26.1088 19.1088H25.2484V19.0647C25.2484 18.5203 25.1996 17.977 25.1032 17.4417H26.1088C27.1516 17.4417 28 16.5933 28 15.5506C28 14.5078 27.1516 13.6594 26.1088 13.6594H23.5607C23.0111 12.5353 22.7209 11.2837 22.7209 10.0325V1.63501C22.7209 0.733521 21.9873 0 21.0859 0H19.4258C18.9988 0 18.5947 0.163483 18.288 0.460333C17.9806 0.757721 17.8044 1.15657 17.7917 1.58356C17.7614 2.59923 17.602 4.06341 17.0151 5.27142C16.3388 6.66371 15.2937 7.34059 13.8206 7.34059C13.8191 7.34059 13.8175 7.34077 13.8161 7.34077C13.8146 7.34077 13.813 7.34059 13.8116 7.34059C12.9834 7.34059 12.2904 7.12656 11.7224 6.69186C11.6973 6.66658 11.6698 6.64507 11.6408 6.62715C11.2348 6.29409 10.8947 5.84307 10.6171 5.27142C10.0302 4.06341 9.87099 2.59923 9.84051 1.58356C9.82778 1.15657 9.65158 0.757721 9.34415 0.460333C9.03762 0.163483 8.63357 0 8.20676 0H6.54666C5.64517 0 4.91165 0.733521 4.91165 1.63501V10.0325C4.91165 11.2837 4.62143 12.5353 4.07183 13.6594H1.89117C0.848425 13.6594 0 14.5078 0 15.5506C0 16.5933 0.848425 17.4417 1.89117 17.4417H2.52932C2.43288 17.9768 2.38412 18.5203 2.38412 19.0647V19.1088H1.89117C0.848425 19.1088 0 19.9573 0 21C0 22.0427 0.848425 22.8912 1.89117 22.8912H2.3956C2.51068 24.0372 3.48064 24.9347 4.65639 24.9347H13.8118V24.0384H8.94494V22.443V19.557V16.9936V14.1076V11.6996C8.94494 10.5303 9.44023 9.40761 10.3041 8.61959L11.4397 7.5833C12.1131 8.01711 12.9099 8.23688 13.8118 8.23688C13.8132 8.23688 13.8148 8.2367 13.8163 8.2367C13.8177 8.2367 13.8193 8.23688 13.8207 8.23688C14.7941 8.23688 15.6454 7.9809 16.351 7.47611C16.3682 7.46392 16.385 7.45137 16.402 7.43882L17.6959 8.61941C18.5596 9.40761 19.0551 10.5301 19.0551 11.6994V14.1076V16.9936V19.557V22.443V24.0384H13.8207V24.9347H22.9761C24.1519 24.9347 25.1218 24.0372 25.2369 22.8912H26.1088C27.1516 22.8912 28 22.0427 28 21C28 19.9573 27.1516 19.1088 26.1088 19.1088ZM24.3521 19.0647V19.1088H19.9513V17.4417H24.1908C24.2978 17.9757 24.3521 18.5196 24.3521 19.0647ZM27.1037 15.5506C27.1037 16.0991 26.6574 16.5455 26.1088 16.5455H19.9513V14.5557H26.1088C26.6574 14.5557 27.1037 15.002 27.1037 15.5506ZM19.4258 0.896287H21.0859C21.4931 0.896287 21.8246 1.22755 21.8246 1.63501V2.77759H18.603C18.6524 2.3549 18.6772 1.95803 18.6876 1.61027C18.6996 1.20981 19.0239 0.896287 19.4258 0.896287ZM6.54666 0.896287H8.20676C8.60883 0.896287 8.93311 1.20981 8.94494 1.61027C8.95534 1.95785 8.98008 2.35473 9.02955 2.77759H5.80794V1.63501C5.80794 1.22755 6.13921 0.896287 6.54666 0.896287ZM0.896287 15.5506C0.896287 15.002 1.34264 14.5557 1.89117 14.5557H8.04866V16.5455H1.89117C1.34264 16.5455 0.896287 16.0991 0.896287 15.5506ZM3.28041 19.0647C3.28041 18.5196 3.33472 17.9757 3.44174 17.4417H8.04866V19.1088H3.28041V19.0647ZM0.896287 21C0.896287 20.4515 1.34264 20.0051 1.89117 20.0051H8.04866V21.9949H1.89117C1.34264 21.9949 0.896287 21.5485 0.896287 21ZM4.65639 24.0384C3.97557 24.0384 3.40912 23.5413 3.29977 22.8912H8.04866V24.0384H4.65639ZM9.69997 7.95741C8.6506 8.91501 8.04866 10.279 8.04866 11.6996V13.6594H5.05793C5.54981 12.5181 5.80794 11.2751 5.80794 10.0325V3.6737H9.16901C9.30059 4.34018 9.50297 5.02889 9.81093 5.66292C10.0667 6.1894 10.3774 6.63987 10.7388 7.00932L9.69997 7.95741ZM18.3 7.95741L17.0617 6.82738C17.3521 6.49503 17.6063 6.10586 17.8214 5.66292C18.1294 5.02889 18.3319 4.34 18.4633 3.6737H21.8244V10.0325C21.8244 11.2751 22.0825 12.5181 22.5744 13.6594H19.9513V11.6996C19.9513 10.279 19.3494 8.91501 18.3 7.95741ZM22.9761 24.0384H19.9513V22.8912H24.3328C24.2234 23.5413 23.6568 24.0384 22.9761 24.0384ZM26.1088 21.9949H19.9513V20.0051H26.1088C26.6574 20.0051 27.1037 20.4515 27.1037 21C27.1037 21.5485 26.6574 21.9949 26.1088 21.9949Z" fill="white"/>
</svg>
