<svg width="19" height="37" viewBox="0 0 19 37" fill="none" xmlns="http://www.w3.org/2000/svg">
<path fill-rule="evenodd" clip-rule="evenodd" d="M1.68359 0.711914C1.68359 0.435772 1.90745 0.211914 2.18359 0.211914H17.2578C17.534 0.211914 17.7578 0.435772 17.7578 0.711914C17.7578 0.988056 17.534 1.21191 17.2578 1.21191H13.1289V2.82227H16.9468C18.0408 2.82227 18.912 3.73863 18.8564 4.83157L17.3023 35.3882C17.2589 36.2454 16.551 36.9179 15.6928 36.9179H12.5827C11.6926 36.9179 10.9711 36.1965 10.9711 35.3064V12.7126C10.9711 12.3192 10.8258 11.9396 10.5631 11.6467L10.5631 11.6467L9.89405 10.9006L9.89403 10.9006C9.83489 10.8347 9.77941 10.766 9.72771 10.695C9.67302 10.7712 9.614 10.8448 9.55081 10.9153L8.88177 11.6613C8.61907 11.9542 8.47371 12.3338 8.47371 12.7272V35.321C8.47371 36.2111 7.75228 36.9326 6.86215 36.9326H3.75202C2.89381 36.9326 2.18597 36.2601 2.14252 35.4028L0.58846 4.84619C0.532841 3.75327 1.40402 2.83691 2.49809 2.83691H5.58941H6.33008V1.21191H2.18359C1.90745 1.21191 1.68359 0.988056 1.68359 0.711914ZM12.1289 2.82227V1.21191H7.33008V2.83691H9.60984C9.64847 2.82734 9.68888 2.82227 9.73047 2.82227H12.1289ZM10.2305 3.82227V9.16707C10.2305 9.56024 10.3758 9.94007 10.6385 10.233L10.6385 10.233L11.3075 10.979C11.7347 11.4553 11.9711 12.0726 11.9711 12.7126V35.3064C11.9711 35.6442 12.2448 35.9179 12.5827 35.9179H15.6928C16.0186 35.9179 16.2871 35.6626 16.3036 35.3376L16.3036 35.3375L17.6607 8.65343C17.5932 8.6569 17.5252 8.65866 17.4569 8.65866C15.29 8.65866 13.5332 6.90184 13.5332 4.73497C13.5332 4.42102 13.5702 4.11536 13.64 3.82227H10.2305ZM14.6783 3.82227C14.5842 4.10915 14.5332 4.41585 14.5332 4.73497C14.5332 6.34956 15.8423 7.65866 17.4569 7.65866C17.5428 7.65866 17.6279 7.65495 17.7119 7.64769L17.8577 4.78075V4.78073C17.8842 4.2594 17.4687 3.82227 16.9468 3.82227H14.6783ZM5.0782 4.73497C5.0782 4.42127 5.02896 4.11958 4.93787 3.83691H2.49809C1.97618 3.83691 1.56063 4.27405 1.58717 4.79538L1.73124 7.62825C1.86933 7.64826 2.01067 7.65866 2.15451 7.65866C3.7691 7.65866 5.0782 6.34956 5.0782 4.73497ZM6.0782 4.73497C6.0782 4.42625 6.04246 4.12554 5.97485 3.83691H9.21437V9.18172C9.21437 9.57489 9.06899 9.95475 8.80631 10.2476L8.13727 10.9937C7.71011 11.47 7.47371 12.0873 7.47371 12.7272V35.321C7.47371 35.6589 7.19999 35.9326 6.86215 35.9326H3.75202C3.4262 35.9326 3.15771 35.6772 3.14124 35.3521L1.78276 8.64121C1.90522 8.65275 2.02923 8.65866 2.15451 8.65866C4.32138 8.65866 6.0782 6.90184 6.0782 4.73497Z" fill="white"/>
</svg>
