<svg width="24" height="17" viewBox="0 0 24 17" fill="none" xmlns="http://www.w3.org/2000/svg">
<path d="M23.9561 9.93182C23.8632 8.81798 23.6238 7.7823 23.2444 6.85327C22.7669 5.68443 22.066 4.68245 21.1608 3.87517C20.2517 3.06403 19.1278 2.44288 17.8133 2.02331C17.835 1.71291 17.7992 1.27505 17.5276 0.876778C17.1987 0.394151 16.6291 0.103535 15.8349 0.0131474C15.4385 -0.0319626 15.0674 0.0391403 14.7322 0.224443C14.4762 0.366146 14.246 0.572747 14.0483 0.838879C13.89 1.05185 13.7779 1.27002 13.7045 1.43789C13.2543 1.4565 12.8153 1.50513 12.3885 1.58445C11.0785 1.82761 9.88303 2.35484 8.83506 3.15156C7.54626 4.13124 6.4927 5.51741 5.788 7.15998C5.21072 8.5059 4.89857 9.94691 4.90049 11.245L0.246008 14.5218C0.00499105 14.6915 -0.0692886 14.9991 0.0694841 15.2533C0.208257 15.5073 0.513941 15.6237 0.796555 15.5303C2.29037 15.036 5.14937 14.4059 7.5134 15.7408C8.9803 16.569 10.6166 17 12.2399 17C12.7331 17 13.2253 16.9603 13.711 16.8796C14.7836 16.7017 15.8015 16.3329 16.7362 15.7832C17.6491 15.2462 18.4677 14.5448 19.1726 13.6959C20.1704 13.7759 21.0602 13.7994 21.76 13.7994C21.9597 13.7994 22.1441 13.7975 22.3111 13.7943C23.1514 13.7789 23.8472 13.1628 23.9297 12.361C24.0136 11.5459 24.0225 10.7285 23.9561 9.93182ZM14.7717 1.30977C15.0416 0.954756 15.3556 0.802992 15.7318 0.845754C16.254 0.905286 16.6111 1.06845 16.7928 1.3309C16.8924 1.47478 16.9316 1.6366 16.9424 1.78133C16.4167 1.65488 15.9006 1.56248 15.3955 1.50413C15.3806 1.50178 15.3656 1.5001 15.3506 1.49909C15.1244 1.47377 14.9003 1.45516 14.6787 1.44376C14.707 1.39915 14.738 1.35404 14.7717 1.30977ZM16.6574 12.536C15.5685 12.3441 14.4438 12.0703 13.3576 11.6829C12.2568 11.2903 11.1465 11.0123 10.0573 10.8568C9.79074 10.8188 9.52508 10.7881 9.26134 10.7644C9.44696 7.91327 10.51 5.63982 12.4246 4.00312C13.6143 2.98605 14.8002 2.5279 15.2476 2.37983C15.5627 2.61427 16.3047 3.26023 16.8584 4.48122C17.522 5.94486 18.0115 8.51898 16.6574 12.536ZM9.37775 3.80876C10.5479 2.91914 11.8909 2.41303 13.3929 2.29213C12.924 2.55742 12.403 2.90304 11.8776 3.3481C10.9081 4.16914 10.1237 5.16005 9.54623 6.29333C8.88558 7.59012 8.49722 9.07523 8.38956 10.7131C8.26197 10.7096 8.13491 10.7077 8.00854 10.7077C7.83499 10.7077 7.66266 10.7111 7.4919 10.7178C6.75312 10.747 6.17356 10.8343 5.78136 10.9135C5.87959 8.64408 6.99694 5.61853 9.37775 3.80876ZM7.95646 15.018C6.78266 14.3553 5.4014 14.0489 3.85113 14.1076C3.18243 14.1329 2.54502 14.2251 1.97647 14.3435L5.54052 11.8345C5.74169 11.7771 6.46177 11.5938 7.56985 11.5541C8.77948 11.5107 10.7123 11.6339 13.0531 12.4689C14.5389 12.9988 16.2414 13.3766 18.1164 13.5929C15.4876 16.3681 11.417 16.9722 7.95646 15.018ZM23.06 12.2787C23.021 12.6575 22.6919 12.9487 22.2943 12.956C21.4831 12.9708 20.348 12.9577 19.0548 12.8464C19.0275 12.8415 18.9999 12.839 18.9723 12.8391C18.5084 12.7979 18.0248 12.7439 17.5292 12.674C18.1185 10.8922 18.4104 9.23102 18.3969 7.72964C18.385 6.40468 18.137 5.19929 17.6599 4.14683C17.3624 3.49064 17.0125 2.97565 16.6843 2.58375C16.7572 2.60102 16.8302 2.6188 16.9036 2.63741C23.1909 4.23689 23.3034 9.9127 23.06 12.2787Z" fill="white"/>
</svg>
