<svg width="26" height="31" viewBox="0 0 26 31" fill="none" xmlns="http://www.w3.org/2000/svg">
<path d="M8.66989 11.2412L6.87118 10.9273C6.4236 10.8493 5.96743 10.972 5.61955 11.2644C5.27167 11.5568 5.07227 11.9851 5.07227 12.4393V13.9376C5.07227 14.784 5.76093 15.4727 6.60732 15.4727H10.11C10.6665 15.4727 11.1641 15.1845 11.4413 14.7017C11.7183 14.2191 11.7161 13.6439 11.4355 13.1632C10.8403 12.1447 9.83214 11.444 8.66989 11.2412ZM10.5094 14.1671C10.4695 14.2367 10.3506 14.3985 10.11 14.3985H6.60732C6.35334 14.3985 6.14663 14.1918 6.14663 13.9379V12.4395C6.14663 12.2528 6.24956 12.1385 6.31079 12.0869C6.36258 12.0435 6.46336 11.9784 6.6041 11.9784C6.6301 11.9784 6.6576 11.9806 6.68639 11.9857L8.4851 12.2997C9.33513 12.4479 10.0724 12.9604 10.5077 13.7056C10.6291 13.9134 10.5494 14.0975 10.5094 14.1671Z" fill="white"/>
<path d="M19.6511 11.2645C19.3032 10.972 18.8473 10.8491 18.3995 10.9273L16.6008 11.2413C15.4383 11.4441 14.4303 12.1448 13.8351 13.1637C13.5545 13.6444 13.5521 14.2194 13.8293 14.7022C14.1063 15.1848 14.6042 15.4732 15.1607 15.4732H18.6633C19.5097 15.4732 20.1984 14.7845 20.1984 13.9381V12.4398C20.1984 11.9852 19.999 11.5569 19.6511 11.2645ZM19.124 13.9379C19.124 14.1919 18.9173 14.3986 18.6633 14.3986H15.1607C14.92 14.3986 14.801 14.2368 14.7612 14.1672C14.7213 14.0976 14.6416 13.9134 14.763 13.7057C15.1983 12.9605 15.9355 12.448 16.7856 12.2997L18.5843 11.9858C18.6131 11.9809 18.6406 11.9785 18.6666 11.9785C18.8073 11.9785 18.9081 12.0434 18.9599 12.087C19.0211 12.1386 19.124 12.2529 19.124 12.4396V13.9379Z" fill="white"/>
<path d="M25.8278 8.86352C25.8278 7.86243 25.0132 7.04784 24.0121 7.04784C23.2733 7.04784 22.6369 7.49155 22.3535 8.12607C22.1567 7.96277 21.9467 7.81494 21.7254 7.6843L14.1086 3.19044C14.4949 2.85717 14.7403 2.36468 14.7403 1.81568C14.7403 0.814584 13.9257 0 12.9246 0C11.9235 0 11.1089 0.814584 11.1089 1.81568C11.1089 2.36747 11.3567 2.86233 11.7467 3.19559L4.13846 7.6843C3.90725 7.82074 3.68873 7.97631 3.48438 8.14821C3.20612 7.50165 2.56301 7.04784 1.81568 7.04784C0.814584 7.04784 0 7.86243 0 8.86352C0 9.86461 0.814584 10.6792 1.81568 10.6792C1.84619 10.6792 1.87649 10.6783 1.90657 10.6768C1.81654 11.0389 1.76819 11.4113 1.76411 11.7862C1.73618 14.3464 1.98135 18.1417 3.30862 21.6831C3.35159 21.798 3.39564 21.9117 3.44055 22.0247C2.44311 22.0292 1.63325 22.8419 1.63325 23.8402C1.63325 24.8413 2.44784 25.6559 3.44893 25.6559C4.05143 25.6559 4.58604 25.3606 4.91651 24.9075C5.34411 25.5648 5.81296 26.1681 6.32114 26.7143C7.7956 28.2994 9.6203 29.4247 11.7445 30.0588C12.1305 30.174 12.5299 30.2324 12.9324 30.2324C13.3346 30.2324 13.7343 30.174 14.12 30.0588C16.2442 29.4247 18.0689 28.2994 19.5434 26.7143C20.0487 26.1711 20.515 25.5712 20.9409 24.9182C21.272 25.3654 21.803 25.6559 22.4007 25.6559C23.4018 25.6559 24.2164 24.8413 24.2164 23.8402C24.2164 22.8466 23.4143 22.0374 22.4235 22.0251C22.4684 21.9121 22.5125 21.7982 22.5557 21.6831C23.8829 18.1417 24.1281 14.3464 24.1002 11.7862C24.0961 11.4117 24.0477 11.0395 23.9579 10.6779C23.976 10.6783 23.994 10.6792 24.0123 10.6792C25.0132 10.6792 25.8278 9.86461 25.8278 8.86352ZM24.0121 8.12221C24.4208 8.12221 24.7534 8.45483 24.7534 8.86352C24.7534 9.27221 24.4208 9.60483 24.0121 9.60483C23.6034 9.60483 23.2708 9.27221 23.2708 8.86352C23.2708 8.45483 23.6034 8.12221 24.0121 8.12221ZM12.9246 1.07437C13.3333 1.07437 13.6659 1.40699 13.6659 1.81568C13.6659 2.22437 13.3333 2.55699 12.9246 2.55699C12.5159 2.55699 12.1833 2.22437 12.1833 1.81568C12.1833 1.40699 12.5159 1.07437 12.9246 1.07437ZM1.07437 8.86352C1.07437 8.45483 1.40699 8.12221 1.81568 8.12221C2.22437 8.12221 2.55699 8.45483 2.55699 8.86352C2.55699 9.27221 2.22437 9.60483 1.81568 9.60483C1.40699 9.60483 1.07437 9.27221 1.07437 8.86352ZM4.19003 23.8402C4.19003 24.2489 3.8574 24.5815 3.44871 24.5815C3.04003 24.5815 2.7074 24.2489 2.7074 23.8402C2.7074 23.4315 3.04003 23.0989 3.44871 23.0989C3.71924 23.0989 3.95625 23.2446 4.08581 23.4616C4.1 23.4897 4.11439 23.5174 4.12879 23.5454C4.16811 23.6358 4.19003 23.7355 4.19003 23.8402ZM22.4005 23.0989C22.8092 23.0989 23.1418 23.4315 23.1418 23.8402C23.1418 24.2489 22.8092 24.5815 22.4005 24.5815C21.9918 24.5815 21.6592 24.2489 21.6592 23.8402C21.6592 23.7703 21.6691 23.7027 21.6874 23.6386C21.7312 23.5544 21.7744 23.4693 21.8172 23.3836C21.9529 23.2104 22.164 23.0989 22.4005 23.0989ZM13.8123 29.0296C13.5263 29.1149 13.23 29.1583 12.9319 29.1583C12.6339 29.1583 12.3376 29.1149 12.0516 29.0296C3.59332 26.5044 2.79077 16.1378 2.83826 11.798C2.85244 10.4948 3.5598 9.27307 4.68424 8.60975L12.9319 3.74374L21.1796 8.60975C22.3041 9.27307 23.0114 10.4948 23.0256 11.798C23.0733 16.1378 22.2705 26.5044 13.8123 29.0296Z" fill="white"/>
<path d="M7.81159 24.3449C8.09047 24.3449 8.31654 24.1188 8.31654 23.8399C8.31654 23.561 8.09047 23.335 7.81159 23.335C7.53272 23.335 7.30664 23.561 7.30664 23.8399C7.30664 24.1188 7.53272 24.3449 7.81159 24.3449Z" fill="white"/>
<path d="M8.82136 22.2169C9.10024 22.2169 9.32631 21.9909 9.32631 21.712C9.32631 21.4331 9.10024 21.207 8.82136 21.207C8.54248 21.207 8.31641 21.4331 8.31641 21.712C8.31641 21.9909 8.54248 22.2169 8.82136 22.2169Z" fill="white"/>
<path d="M10.7764 23.8507C11.0553 23.8507 11.2814 23.6246 11.2814 23.3458C11.2814 23.0669 11.0553 22.8408 10.7764 22.8408C10.4976 22.8408 10.2715 23.0669 10.2715 23.3458C10.2715 23.6246 10.4976 23.8507 10.7764 23.8507Z" fill="white"/>
<path d="M12.9268 6.38149C13.2057 6.38149 13.4318 6.15541 13.4318 5.87653C13.4318 5.59766 13.2057 5.37158 12.9268 5.37158C12.6479 5.37158 12.4219 5.59766 12.4219 5.87653C12.4219 6.15541 12.6479 6.38149 12.9268 6.38149Z" fill="white"/>
<path d="M11.1202 7.39125C11.3991 7.39125 11.6251 7.16518 11.6251 6.8863C11.6251 6.60742 11.3991 6.38135 11.1202 6.38135C10.8413 6.38135 10.6152 6.60742 10.6152 6.8863C10.6152 7.16518 10.8413 7.39125 11.1202 7.39125Z" fill="white"/>
<path d="M14.6007 7.39125C14.8795 7.39125 15.1056 7.16518 15.1056 6.8863C15.1056 6.60742 14.8795 6.38135 14.6007 6.38135C14.3218 6.38135 14.0957 6.60742 14.0957 6.8863C14.0957 7.16518 14.3218 7.39125 14.6007 7.39125Z" fill="white"/>
<path d="M9.83112 26.6007C10.11 26.6007 10.3361 26.3746 10.3361 26.0958C10.3361 25.8169 10.11 25.5908 9.83112 25.5908C9.55225 25.5908 9.32617 25.8169 9.32617 26.0958C9.32617 26.3746 9.55225 26.6007 9.83112 26.6007Z" fill="white"/>
<path d="M18.0616 24.3449C18.3405 24.3449 18.5665 24.1188 18.5665 23.8399C18.5665 23.561 18.3405 23.335 18.0616 23.335C17.7827 23.335 17.5566 23.561 17.5566 23.8399C17.5566 24.1188 17.7827 24.3449 18.0616 24.3449Z" fill="white"/>
<path d="M17.0518 22.2169C17.3307 22.2169 17.5568 21.9909 17.5568 21.712C17.5568 21.4331 17.3307 21.207 17.0518 21.207C16.7729 21.207 16.5469 21.4331 16.5469 21.712C16.5469 21.9909 16.7729 22.2169 17.0518 22.2169Z" fill="white"/>
<path d="M15.0948 23.8507C15.3737 23.8507 15.5997 23.6246 15.5997 23.3458C15.5997 23.0669 15.3737 22.8408 15.0948 22.8408C14.8159 22.8408 14.5898 23.0669 14.5898 23.3458C14.5898 23.6246 14.8159 23.8507 15.0948 23.8507Z" fill="white"/>
<path d="M16.0401 26.6007C16.319 26.6007 16.5451 26.3746 16.5451 26.0958C16.5451 25.8169 16.319 25.5908 16.0401 25.5908C15.7612 25.5908 15.5352 25.8169 15.5352 26.0958C15.5352 26.3746 15.7612 26.6007 16.0401 26.6007Z" fill="white"/>
<path d="M9.12123 18.9642C9.26348 18.9642 9.40573 18.9079 9.51123 18.7964L10.7038 17.5375C10.9079 17.3222 10.8987 16.982 10.6831 16.7781C10.4678 16.574 10.1277 16.5832 9.92378 16.7987L8.73124 18.0577C8.52711 18.273 8.53635 18.6131 8.75187 18.817C8.85565 18.9155 8.98844 18.9642 9.12123 18.9642Z" fill="white"/>
<path d="M16.3709 18.7963C16.4766 18.9078 16.6186 18.9641 16.7609 18.9641C16.8935 18.9641 17.0265 18.9153 17.1302 18.8169C17.3456 18.6128 17.3548 18.2728 17.1509 18.0575L15.9583 16.7986C15.7542 16.5833 15.4143 16.574 15.199 16.778C14.9837 16.9821 14.9744 17.322 15.1783 17.5373L16.3709 18.7963Z" fill="white"/>
</svg>
