<svg width="33" height="28" viewBox="0 0 33 28" fill="none" xmlns="http://www.w3.org/2000/svg">
<path d="M32.4192 16.4959C32.2591 16.0975 32.0153 15.8171 31.6947 15.6626C30.8433 15.2521 29.8582 15.9235 29.6176 16.1041C29.5182 16.1485 29.1401 16.2976 28.5388 16.2976C28.528 16.2976 28.5171 16.2976 28.5062 16.2974C27.5328 16.2888 26.4368 15.8941 25.3366 15.1565C24.1308 14.348 23.0347 14.0483 22.0788 14.2661C21.1937 14.4678 20.7247 15.0605 20.5942 15.2504C17.3246 18.591 15.092 20.2921 12.0308 20.2921C12.0154 20.2921 11.9994 20.2921 11.9839 20.2919C11.9679 20.2919 11.9521 20.2917 11.9361 20.2917C11.1359 20.2917 10.4402 20.406 9.86749 20.6314C9.37401 20.8257 8.96865 21.1025 8.66307 21.4538C8.13081 22.0657 8.08751 22.6864 8.0845 22.7554C8.0764 22.9288 8.16452 23.0926 8.31363 23.1814C8.39591 23.2306 10.3628 24.3921 13.1947 25.1137C14.6396 25.482 16.0496 25.6676 17.3961 25.6676C17.6055 25.6676 17.8134 25.6631 18.0193 25.6541C19.9484 25.5699 21.7361 25.0896 23.3323 24.2267C26.6274 22.4454 28.782 22.1996 30.0096 22.3073C31.2558 22.4165 31.8073 22.9047 31.8476 22.9419C31.9786 23.0833 32.1782 23.1257 32.3584 23.0558C32.5395 22.9856 32.6542 22.8064 32.6542 22.6121V18.0326C32.6542 17.3917 32.5773 16.889 32.4192 16.4959ZM31.7128 21.7656C31.3507 21.6042 30.8584 21.451 30.2171 21.3819C29.3335 21.2866 28.3356 21.3717 27.2512 21.6349C25.9225 21.9572 24.4533 22.5509 22.8846 23.3989C19.5546 25.1992 15.9176 24.8326 13.4529 24.2083C11.362 23.6787 9.73306 22.8785 9.09178 22.537C9.26236 22.0866 9.85939 21.2335 11.9355 21.2335C11.9498 21.2335 11.9643 21.2335 11.9788 21.2337C11.9965 21.2337 12.014 21.2339 12.0317 21.2339C13.5895 21.2339 14.9962 20.8436 16.4259 20.012L17.9836 21.5754C18.0754 21.6677 18.1963 21.714 18.317 21.714C18.4371 21.714 18.5574 21.6682 18.6491 21.5767C18.8333 21.3934 18.8338 21.0953 18.6504 20.911L17.2386 19.4936C17.6279 19.2242 18.0143 18.9277 18.3965 18.6119L20.0358 20.2575C20.1277 20.3497 20.2485 20.3961 20.3692 20.3961C20.4894 20.3961 20.6097 20.3503 20.7014 20.2588C20.8855 20.0754 20.8861 19.7774 20.7027 19.593L19.1117 17.9961C19.4446 17.6984 19.7739 17.3896 20.0987 17.0754L21.8621 18.8454C21.954 18.9377 22.0748 18.984 22.1955 18.984C22.3156 18.984 22.436 18.9382 22.5276 18.8467C22.7118 18.6633 22.7123 18.3653 22.529 18.181L20.7688 16.4142C20.9471 16.2353 21.1237 16.0559 21.2988 15.8768C21.3253 15.8497 21.3485 15.8194 21.3679 15.7866C21.3705 15.7821 21.6525 15.3291 22.288 15.1843C22.9714 15.0288 23.8443 15.2896 24.8124 15.9388C26.3502 16.97 27.6247 17.2392 28.5367 17.2392C29.493 17.2392 30.0506 16.943 30.0945 16.9189C30.1175 16.9061 30.1386 16.8924 30.1591 16.876C30.3929 16.6921 30.9764 16.3607 31.2869 16.5115C31.4149 16.5736 31.7129 16.8466 31.7129 18.0332V21.7656H31.7128Z" fill="white"/>
<path d="M30.2071 23.4692C29.4732 23.3843 28.6335 23.4581 27.7113 23.6885C26.2379 24.057 25.0376 24.7013 24.8964 24.7786C24.7874 24.8314 23.7261 25.3378 22.221 25.8375C20.7727 26.3182 18.6043 26.8911 16.4981 26.8911C14.4037 26.8911 12.3215 26.247 10.9437 25.7067C9.43635 25.1155 8.41834 24.5154 8.40817 24.5094C8.18468 24.3769 7.89605 24.4503 7.76332 24.6738C7.63058 24.8973 7.7042 25.1861 7.92768 25.3188C7.97099 25.3446 9.00877 25.9573 10.5824 26.5759C11.507 26.9395 12.4258 27.2293 13.3134 27.4375C14.4304 27.6996 15.5019 27.8323 16.4983 27.8323C18.7356 27.8323 21.0147 27.2306 22.5327 26.7256C24.1719 26.1806 25.2746 25.6415 25.3208 25.6187C25.3277 25.6153 25.3349 25.6116 25.3419 25.6078C25.3874 25.5826 29.917 23.1065 31.8331 25.2373C32.0069 25.4306 32.3045 25.4463 32.4979 25.2725C32.6913 25.0987 32.7069 24.801 32.5331 24.6077C31.9536 23.964 31.1711 23.5808 30.2071 23.4692Z" fill="white"/>
<path d="M10.0515 16.1341C11.5645 14.9344 12.7305 13.4969 13.5171 11.8616C15.1408 8.48593 16.7418 7.02301 17.7989 6.39002C18.8725 5.74724 19.6055 5.81935 19.6597 5.82594C19.8487 5.8636 20.0353 5.78076 20.1402 5.61865C20.2456 5.45541 20.2334 5.24303 20.1195 5.08563L17.4331 1.37694C17.0571 0.857862 16.7002 0.495805 16.3415 0.27006C15.9781 0.0413032 15.6162 -0.0426687 15.2659 0.020216C14.3354 0.187218 13.9315 1.30898 13.8427 1.5961C13.7873 1.69212 13.5616 2.04533 13.0559 2.40475C12.2625 2.96864 11.1433 3.2921 9.81936 3.33993C8.36849 3.39245 7.3051 3.79273 6.65875 4.52984C6.06021 5.21235 6.02821 5.96734 6.03385 6.19779C5.34193 10.8445 4.52669 13.5361 2.01808 15.3317C1.35102 15.8092 0.841349 16.3194 0.503203 16.8481C0.217586 17.2949 0.0517133 17.7567 0.0102923 18.2206C-0.061818 19.0283 0.267291 19.5566 0.305135 19.6141C0.392684 19.7474 0.541047 19.8266 0.698635 19.8266C0.712567 19.8266 0.726688 19.8261 0.740621 19.8248C0.836077 19.8163 3.11047 19.6031 5.82713 18.5264C7.42862 17.8917 8.84992 17.0868 10.0515 16.1341ZM0.992536 18.8463C0.865637 18.3784 0.849445 17.3259 2.56597 16.0972C3.85002 15.1783 4.77334 14.0284 5.45095 12.4991L7.62951 12.8515C7.65492 12.8557 7.68034 12.8577 7.70519 12.8577C7.93207 12.8577 8.13183 12.6934 8.1693 12.4622C8.21091 12.2055 8.03637 11.9638 7.77975 11.9224L5.80491 11.6029C5.96212 11.1563 6.10107 10.6895 6.22533 10.2094L8.51818 10.5805C8.54359 10.5847 8.56901 10.5867 8.59386 10.5867C8.82074 10.5867 9.0205 10.4224 9.05797 10.1912C9.09958 9.93454 8.92504 9.69279 8.66842 9.65137L6.44317 9.29119C6.53825 8.85476 6.62373 8.41175 6.70243 7.96647L9.16886 8.36562C9.19428 8.36976 9.2197 8.37183 9.24455 8.37183C9.47143 8.37183 9.67119 8.20746 9.70865 7.97626C9.75026 7.71964 9.57573 7.47789 9.31911 7.43647L6.85719 7.03807C6.89654 6.7886 6.93457 6.5397 6.97129 6.29193C6.97731 6.25164 6.97901 6.22076 6.97449 6.18066C6.97167 6.13265 6.95171 5.61244 7.3791 5.13628C7.84377 4.61852 8.6993 4.32273 9.85306 4.28094C13.6437 4.14368 14.6643 2.06453 14.7059 1.97604C14.7172 1.95213 14.7263 1.92747 14.7334 1.90205C14.8097 1.62829 15.0913 1.00792 15.4317 0.94673C15.572 0.921689 15.9736 0.966875 16.6704 1.92897L18.8601 4.95215C18.4722 5.03386 17.9835 5.1986 17.4235 5.51867C16.652 5.95981 15.8938 6.61407 15.1698 7.46339C14.2829 8.50381 13.4413 9.84623 12.6682 11.4534C11.0274 14.8648 7.86674 16.7014 5.50423 17.6415C3.50077 18.439 1.71213 18.7467 0.992536 18.8463Z" fill="white"/>
<path d="M14.3351 14.3541C15.3427 12.951 15.9198 11.8677 15.9439 11.8223C15.9475 11.8153 15.951 11.8082 15.9544 11.801C15.9765 11.7538 18.1923 7.09164 20.9942 7.69318C21.2484 7.74778 21.4986 7.58587 21.5532 7.33188C21.6078 7.07771 21.4459 6.82748 21.1917 6.77288C20.3447 6.59101 19.4861 6.73975 18.64 7.21477C17.9957 7.57645 17.359 8.12886 16.7475 8.85655C15.7703 10.0192 15.1763 11.245 15.1072 11.3906C15.0499 11.497 14.4876 12.5298 13.5614 13.8177C12.6705 15.0565 11.2505 16.7924 9.54471 18.0279C7.84851 19.2564 5.78443 19.9563 4.35145 20.3268C2.79025 20.7306 1.61671 20.8425 1.596 20.8446C1.33712 20.8681 1.1464 21.0972 1.16993 21.3561C1.19215 21.6005 1.39737 21.7841 1.63818 21.7841C1.65249 21.7841 1.66699 21.7833 1.68148 21.782C1.73175 21.7775 2.93146 21.6649 4.56891 21.243C5.53101 20.995 6.44509 20.6907 7.28594 20.3388C8.34425 19.8958 9.29016 19.3749 10.0969 18.7904C11.9091 17.4776 13.4018 15.6534 14.3351 14.3541Z" fill="white"/>
</svg>
