<svg width="21" height="19" viewBox="0 0 21 19" fill="none" xmlns="http://www.w3.org/2000/svg">
<path d="M21 8.94623C21 7.69908 20.0475 6.67893 18.8587 6.63017C18.6512 5.84149 18.3414 5.08699 17.9344 4.38228C17.4625 3.5651 16.8715 2.83326 16.1779 2.20702C15.4802 1.57718 14.6962 1.06994 13.8474 0.699557C12.9732 0.318012 12.0483 0.0899772 11.0984 0.0218073C10.8979 0.00738345 10.6936 0 10.4916 0C10.2926 0 10.0916 0.00704041 9.89379 0.0211208L9.91246 0.306678L9.89379 0.0211208C8.96308 0.0870585 8.05551 0.306507 7.19651 0.673457C6.36245 1.02976 5.58887 1.51811 4.89725 2.12529C4.21024 2.72834 3.61973 3.43477 3.14207 4.22465C2.68952 4.97297 2.34767 5.78156 2.12429 6.63068C0.943596 6.68855 0 7.70509 0 8.94623C0 10.1748 0.924595 11.1831 2.0886 11.2595C2.3171 12.187 2.68539 13.0658 3.18519 13.8756C3.07152 14.1014 3.00708 14.3579 3.00708 14.6299C3.00708 15.5293 3.71127 16.2612 4.57671 16.2612C4.84685 16.2612 5.10113 16.1899 5.32319 16.0646C5.32121 16.1013 5.32022 16.1382 5.32022 16.1753C5.32022 17.2642 6.17261 18.15 7.2203 18.15C7.70688 18.15 8.15134 17.9589 8.4879 17.645C8.84049 18.4438 9.61721 19 10.5165 19C11.42 19 12.1998 18.4388 12.5501 17.6342C12.888 17.9544 13.3371 18.15 13.8293 18.15C14.877 18.15 15.7293 17.2642 15.7293 16.1753C15.7293 16.1381 15.7282 16.1013 15.7264 16.0646C15.9486 16.1899 16.2029 16.2612 16.4729 16.2612C17.3383 16.2612 18.0425 15.5293 18.0425 14.6299C18.0425 14.3342 17.9663 14.0567 17.8335 13.8174C18.3148 13.0244 18.6715 12.1655 18.8945 11.2607C20.0665 11.1929 21 10.1808 21 8.94623ZM20.1739 8.94623C20.1739 9.75104 19.5439 10.4058 18.7695 10.4058C17.9951 10.4058 17.3651 9.75104 17.3651 8.94623C17.3651 8.14141 17.9951 7.48667 18.7695 7.48667C19.5439 7.48667 20.1739 8.14141 20.1739 8.94623ZM9.95013 0.877623C10.1292 0.864916 10.3115 0.858563 10.4917 0.858563C10.6748 0.858563 10.8599 0.86526 11.0414 0.87831L11.07 0.450059L11.0416 0.87831C14.3233 1.11407 17.1334 3.50277 18.0354 6.75741C17.165 7.07353 16.5389 7.93518 16.5389 8.94623C16.5389 9.97015 17.181 10.8411 18.0688 11.1471C17.8814 11.8688 17.5995 12.5575 17.2288 13.2006C17.0044 13.072 16.7468 12.9986 16.473 12.9986C15.6337 12.9986 14.9462 13.6867 14.9054 14.5487C14.5992 14.3294 14.2286 14.2006 13.8294 14.2006C13.138 14.2006 12.5318 14.5865 12.1993 15.1619C11.7901 14.6732 11.1875 14.3638 10.5167 14.3638C9.85116 14.3638 9.25289 14.6684 8.84396 15.1502C8.51004 14.5813 7.9073 14.2006 7.22046 14.2006C6.82128 14.2006 6.45068 14.3292 6.14452 14.5487C6.10355 13.6867 5.41605 12.9986 4.57671 12.9986C4.28261 12.9986 4.00735 13.0831 3.7719 13.2299C3.39321 12.5797 3.10605 11.8832 2.91571 11.1522C3.81139 10.8512 4.46105 9.97616 4.46105 8.94623C4.46105 7.92934 3.82792 7.0634 2.94975 6.75174C3.85997 3.45829 6.63953 1.11201 9.95013 0.877623ZM0.826121 8.94623C0.826121 8.14141 1.45612 7.48667 2.23053 7.48667C3.00493 7.48667 3.63493 8.14141 3.63493 8.94623C3.63493 9.75104 3.00493 10.4058 2.23053 10.4058C1.45612 10.4058 0.826121 9.75104 0.826121 8.94623ZM4.57671 15.4026C4.16679 15.4026 3.8332 15.0559 3.8332 14.6299C3.8332 14.2039 4.16679 13.8572 4.57671 13.8572C4.98663 13.8572 5.32022 14.2039 5.32022 14.6299C5.32022 15.0559 4.98663 15.4026 4.57671 15.4026ZM7.2203 17.2915C6.62814 17.2915 6.14634 16.7907 6.14634 16.1753C6.14634 15.5599 6.62814 15.0592 7.2203 15.0592C7.81246 15.0592 8.29426 15.5599 8.29426 16.1753C8.29426 16.7907 7.81246 17.2915 7.2203 17.2915ZM10.5165 18.1414C9.74212 18.1414 9.11212 17.4867 9.11212 16.6819C9.11212 15.8771 9.74212 15.2223 10.5165 15.2223C11.2909 15.2223 11.9209 15.8771 11.9209 16.6819C11.9209 17.4867 11.2909 18.1414 10.5165 18.1414ZM13.8293 17.2915C13.2371 17.2915 12.7553 16.7907 12.7553 16.1753C12.7553 15.5599 13.2371 15.0592 13.8293 15.0592C14.4214 15.0592 14.9032 15.5599 14.9032 16.1753C14.9032 16.7907 14.4214 17.2915 13.8293 17.2915ZM16.4729 15.4026C16.0629 15.4026 15.7293 15.0559 15.7293 14.6299C15.7293 14.2039 16.0629 13.8572 16.4729 13.8572C16.8828 13.8572 17.2164 14.2039 17.2164 14.6299C17.2164 15.0559 16.8828 15.4026 16.4729 15.4026Z" fill="white"/>
</svg>
