<svg width="32" height="32" viewBox="0 0 32 32" fill="none" xmlns="http://www.w3.org/2000/svg">
<path fill-rule="evenodd" clip-rule="evenodd" d="M9.6262 1.50049H9.03208C8.67495 1.50049 8.31974 1.54922 7.97621 1.64549L5.21415 2.41842C3.73008 2.83377 2.62702 4.08051 2.39542 5.60426L1.55291 11.1507L6.08203 13.05V7.93604C6.08203 7.65989 6.30589 7.43604 6.58203 7.43604C6.85817 7.43604 7.08203 7.65989 7.08203 7.93604V27.9603C7.08203 29.1489 8.04546 30.1124 9.23404 30.1124H22.2666C23.4552 30.1124 24.4186 29.1489 24.4186 27.9603V7.93604C24.4186 7.65989 24.6425 7.43604 24.9186 7.43604C25.1947 7.43604 25.4186 7.65989 25.4186 7.93604V13.0814L30.0224 11.1507L29.1801 5.6042C28.9488 4.08052 27.8458 2.83378 26.3614 2.41842L23.5997 1.64557C23.2558 1.54943 22.9002 1.50049 22.5435 1.50049H21.851C21.0602 4.12698 18.6236 6.04054 15.7386 6.04054C12.8536 6.04054 10.417 4.12698 9.6262 1.50049ZM21.4889 0.500488C21.4741 0.499834 21.4595 0.499841 21.4449 0.500488H10.0323C10.0177 0.499841 10.0031 0.499834 9.98829 0.500488H9.03208C8.58404 0.500488 8.13809 0.561615 7.70654 0.682541L4.94464 1.45542C3.08185 1.97676 1.69744 3.54162 1.40676 5.45404L0.505702 11.3859C0.471284 11.6125 0.595317 11.8335 0.806667 11.9221L5.90198 14.0589C5.96087 14.0836 6.02182 14.0962 6.08203 14.0978V27.9603C6.08203 29.7012 7.49317 31.1124 9.23404 31.1124H22.2666C24.0075 31.1124 25.4186 29.7012 25.4186 27.9603V14.0941C25.5024 14.1045 25.5899 14.0939 25.6733 14.0589L30.7687 11.9221C30.98 11.8335 31.104 11.6125 31.0696 11.386L30.1688 5.45407C29.8784 3.54157 28.494 1.97674 26.6309 1.45542L23.8689 0.682513C23.4377 0.561935 22.9915 0.500488 22.5435 0.500488H21.4889ZM10.6796 1.50049H20.7976C20.0453 3.56591 18.0637 5.04054 15.7386 5.04054C13.4134 5.04054 11.4319 3.56591 10.6796 1.50049Z" fill="white"/>
</svg>
