<svg width="19" height="24" viewBox="0 0 19 24" fill="none" xmlns="http://www.w3.org/2000/svg">
<path fill-rule="evenodd" clip-rule="evenodd" d="M12.5789 0.438601C12.5789 0.196368 12.7753 0 13.0175 0H14.6579C15.4863 0 16.1579 0.671636 16.1579 1.50002C16.1579 2.19178 15.6895 2.77424 15.0526 2.94754V6.32151C15.7604 6.51401 16.2808 7.16118 16.2808 7.92991C16.2808 8.23754 16.1975 8.52571 16.0521 8.77305L18.2464 12.1394C18.271 12.163 18.2932 12.1899 18.3124 12.2199C18.7479 12.9014 19.0002 13.7114 19.0002 14.579C19.0002 17.0012 17.0365 18.965 14.6142 18.965C12.192 18.965 10.2282 17.0012 10.2282 14.579C10.2282 13.7114 10.4805 12.9014 10.916 12.2199C10.9211 12.2119 10.9265 12.2042 10.932 12.1966L13.1702 8.76283C13.0285 8.51778 12.9475 8.23331 12.9475 7.92991C12.9475 7.16127 13.4678 6.51415 14.1754 6.32157V2.56143C14.1754 2.3192 14.3718 2.12283 14.614 2.12283H14.6579C15.0018 2.12283 15.2807 1.84393 15.2807 1.50002C15.2807 1.1561 15.0018 0.877202 14.6579 0.877202H13.0175C12.7753 0.877202 12.5789 0.680834 12.5789 0.438601ZM15.1444 8.51482C15.1708 8.47344 15.2045 8.43597 15.2451 8.40451C15.3446 8.2724 15.4036 8.10805 15.4036 7.92991C15.4036 7.4939 15.0502 7.14043 14.6141 7.14043C14.1781 7.14043 13.8247 7.4939 13.8247 7.92991C13.8247 8.12629 13.8964 8.30592 14.015 8.44406C14.0237 8.45294 14.032 8.46214 14.0398 8.47163C14.1838 8.62418 14.3878 8.7194 14.6141 8.7194C14.8183 8.7194 15.0043 8.64194 15.1444 8.51482ZM17.562 12.6959L15.4102 9.39458C15.1736 9.5234 14.9024 9.5966 14.6141 9.5966C14.3221 9.5966 14.0475 9.52147 13.8088 9.38947L11.6537 12.6959C11.6502 12.7012 11.6466 12.7064 11.643 12.7115C11.3025 13.252 11.1054 13.8918 11.1054 14.579C11.1054 16.5168 12.6764 18.0878 14.6142 18.0878C16.552 18.0878 18.123 16.5168 18.123 14.579C18.123 13.9153 17.9392 13.2957 17.6198 12.7671C17.5985 12.7459 17.5791 12.7221 17.562 12.6959ZM2.78931 4.45637C2.54708 4.45637 2.35071 4.65274 2.35071 4.89497C2.35071 5.1372 2.54708 5.33357 2.78931 5.33357H4.42968C4.77359 5.33357 5.05249 5.61247 5.05249 5.95638C5.05249 6.3003 4.77359 6.5792 4.42968 6.5792H4.38582C4.14359 6.5792 3.94722 6.77557 3.94722 7.0178V10.7776C3.23958 10.9702 2.71925 11.6173 2.71925 12.386C2.71925 12.6894 2.80032 12.9738 2.94198 13.2189L0.701768 16.6558C0.696953 16.6624 0.692296 16.6693 0.687806 16.6763C0.252305 17.3577 0 18.1678 0 19.0353C0 21.4576 1.96375 23.4213 4.38601 23.4213C6.80826 23.4213 8.77202 21.4576 8.77202 19.0353C8.77202 18.1678 8.51971 17.3577 8.08421 16.6763C8.06516 16.6465 8.04311 16.6198 8.0187 16.5963L5.82393 13.2291C5.96927 12.9818 6.05262 12.6936 6.05262 12.386C6.05262 11.6172 5.53218 10.9701 4.82442 10.7776V7.40391C5.46132 7.23061 5.92969 6.64815 5.92969 5.95638C5.92969 5.12801 5.25806 4.45637 4.42968 4.45637H2.78931ZM7.3338 17.1519C7.35074 17.1779 7.36997 17.2015 7.39104 17.2226C7.71079 17.7514 7.89482 18.3713 7.89482 19.0353C7.89482 20.9731 6.3238 22.5441 4.38601 22.5441C2.44822 22.5441 0.877202 20.9731 0.877202 19.0353C0.877202 18.347 1.07494 17.7061 1.41661 17.165L1.42544 17.1519L3.58061 13.8455C3.81932 13.9775 4.09385 14.0526 4.38593 14.0526C4.67423 14.0526 4.94542 13.9795 5.18195 13.8506L7.3338 17.1519ZM4.9162 12.9709C4.94258 12.9295 4.9763 12.892 5.0169 12.8606C5.11642 12.7285 5.17541 12.5641 5.17541 12.386C5.17541 11.9499 4.82195 11.5965 4.38593 11.5965C3.94991 11.5965 3.59645 11.9499 3.59645 12.386C3.59645 12.5823 3.66814 12.762 3.78678 12.9001C3.7955 12.909 3.80379 12.9182 3.81164 12.9277C3.95558 13.0802 4.15964 13.1754 4.38593 13.1754C4.59004 13.1754 4.77606 13.098 4.9162 12.9709ZM3.9876 17.8236C4.20773 17.6035 4.56441 17.6035 4.78453 17.8236L5.35226 18.3913C5.57238 18.6114 5.57238 18.9681 5.35226 19.1882L4.7846 19.7559L4.78453 19.756C4.56441 19.9759 4.20772 19.9759 3.9876 19.756L3.98753 19.7559L3.41988 19.1882C3.19975 18.9681 3.19975 18.6114 3.41988 18.3913L3.9876 17.8236ZM5.40481 17.2033C4.84212 16.6406 3.93002 16.6406 3.36733 17.2033L2.7996 17.771C2.23691 18.3337 2.23691 19.2458 2.7996 19.8085L3.36733 20.3762L3.3674 20.3763C3.93007 20.9387 4.84206 20.9387 5.40474 20.3763L5.40481 20.3762L5.97254 19.8085C6.53523 19.2458 6.53523 18.3337 5.97254 17.771L5.40481 17.2033ZM14.2158 13.3672C14.4359 13.1471 14.7926 13.1471 15.0128 13.3672L15.5805 13.9349C15.8006 14.1551 15.8006 14.5117 15.5805 14.7319L15.0128 15.2995L15.0128 15.2996C14.7926 15.5195 14.4359 15.5195 14.2158 15.2996L14.2157 15.2995L13.6481 14.7319C13.428 14.5117 13.428 14.1551 13.6481 13.9349L14.2158 13.3672ZM15.633 12.7469C15.0703 12.1842 14.1582 12.1842 13.5955 12.7469L13.0278 13.3147C12.4651 13.8774 12.4651 14.7895 13.0278 15.3521L13.5955 15.9199L13.5956 15.9199C14.1583 16.4824 15.0703 16.4824 15.633 15.9199L15.633 15.9199L16.2008 15.3521C16.7634 14.7895 16.7634 13.8774 16.2008 13.3147L15.633 12.7469Z" fill="white"/>
</svg>
