<svg width="16" height="10" viewBox="0 0 16 10" fill="none" xmlns="http://www.w3.org/2000/svg">
<path d="M3.99935 4.3335C3.86749 4.3335 3.7386 4.3726 3.62897 4.44585C3.51934 4.5191 3.43389 4.62322 3.38343 4.74504C3.33297 4.86686 3.31977 5.0009 3.34549 5.13022C3.37122 5.25954 3.43471 5.37833 3.52794 5.47157C3.62118 5.5648 3.73997 5.6283 3.86929 5.65402C3.99861 5.67974 4.13265 5.66654 4.25447 5.61608C4.37629 5.56562 4.48041 5.48018 4.55366 5.37054C4.62692 5.26091 4.66602 5.13202 4.66602 5.00016C4.66602 4.82335 4.59578 4.65378 4.47075 4.52876C4.34573 4.40373 4.17616 4.3335 3.99935 4.3335ZM11.9993 4.3335C11.8675 4.3335 11.7386 4.3726 11.629 4.44585C11.5193 4.5191 11.4339 4.62322 11.3834 4.74504C11.333 4.86686 11.3198 5.0009 11.3455 5.13022C11.3712 5.25954 11.4347 5.37833 11.5279 5.47157C11.6212 5.5648 11.74 5.6283 11.8693 5.65402C11.9986 5.67974 12.1327 5.66654 12.2545 5.61608C12.3763 5.56562 12.4804 5.48018 12.5537 5.37054C12.6269 5.26091 12.666 5.13202 12.666 5.00016C12.666 4.82335 12.5958 4.65378 12.4708 4.52876C12.3457 4.40373 12.1762 4.3335 11.9993 4.3335ZM13.3327 0.333496L2.66602 0.333496C2.13558 0.333496 1.62687 0.54421 1.2518 0.919283C0.876729 1.29436 0.666016 1.80306 0.666016 2.3335L0.666016 7.66683C0.666016 8.19726 0.876729 8.70597 1.2518 9.08104C1.62687 9.45612 2.13558 9.66683 2.66602 9.66683L13.3327 9.66683C13.8631 9.66683 14.3718 9.45612 14.7469 9.08104C15.122 8.70597 15.3327 8.19726 15.3327 7.66683L15.3327 2.3335C15.3327 1.80306 15.122 1.29436 14.7469 0.919283C14.3718 0.54421 13.8631 0.333496 13.3327 0.333496ZM13.9993 7.66683C13.9993 7.84364 13.9291 8.01321 13.8041 8.13823C13.6791 8.26326 13.5095 8.3335 13.3327 8.3335L2.66602 8.3335C2.4892 8.3335 2.31964 8.26326 2.19461 8.13823C2.06959 8.01321 1.99935 7.84364 1.99935 7.66683L1.99935 2.3335C1.99935 2.15669 2.06959 1.98712 2.19461 1.86209C2.31964 1.73707 2.4892 1.66683 2.66602 1.66683L13.3327 1.66683C13.5095 1.66683 13.6791 1.73707 13.8041 1.86209C13.9291 1.98712 13.9993 2.15669 13.9993 2.3335L13.9993 7.66683ZM7.99935 3.00016C7.60379 3.00016 7.21711 3.11746 6.88821 3.33722C6.55931 3.55699 6.30296 3.86934 6.15159 4.2348C6.00021 4.60025 5.96061 5.00238 6.03778 5.39034C6.11495 5.77831 6.30543 6.13467 6.58513 6.41438C6.86484 6.69408 7.22121 6.88456 7.60917 6.96173C7.99713 7.0389 8.39926 6.9993 8.76472 6.84792C9.13017 6.69655 9.44252 6.4402 9.66229 6.1113C9.88205 5.78241 9.99935 5.39573 9.99935 5.00016C9.99935 4.46973 9.78864 3.96102 9.41356 3.58595C9.03849 3.21088 8.52978 3.00016 7.99935 3.00016ZM7.99935 5.66683C7.86749 5.66683 7.7386 5.62773 7.62897 5.55448C7.51934 5.48122 7.43389 5.3771 7.38343 5.25529C7.33297 5.13347 7.31977 4.99942 7.34549 4.8701C7.37122 4.74078 7.43471 4.62199 7.52794 4.52876C7.62118 4.43552 7.73997 4.37203 7.86929 4.34631C7.99861 4.32058 8.13265 4.33378 8.25447 4.38424C8.37629 4.4347 8.48041 4.52015 8.55366 4.62978C8.62692 4.73942 8.66602 4.86831 8.66602 5.00016C8.66602 5.17697 8.59578 5.34654 8.47075 5.47157C8.34573 5.59659 8.17616 5.66683 7.99935 5.66683Z" fill="white"/>
</svg>
