<svg width="13" height="11" viewBox="0 0 13 11" fill="none" xmlns="http://www.w3.org/2000/svg">
<path d="M10.875 0.8125H2.125C1.62772 0.8125 1.15081 1.01004 0.799175 1.36167C0.447544 1.71331 0.25 2.19022 0.25 2.6875V8.3125C0.25 8.80978 0.447544 9.28669 0.799175 9.63833C1.15081 9.98996 1.62772 10.1875 2.125 10.1875H10.875C11.3723 10.1875 11.8492 9.98996 12.2008 9.63833C12.5525 9.28669 12.75 8.80978 12.75 8.3125V2.6875C12.75 2.19022 12.5525 1.71331 12.2008 1.36167C11.8492 1.01004 11.3723 0.8125 10.875 0.8125ZM11.5 8.3125C11.5 8.47826 11.4342 8.63723 11.3169 8.75444C11.1997 8.87165 11.0408 8.9375 10.875 8.9375H2.125C1.95924 8.9375 1.80027 8.87165 1.68306 8.75444C1.56585 8.63723 1.5 8.47826 1.5 8.3125V2.6875C1.5 2.52174 1.56585 2.36277 1.68306 2.24556C1.80027 2.12835 1.95924 2.0625 2.125 2.0625H10.875C11.0408 2.0625 11.1997 2.12835 11.3169 2.24556C11.4342 2.36277 11.5 2.52174 11.5 2.6875V8.3125ZM9 4.5625C8.66771 4.56483 8.34202 4.65542 8.05625 4.825C7.77157 4.65608 7.44724 4.56554 7.11622 4.56258C6.78521 4.55961 6.45931 4.64434 6.17165 4.80814C5.88399 4.97194 5.64482 5.20898 5.47845 5.49516C5.31209 5.78135 5.22445 6.10647 5.22445 6.4375C5.22445 6.76853 5.31209 7.09365 5.47845 7.37984C5.64482 7.66602 5.88399 7.90306 6.17165 8.06686C6.45931 8.23066 6.78521 8.31539 7.11622 8.31242C7.44724 8.30946 7.77157 8.21892 8.05625 8.05C8.30487 8.19751 8.58424 8.28553 8.87252 8.30719C9.1608 8.32884 9.45018 8.28355 9.71805 8.17484C9.98592 8.06613 10.225 7.89695 10.4167 7.68052C10.6083 7.4641 10.7474 7.20628 10.8229 6.92723C10.8984 6.64818 10.9084 6.35544 10.852 6.0719C10.7956 5.78836 10.6745 5.52169 10.498 5.29273C10.3215 5.06377 10.0944 4.87872 9.83457 4.75205C9.57471 4.62537 9.28908 4.5605 9 4.5625ZM7.23125 7.0625C7.1959 7.06552 7.16035 7.06552 7.125 7.0625C6.95924 7.0625 6.80027 6.99665 6.68306 6.87944C6.56585 6.76223 6.5 6.60326 6.5 6.4375C6.5 6.27174 6.56585 6.11277 6.68306 5.99556C6.80027 5.87835 6.95924 5.8125 7.125 5.8125C7.16035 5.80948 7.1959 5.80948 7.23125 5.8125C7.08982 6.2 7.08982 6.625 7.23125 7.0125V7.0625ZM9 7.0625C8.87639 7.0625 8.75555 7.02584 8.65277 6.95717C8.54999 6.88849 8.46988 6.79088 8.42257 6.67668C8.37527 6.56247 8.36289 6.43681 8.38701 6.31557C8.41113 6.19433 8.47065 6.08297 8.55806 5.99556C8.64547 5.90815 8.75683 5.84862 8.87807 5.82451C8.99931 5.80039 9.12497 5.81277 9.23918 5.86007C9.35338 5.90738 9.45099 5.98749 9.51967 6.09027C9.58834 6.19305 9.625 6.31389 9.625 6.4375C9.625 6.60326 9.55915 6.76223 9.44194 6.87944C9.32473 6.99665 9.16576 7.0625 9 7.0625Z" fill="white"/>
</svg>
