<svg width="15" height="29" viewBox="0 0 15 29" fill="none" xmlns="http://www.w3.org/2000/svg">
<path d="M14.6592 13.3386C14.4733 12.8919 14.1632 12.8437 14.0383 12.8437H13.5305C13.4487 12.4415 13.3268 12.0484 13.1655 11.6668C12.8517 10.9248 12.4025 10.2584 11.8305 9.6862L11.5299 6.78589C11.478 6.28432 11.2451 5.81994 10.8744 5.47814L10.5869 5.21282V1.60798C10.5869 0.721424 9.86562 0 8.9789 0L5.84608 0C4.95952 0 4.2381 0.721261 4.2381 1.60798V5.1266L3.85669 5.47814C3.48599 5.81994 3.25314 6.28432 3.20119 6.78589L2.89251 9.76544L2.92937 9.76934C2.39614 10.3227 1.97429 10.9603 1.67553 11.6668C1.51413 12.0482 1.39235 12.4415 1.31051 12.8437H0.754061C0.629358 12.8437 0.319063 12.8919 0.133146 13.3386C0.0472508 13.5448 0 13.8102 0 14.0859C0 14.3616 0.0472508 14.6269 0.133146 14.8331C0.319063 15.2798 0.629196 15.328 0.754061 15.328H1.30727C1.3891 15.7359 1.51218 16.1345 1.67569 16.5211C1.97023 17.2176 2.38396 17.8474 2.90664 18.3952L3.20135 21.2397C3.25331 21.7413 3.48615 22.2057 3.85685 22.5474L4.23826 22.899V26.58C4.23826 27.4665 4.95952 28.188 5.84624 28.188H8.97907C9.86562 28.188 10.587 27.4667 10.587 26.58V22.8126L10.8748 22.5473C11.2455 22.2055 11.4783 21.7411 11.5303 21.2395L11.812 18.5199C11.8178 18.5141 11.8238 18.5086 11.8297 18.5027C12.4022 17.9302 12.8517 17.2635 13.1657 16.521C13.3292 16.1344 13.4521 15.7357 13.5341 15.3279H14.0386C14.1633 15.3279 14.4736 15.2796 14.6595 14.8329C14.7454 14.6267 14.7927 14.3614 14.7927 14.0857C14.7927 13.81 14.7451 13.5448 14.6592 13.3386ZM0.880387 14.5162C0.848724 14.4366 0.812028 14.2879 0.812028 14.0859C0.812028 13.8839 0.848724 13.7351 0.880387 13.6556H1.20075C1.19068 13.8009 1.18565 13.947 1.18565 14.094C1.18565 14.2354 1.19036 14.3762 1.19977 14.5162H0.880387ZM7.82654 19.5021V18.6062C8.88343 18.513 9.86465 18.0567 10.6239 17.2974C11.3832 16.5382 11.8394 15.557 11.9326 14.5001H12.8286C12.6304 17.1674 10.494 19.3037 7.82654 19.5021ZM2.01245 14.4999H2.90843C3.00163 15.5568 3.4579 16.538 4.21715 17.2973C4.97641 18.0565 5.95763 18.5128 7.01452 18.606V19.502C4.34721 19.3037 2.21087 17.1674 2.01245 14.4999ZM7.42061 17.8123C5.37033 17.8123 3.70227 16.1443 3.70227 14.094C3.70227 12.0437 5.37033 10.3756 7.42061 10.3756C9.4709 10.3756 11.139 12.0437 11.139 14.094C11.139 16.1443 9.4709 17.8123 7.42061 17.8123ZM7.01468 9.58196C5.95779 9.67516 4.97657 10.1314 4.21732 10.8907C3.45806 11.6499 3.00179 12.6312 2.90859 13.688H2.01261C2.21087 11.0206 4.34721 8.88424 7.01468 8.68582V9.58196ZM11.9326 13.688C11.8394 12.6312 11.3832 11.6499 10.6239 10.8907C9.86465 10.1314 8.88343 9.67516 7.82654 9.58196V8.68598C10.494 8.88424 12.6304 11.0206 12.8288 13.6882H11.9326V13.688ZM5.04996 1.60798C5.04996 1.16909 5.40702 0.811865 5.84608 0.811865L8.9789 0.811865C9.41796 0.811865 9.77502 1.16892 9.77502 1.60798V5.42277C9.77502 5.86167 9.41796 6.21889 8.9789 6.21889L5.84608 6.21889C5.40719 6.21889 5.04996 5.86183 5.04996 5.42277V1.60798ZM4.00883 6.86952C4.03935 6.57465 4.17315 6.30105 4.38586 6.09548C4.64095 6.64707 5.19951 7.03059 5.84608 7.03059L8.9789 7.03059C9.60014 7.03059 10.14 6.67646 10.4078 6.15962C10.5844 6.35642 10.6952 6.60436 10.7226 6.86952L10.9376 8.94432C10.5963 8.71083 10.2323 8.51143 9.84776 8.3489C9.07876 8.02383 8.26219 7.85886 7.42061 7.85886C6.57903 7.85886 5.76246 8.02383 4.99346 8.34906C4.56414 8.53059 4.16032 8.75775 3.78524 9.02762L4.00883 6.86952ZM9.77502 26.58C9.77502 27.019 9.41796 27.3761 8.9789 27.3761H5.84608C5.40719 27.3761 5.04996 27.019 5.04996 26.58V22.7652C5.04996 22.3261 5.40702 21.9691 5.84608 21.9691H8.9789C9.41796 21.9691 9.77502 22.3261 9.77502 22.7652V26.58ZM10.7226 21.1561C10.6923 21.449 10.5603 21.7208 10.35 21.9259C10.0668 21.4652 9.55825 21.1572 8.97907 21.1572H5.84608C5.24335 21.1572 4.7171 21.4906 4.44188 21.9825L4.40697 21.9504C4.18176 21.7427 4.04033 21.4607 4.00883 21.1559L3.80343 19.1737C4.17331 19.4377 4.57113 19.6603 4.99346 19.8389C5.76246 20.1641 6.57903 20.3291 7.42061 20.3291C8.26219 20.3291 9.07876 20.1641 9.84776 19.8389C10.2254 19.6791 10.5835 19.4841 10.9194 19.256L10.7226 21.1561ZM13.9121 14.5162H13.6416C13.6509 14.3762 13.6557 14.2354 13.6557 14.094C13.6557 13.947 13.6505 13.8009 13.6406 13.6556H13.9123C13.9439 13.7351 13.9806 13.8839 13.9806 14.0859C13.9806 14.2879 13.9438 14.4366 13.9121 14.5162Z" fill="white"/>
<path d="M8.45431 13.0895C8.34227 13.1635 8.23186 13.2392 8.12177 13.3152L7.95777 13.4301L7.7954 13.5469L7.63562 13.6662L7.47763 13.7872C7.42503 13.8276 7.36998 13.8656 7.31364 13.9022C7.25713 13.9387 7.19949 13.9741 7.14412 14.0118C7.08875 14.0494 7.03647 14.0902 6.98954 14.1363C6.94245 14.1823 6.9004 14.2332 6.86224 14.288C6.78609 14.3979 6.71984 14.5177 6.66723 14.651C6.6406 14.7174 6.61819 14.7879 6.59952 14.8624C6.59059 14.8999 6.58215 14.9381 6.57581 14.9782C6.56932 15.0182 6.56396 15.0594 6.5625 15.1044L6.61998 15.1619C6.66496 15.1604 6.7062 15.155 6.74614 15.1485C6.78625 15.1422 6.82441 15.1338 6.86192 15.1248C6.93628 15.1062 7.00675 15.0836 7.07333 15.0571C7.20663 15.0044 7.32647 14.9381 7.43639 14.8621C7.49111 14.824 7.54226 14.7819 7.58805 14.7348C7.634 14.6879 7.67492 14.6356 7.71259 14.5802C7.75026 14.5249 7.78549 14.4671 7.82219 14.4107C7.85872 14.3542 7.89672 14.2992 7.93715 14.2467L8.05812 14.0887L8.17746 13.929L8.29421 13.7666L8.40917 13.6026C8.48516 13.4925 8.56083 13.3821 8.63487 13.27C8.70923 13.1583 8.78182 13.0448 8.85261 12.9296L8.79513 12.8721C8.67952 12.9425 8.56602 13.0151 8.45431 13.0895Z" fill="white"/>
<path d="M6.29588 3.98614H6.56331C6.71821 3.98614 6.84356 3.86063 6.84356 3.70589V3.43846C6.84356 3.28355 6.71805 3.1582 6.56331 3.1582H6.29588C6.14098 3.1582 6.01562 3.28372 6.01562 3.43846V3.70589C6.01562 3.86063 6.14114 3.98614 6.29588 3.98614Z" fill="white"/>
<path d="M8.26854 3.99444H8.53597C8.69071 3.99444 8.81622 3.86893 8.81622 3.71419V3.44676C8.81622 3.29186 8.69071 3.1665 8.53597 3.1665H8.26854C8.1138 3.1665 7.98828 3.29202 7.98828 3.44676V3.71419C7.98828 3.86893 8.1138 3.99444 8.26854 3.99444Z" fill="white"/>
<path d="M6.29588 2.32989H6.56331C6.71821 2.32989 6.84356 2.20438 6.84356 2.04964V1.78221C6.84356 1.62731 6.71805 1.50195 6.56331 1.50195H6.29588C6.14098 1.50195 6.01562 1.62747 6.01562 1.78221V2.04964C6.01562 2.20438 6.14114 2.32989 6.29588 2.32989Z" fill="white"/>
<path d="M8.26854 2.33819H8.53597C8.69071 2.33819 8.81622 2.21268 8.81622 2.05794V1.79051C8.81622 1.63561 8.69071 1.51025 8.53597 1.51025H8.26854C8.1138 1.51025 7.98828 1.63577 7.98828 1.79051V2.05794C7.98828 2.21268 8.1138 2.33819 8.26854 2.33819Z" fill="white"/>
<path d="M6.29588 5.59356H6.56331C6.71821 5.59356 6.84356 5.46805 6.84356 5.31331V5.04588C6.84356 4.89098 6.71805 4.76562 6.56331 4.76562H6.29588C6.14098 4.76562 6.01562 4.89114 6.01562 5.04588V5.31331C6.01562 5.46805 6.14114 5.59356 6.29588 5.59356Z" fill="white"/>
<path d="M8.26854 5.60187H8.53597C8.69071 5.60187 8.81622 5.47635 8.81622 5.32161V5.05418C8.81622 4.89928 8.69071 4.77393 8.53597 4.77393H8.26854C8.1138 4.77393 7.98828 4.89944 7.98828 5.05418V5.32161C7.98828 5.47635 8.1138 5.60187 8.26854 5.60187Z" fill="white"/>
<path d="M6.56331 24.2827H6.29588C6.14098 24.2827 6.01562 24.4082 6.01562 24.563V24.8304C6.01562 24.9851 6.14114 25.1107 6.29588 25.1107H6.56331C6.71821 25.1107 6.84356 24.9851 6.84356 24.8304V24.563C6.84356 24.4082 6.71805 24.2827 6.56331 24.2827Z" fill="white"/>
<path d="M8.53597 24.291H8.26854C8.1138 24.291 7.98828 24.4165 7.98828 24.5713V24.8387C7.98828 24.9934 8.1138 25.119 8.26854 25.119H8.53597C8.69071 25.119 8.81622 24.9934 8.81622 24.8387V24.5713C8.81622 24.4165 8.69071 24.291 8.53597 24.291Z" fill="white"/>
<path d="M6.56331 22.6265H6.29588C6.14098 22.6265 6.01562 22.752 6.01562 22.9067V23.1741C6.01562 23.3289 6.14114 23.4544 6.29588 23.4544H6.56331C6.71821 23.4544 6.84356 23.3289 6.84356 23.1741V22.9067C6.84356 22.752 6.71805 22.6265 6.56331 22.6265Z" fill="white"/>
<path d="M8.53597 22.6348H8.26854C8.1138 22.6348 7.98828 22.7603 7.98828 22.915V23.1824C7.98828 23.3372 8.1138 23.4627 8.26854 23.4627H8.53597C8.69071 23.4627 8.81622 23.3372 8.81622 23.1824V22.915C8.81622 22.7603 8.69071 22.6348 8.53597 22.6348Z" fill="white"/>
<path d="M6.56331 25.8901H6.29588C6.14098 25.8901 6.01562 26.0157 6.01562 26.1704V26.4378C6.01562 26.5926 6.14114 26.7181 6.29588 26.7181H6.56331C6.71821 26.7181 6.84356 26.5926 6.84356 26.4378V26.1704C6.84356 26.0157 6.71805 25.8901 6.56331 25.8901Z" fill="white"/>
<path d="M8.53597 25.8984H8.26854C8.1138 25.8984 7.98828 26.024 7.98828 26.1787V26.4461C7.98828 26.6009 8.1138 26.7264 8.26854 26.7264H8.53597C8.69071 26.7264 8.81622 26.6009 8.81622 26.4461V26.1787C8.81622 26.024 8.69071 25.8984 8.53597 25.8984Z" fill="white"/>
</svg>
