<svg width="22" height="20" viewBox="0 0 22 20" fill="none" xmlns="http://www.w3.org/2000/svg">
<path fill-rule="evenodd" clip-rule="evenodd" d="M9 0.5C8.33696 0.5 7.70107 0.763392 7.23223 1.23223C6.76339 1.70107 6.5 2.33696 6.5 3V4.5H3C1.61929 4.5 0.5 5.61929 0.5 7V17C0.5 18.3807 1.61929 19.5 3 19.5H7H15H19C20.3807 19.5 21.5 18.3807 21.5 17V7C21.5 5.61929 20.3807 4.5 19 4.5H15.5V3C15.5 2.33696 15.2366 1.70107 14.7678 1.23223C14.2989 0.763392 13.663 0.5 13 0.5H9ZM14.5 4.5V3C14.5 2.60218 14.342 2.22064 14.0607 1.93934C13.7794 1.65804 13.3978 1.5 13 1.5H9C8.60217 1.5 8.22064 1.65804 7.93934 1.93934C7.65804 2.22064 7.5 2.60218 7.5 3V4.5H14.5ZM7.5 5.5H14.5V18.5H7.5V5.5ZM6.5 5.5H3C2.17157 5.5 1.5 6.17157 1.5 7V17C1.5 17.8284 2.17157 18.5 3 18.5H6.5V5.5ZM15.5 18.5V5.5H19C19.8284 5.5 20.5 6.17157 20.5 7V17C20.5 17.8284 19.8284 18.5 19 18.5H15.5Z" fill="white"/>
</svg>
