<svg width="23" height="22" viewBox="0 0 23 22" fill="none" xmlns="http://www.w3.org/2000/svg">
<path d="M4.49797 10.5313C4.55699 10.5313 4.61602 10.5206 4.67325 10.4956C4.68935 10.4884 6.22757 9.83378 6.95733 9.70143C7.20058 9.65671 7.36156 9.42419 7.31684 9.18094C7.27213 8.93768 7.0396 8.77671 6.79635 8.82142C5.97001 8.97167 4.38886 9.64419 4.32268 9.67281C4.09553 9.76939 3.99 10.0323 4.08658 10.2595C4.15992 10.4294 4.32447 10.5313 4.49797 10.5313Z" fill="white"/>
<path d="M4.82463 11.1401C4.59748 11.2367 4.49195 11.4996 4.58854 11.7268C4.66187 11.8967 4.82642 11.9986 4.99992 11.9986C5.05894 11.9986 5.11797 11.9879 5.17521 11.9629C5.1913 11.9557 6.72952 11.3011 7.45928 11.1687C7.70253 11.124 7.86351 10.8915 7.81879 10.6482C7.77408 10.405 7.54156 10.244 7.2983 10.2887C6.47196 10.439 4.89081 11.1115 4.82463 11.1401Z" fill="white"/>
<path d="M22.7672 9.84671C22.5812 9.55696 22.2985 9.34232 21.9712 9.24037C21.8317 9.19744 21.6868 9.17598 21.542 9.17598C21.4722 9.17598 21.4042 9.18134 21.3363 9.19029L21.4811 8.80573C21.6189 8.44085 21.6099 8.0402 21.4579 7.68248C21.22 7.12264 20.6727 6.75954 20.0628 6.75954C19.8088 6.75954 19.5673 6.82036 19.3473 6.93841C19.3992 6.62719 19.3491 6.30881 19.1989 6.02621C19.0182 5.68458 18.7159 5.43417 18.3475 5.3197C18.208 5.27677 18.0649 5.25531 17.92 5.25531C17.6123 5.25531 17.319 5.35011 17.0704 5.53255C16.8951 5.65954 16.7538 5.82052 16.6536 6.00475C16.5481 5.87954 16.4229 5.76865 16.278 5.67922C16.0294 5.52539 15.7432 5.44312 15.4517 5.44312C14.7327 5.44312 14.1066 5.92962 13.9278 6.62361L12.9905 10.2742C12.6918 10.0739 12.3377 9.96297 11.9639 9.96297C11.81 9.96297 11.6562 9.98265 11.506 10.022C11.5757 9.96119 11.6437 9.90395 11.7099 9.85029C12.1159 9.52118 12.3645 9.03468 12.3913 8.51419C12.4182 7.9937 12.2232 7.48394 11.8548 7.11548C11.506 6.7667 11.0445 6.57532 10.5526 6.57532C10.3702 6.57532 10.1931 6.60215 10.0232 6.65223L10.2056 2.88717C10.2271 2.45432 10.0733 2.04115 9.77459 1.72814C9.47947 1.41692 9.0645 1.23985 8.63702 1.23985C8.50288 1.23985 8.36873 1.25773 8.23816 1.29172C8.07361 1.33464 7.91978 1.40261 7.78206 1.49204C7.64612 0.833828 7.06303 0.338379 6.36547 0.338379C5.63392 0.338379 5.02758 0.883909 4.93278 1.59042C4.65018 1.30424 4.26204 1.13968 3.85424 1.13968C3.40708 1.13968 2.98675 1.33464 2.697 1.67627C2.4448 1.97497 2.3196 2.35416 2.34285 2.74408L2.36789 3.15368C2.17829 3.06424 1.96724 3.01595 1.74724 3.01595C1.40382 3.01595 1.06935 3.13758 0.808207 3.35937C0.545279 3.58116 0.369994 3.89059 0.312758 4.22864L0.203651 4.87076C0.158936 5.13905 0.189342 5.41271 0.291294 5.66312C1.03536 7.47678 1.53975 9.52476 1.83309 10.9235C2.15325 12.4527 2.29813 13.5617 2.29992 13.5742C2.30708 13.6279 2.31781 13.6797 2.3339 13.7298C2.31244 13.7817 2.30171 13.8389 2.30171 13.898V15.0606C2.30171 15.5489 2.69878 15.9459 3.18708 15.9459H8.92857C9.41686 15.9459 9.81394 15.5489 9.81394 15.0606V13.898C9.81394 13.694 9.678 13.5241 9.49377 13.4687C9.62077 12.8015 9.84792 12.2202 10.1269 11.7194C10.1091 12.1111 10.2146 12.5046 10.4364 12.8355C11.032 13.7245 11.6884 15.15 11.4881 16.9476C11.2949 16.9458 11.1143 17.0692 11.0552 17.2624L10.7118 18.3731C10.6421 18.5985 10.6635 18.8381 10.7744 19.0474C10.8853 19.2567 11.0696 19.4105 11.2967 19.4803L16.7824 21.1741C16.8683 21.2009 16.9577 21.2134 17.0454 21.2134C17.1867 21.2134 17.328 21.1794 17.4585 21.1097C17.6678 20.9988 17.8216 20.8146 17.8914 20.5874L18.2348 19.4767C18.2527 19.4194 18.258 19.3622 18.2527 19.3068C18.2831 19.2638 18.3099 19.2173 18.3314 19.1672C18.3367 19.1565 18.8 18.1406 19.5584 16.7723C20.2524 15.522 21.3398 13.7137 22.5847 12.2023C22.7564 11.9931 22.8673 11.7409 22.9031 11.4708L22.989 10.8251C23.0301 10.4817 22.9532 10.1347 22.7672 9.84671ZM1.11585 5.3197C1.0765 5.22311 1.06577 5.11759 1.08187 5.01563L1.19097 4.37352C1.23748 4.10344 1.47 3.9049 1.74545 3.9049C1.9726 3.9049 2.17651 4.04083 2.26415 4.25189L3.19781 6.50556C3.22106 6.5628 3.27115 6.58962 3.32123 6.58962C3.39277 6.58962 3.46432 6.53597 3.45895 6.44475L3.23537 2.68506C3.22643 2.52587 3.2783 2.37026 3.38025 2.24863C3.50545 2.10196 3.67895 2.02863 3.85424 2.02863C4.04741 2.02863 4.24058 2.11806 4.36221 2.29335L4.42481 2.38278C4.49099 2.47758 4.52855 2.58847 4.5357 2.70294L4.71457 5.79369C4.74139 6.25873 5.12595 6.62182 5.58384 6.62182C5.61067 6.62182 5.63929 6.62003 5.6679 6.61824C5.75734 6.6093 5.81457 6.58963 5.81457 6.55206V1.78001C5.81457 1.47594 6.0614 1.22911 6.36547 1.22911C6.66953 1.22911 6.91636 1.47594 6.91636 1.78001V6.02442C6.91636 6.36784 7.17929 6.54312 7.43864 6.54312C7.68905 6.54312 7.93767 6.38214 7.95377 6.05304C7.95556 6.0119 7.95735 5.96718 7.95735 5.92247V2.80847C7.95735 2.50083 8.16483 2.23074 8.46353 2.15383C8.52255 2.13952 8.57979 2.13058 8.63702 2.13058C9.01085 2.13058 9.33101 2.44359 9.31133 2.84067L9.0806 7.63061C9.06987 7.86313 9.25768 8.02053 9.45442 8.02053C9.54564 8.02053 9.63865 7.98654 9.71378 7.91142L9.88191 7.74329C10.0679 7.55727 10.3094 7.46605 10.5526 7.46605C10.7959 7.46605 11.0374 7.55906 11.2234 7.74329C11.6222 8.14215 11.5865 8.79679 11.1483 9.15094C10.2539 9.87533 8.95003 11.2722 8.58515 13.4544H3.1835C3.1835 13.4562 2.60935 8.96313 1.11585 5.3197ZM3.19245 15.048V14.3505H8.58336C8.70141 14.3505 8.8141 14.3272 8.91605 14.2861V15.048H3.19245ZM17.0346 20.3138L11.5668 18.6253L11.7922 17.8973C11.878 17.9671 11.98 18.0225 12.0909 18.0565L17.2403 19.6466L17.0346 20.3138ZM22.0982 10.7053L22.0124 11.3509C21.9981 11.4547 21.9569 11.5513 21.8907 11.6318C19.3885 14.6706 17.514 18.7952 17.514 18.7952L12.3556 17.2015C12.6525 15.0087 11.8172 13.288 11.1769 12.3329C10.8639 11.8643 11.023 11.2275 11.5203 10.9646C11.6616 10.8895 11.8136 10.8555 11.9621 10.8555C12.3019 10.8555 12.631 11.0397 12.8009 11.3617L12.9118 11.5709C12.9834 11.7051 13.1104 11.7695 13.2392 11.7695C13.3966 11.7695 13.554 11.6729 13.6005 11.4905L14.7935 6.8454C14.874 6.5306 15.1548 6.33564 15.4499 6.33564C15.5697 6.33564 15.6932 6.36784 15.8058 6.43759C16.067 6.60036 16.1868 6.91873 16.0956 7.21386L15.1762 10.1901C15.1637 10.2331 15.1512 10.2742 15.1405 10.3153C15.0385 10.707 15.3497 10.961 15.6574 10.961C15.8613 10.961 16.0616 10.8501 16.1403 10.5944L17.3941 6.53776C17.4675 6.30166 17.6857 6.14962 17.9218 6.14962C17.9754 6.14962 18.0309 6.15678 18.0845 6.17466C18.3761 6.2641 18.5389 6.57353 18.4494 6.86507L17.04 11.4261C17.0293 11.4618 17.0775 11.4976 17.1598 11.5334C17.2689 11.5781 17.3798 11.5996 17.4907 11.5996C17.8449 11.5996 18.1811 11.3796 18.3135 11.0254L19.3956 8.12606C19.435 8.01874 19.5047 7.92394 19.5959 7.8524L19.6836 7.78443C19.798 7.695 19.9304 7.65386 20.0628 7.65386C20.3007 7.65386 20.5332 7.78979 20.6351 8.03126C20.6977 8.17793 20.7013 8.34248 20.6441 8.49094L19.3205 12.0163C19.2829 12.1165 19.3634 12.2005 19.4493 12.2005C19.485 12.2005 19.5226 12.1862 19.5512 12.1505L21.1091 10.2724C21.2182 10.1418 21.3774 10.0685 21.542 10.0685C21.5974 10.0685 21.6529 10.0774 21.7083 10.0935C21.9694 10.1758 22.134 10.4334 22.0982 10.7053Z" fill="white"/>
<path d="M17.5393 14.8444C17.4839 14.7979 16.1728 13.6889 15.427 13.3008C15.2088 13.1863 14.9387 13.2722 14.8242 13.4904C14.7097 13.7086 14.7956 13.9787 15.0138 14.0931C15.6702 14.4348 16.9473 15.5151 16.9616 15.5258C17.0457 15.5974 17.1476 15.6314 17.2514 15.6314C17.3784 15.6314 17.5036 15.5777 17.593 15.474C17.7504 15.2861 17.7271 15.0053 17.5393 14.8444Z" fill="white"/>
<path d="M16.6292 16.0978C16.5737 16.0513 15.2627 14.9423 14.5168 14.5542C14.2986 14.4397 14.0285 14.5256 13.9141 14.7438C13.7996 14.962 13.8854 15.2321 14.1036 15.3466C14.7601 15.6882 16.0372 16.7685 16.0515 16.7792C16.1355 16.8508 16.2375 16.8848 16.3412 16.8848C16.4682 16.8848 16.5934 16.8311 16.6828 16.7274C16.842 16.5396 16.8188 16.2587 16.6292 16.0978Z" fill="white"/>
</svg>
