<svg width="13" height="22" viewBox="0 0 13 22" fill="none" xmlns="http://www.w3.org/2000/svg">
<path d="M12.4517 6.56535C12.123 5.30463 11.651 4.1704 11.0492 3.19405C10.4389 2.20412 9.72411 1.42407 8.92486 0.87562C8.07782 0.294684 7.17424 0 6.23897 0C5.57292 0 4.91562 0.152105 4.28549 0.451943H4.28534C3.60321 0.776611 2.96168 1.26931 2.3784 1.91631C1.81277 2.54394 1.3132 3.30415 0.893735 4.17555C0.839702 4.28737 0.786293 4.4034 0.734759 4.52005C0.732572 4.52521 0.730386 4.53021 0.728356 4.53552C0.727888 4.53661 0.727419 4.53817 0.72695 4.53911C0.725232 4.54379 0.723515 4.54848 0.721798 4.55332C0.646526 4.77523 0.608733 5.0076 0.609202 5.24404C0.6117 6.41825 1.569 7.37601 2.7432 7.37882C2.74508 7.37882 2.7468 7.37882 2.74867 7.37882C3.27667 7.37882 3.78342 7.18502 4.17633 6.83302C4.53661 6.51007 4.77664 6.05672 4.85206 5.55653C4.85987 5.50515 4.86877 5.45377 4.87861 5.40317C4.9759 4.90547 5.17595 4.46259 5.44221 4.15619C5.61259 3.96005 5.89197 3.72627 6.25459 3.72627C6.60627 3.72627 6.94921 3.95068 7.22016 4.35827C7.22016 4.35827 7.22016 4.35842 7.22031 4.35842C7.36227 4.57175 7.4758 4.82224 7.55763 5.10271C7.56138 5.11567 7.56591 5.12832 7.57091 5.14081C8.23711 6.77384 8.58926 8.67984 8.58926 10.6527C8.58926 12.5763 8.25319 14.4423 7.61744 16.049C7.61744 16.049 7.61744 16.0491 7.61729 16.0491C7.53889 16.2478 7.45425 16.4453 7.36602 16.6365C7.08148 17.1348 6.69044 17.4203 6.29097 17.4203C5.48812 17.4203 4.8099 16.2974 4.8099 14.9685C4.8099 14.9502 4.81005 14.9322 4.81037 14.9132C4.81193 14.7942 4.81896 14.6746 4.83129 14.5579C4.87783 14.1144 4.80068 13.6801 4.60813 13.302C4.4073 12.9077 4.10262 12.5751 3.72705 12.34C3.34054 12.0981 2.89406 11.9702 2.43618 11.9702C1.09285 11.9702 0 13.0631 0 14.4064C0 14.5136 0.00702772 14.6212 0.0207703 14.7264C0.0231128 14.7444 0.0267045 14.762 0.0313894 14.7792C0.0824555 14.9741 0.138363 15.1704 0.19755 15.3626C0.198331 15.365 0.198955 15.3673 0.199736 15.3697C0.600301 16.6677 1.15328 17.8046 1.84353 18.7488C2.55315 19.7193 3.36724 20.4304 4.26316 20.8622C4.26332 20.8622 4.26332 20.8623 4.26347 20.8623C4.90032 21.1692 5.56496 21.3247 6.23866 21.3247C7.17393 21.3247 8.07751 21.03 8.92439 20.4491C9.72365 19.9008 10.4384 19.1208 11.0487 18.1307C11.6506 17.1543 12.1225 16.0199 12.4512 14.7594C12.7898 13.4608 12.9614 12.0825 12.9614 10.6625C12.9614 9.2425 12.7903 7.86387 12.4517 6.56535ZM4.85284 3.64397C4.49319 4.05781 4.23708 4.61438 4.11231 5.25294C4.10028 5.31447 4.08935 5.3774 4.07982 5.44018C4.03141 5.76126 3.88056 6.04954 3.65505 6.25162C3.40566 6.47509 3.08396 6.59815 2.74867 6.59815C2.74758 6.59815 2.74633 6.59815 2.74523 6.59815C1.99954 6.59628 1.39175 5.98817 1.39019 5.24248C1.38987 5.0974 1.4122 4.95513 1.4564 4.81911C1.502 4.71604 1.54932 4.61391 1.59711 4.51474C2.33249 2.98698 3.34085 1.83307 4.45197 1.2423C4.46259 1.24792 4.47321 1.25338 4.48382 1.25916C4.49023 1.2626 4.49679 1.26619 4.50319 1.26978C4.53333 1.28649 4.56347 1.30351 4.5933 1.32085C4.59939 1.32444 4.60563 1.32803 4.61172 1.33162C4.63968 1.34802 4.66763 1.36489 4.69543 1.38191C4.69918 1.38425 4.70292 1.38644 4.70667 1.38878C4.7365 1.40721 4.76633 1.42626 4.79584 1.44562C4.80303 1.45031 4.81005 1.45484 4.81708 1.45952C4.84644 1.47889 4.8758 1.49841 4.905 1.51855C4.90969 1.52168 4.91422 1.52496 4.9189 1.52824C4.94529 1.54651 4.97169 1.56525 4.99792 1.58414C5.00417 1.58867 5.01026 1.59304 5.0165 1.59757C5.04493 1.61834 5.07335 1.63943 5.10161 1.66098C5.10864 1.66629 5.11567 1.67175 5.12254 1.67706C5.15003 1.69814 5.17751 1.71969 5.20484 1.7414C5.20718 1.74328 5.20968 1.74515 5.21202 1.74718C5.24013 1.76982 5.26824 1.79278 5.2962 1.8162C5.30323 1.82214 5.31041 1.82792 5.31744 1.83401C5.34508 1.85728 5.37256 1.88086 5.39989 1.90475C5.40583 1.9099 5.41176 1.91521 5.41769 1.92052C5.44237 1.94223 5.46689 1.96425 5.49125 1.98658C5.4964 1.99127 5.50155 1.99595 5.50671 2.00064C5.53388 2.02562 5.5609 2.05108 5.58791 2.07669C5.59479 2.08325 5.60181 2.08996 5.60869 2.09668C5.63586 2.12291 5.66287 2.14931 5.68989 2.17617C5.69333 2.1796 5.69676 2.18304 5.7002 2.18647C5.72503 2.21146 5.74986 2.23676 5.77438 2.26221C5.78047 2.26862 5.78671 2.27486 5.7928 2.28127C5.81904 2.30875 5.84527 2.33655 5.87135 2.36481C5.87729 2.37122 5.88322 2.37778 5.88931 2.38434C5.91399 2.4112 5.93851 2.43837 5.96287 2.46585C5.96583 2.46913 5.9688 2.47241 5.97161 2.47569C5.99785 2.50536 6.02409 2.53566 6.05001 2.56611C6.0561 2.5733 6.06235 2.58048 6.06844 2.58766C6.0942 2.61812 6.11981 2.64872 6.14543 2.6798C6.14949 2.6848 6.15355 2.68979 6.15761 2.69479C6.18119 2.72368 6.20446 2.75273 6.22773 2.78209C6.23225 2.78787 6.23678 2.79349 6.24131 2.79927C6.26661 2.83144 6.2916 2.86392 6.31658 2.89671C6.32205 2.9039 6.32736 2.91108 6.33282 2.91811C6.34032 2.9281 6.34782 2.93825 6.35531 2.9484C6.32189 2.94637 6.28832 2.94528 6.25459 2.94528C5.74205 2.94544 5.24435 3.19343 4.85284 3.64397ZM0.944333 15.1332C0.943553 15.1309 0.942928 15.1285 0.942147 15.1262C0.888894 14.9532 0.838452 14.7768 0.792227 14.6013C0.784731 14.5371 0.780984 14.4715 0.780984 14.4063C0.780984 13.4935 1.52355 12.7509 2.43634 12.7509C3.06241 12.7509 3.62804 13.0978 3.91242 13.6562C4.03625 13.8995 4.0856 14.1831 4.05468 14.4762C4.04 14.6165 4.03157 14.76 4.0297 14.9016C4.02938 14.9238 4.02923 14.946 4.02923 14.9685C4.02923 15.8032 4.24676 16.5931 4.64171 17.1929C5.06976 17.843 5.65553 18.2011 6.29113 18.2011C6.35219 18.2011 6.41278 18.1977 6.4729 18.1911C6.46978 18.1955 6.46681 18.1997 6.46369 18.2041C6.45214 18.2203 6.44042 18.2364 6.42887 18.2525C6.42309 18.2604 6.41715 18.2686 6.41138 18.2765C6.39576 18.2979 6.37999 18.3193 6.36421 18.3404C6.3625 18.3427 6.36078 18.3451 6.35906 18.3473C6.34172 18.3704 6.32439 18.3933 6.3069 18.4161C6.30097 18.4239 6.29503 18.4316 6.2891 18.4392C6.27723 18.4547 6.26521 18.47 6.25334 18.4853C6.24662 18.4939 6.23991 18.5025 6.23319 18.5109C6.22163 18.5256 6.20992 18.5403 6.19821 18.5548C6.19165 18.5629 6.18509 18.571 6.17869 18.5792C6.16495 18.5962 6.15105 18.6132 6.13715 18.6299C6.13293 18.6351 6.12856 18.6404 6.12434 18.6455C6.10654 18.6671 6.08858 18.6885 6.07047 18.7097C6.06469 18.7164 6.05891 18.7232 6.05329 18.7299C6.04064 18.7447 6.02783 18.7595 6.01518 18.7742C6.00816 18.7823 6.00113 18.7903 5.9941 18.7983C5.98223 18.8119 5.97036 18.8253 5.9585 18.8386C5.95147 18.8465 5.94444 18.8543 5.93741 18.8621C5.92429 18.8767 5.91118 18.8912 5.89806 18.9056C5.89244 18.9116 5.88682 18.9179 5.88119 18.9241C5.86277 18.9441 5.84418 18.9641 5.82576 18.9838C5.82076 18.9893 5.81561 18.9944 5.81045 18.9999C5.79655 19.0146 5.78265 19.0291 5.76875 19.0436C5.76157 19.0509 5.75454 19.0583 5.74736 19.0656C5.73518 19.0781 5.72284 19.0906 5.71066 19.1031C5.70332 19.1106 5.69598 19.1179 5.68849 19.1254C5.67568 19.1382 5.66272 19.151 5.64976 19.1639C5.64335 19.1703 5.6368 19.1767 5.63039 19.1829C5.61134 19.2015 5.59229 19.2199 5.57324 19.238C5.5698 19.2413 5.56621 19.2446 5.56277 19.2479C5.54684 19.263 5.53076 19.278 5.51467 19.293C5.50765 19.2994 5.50062 19.3058 5.49375 19.3124C5.48094 19.3242 5.46798 19.3359 5.45517 19.3475C5.44768 19.3542 5.44018 19.3609 5.43269 19.3676C5.41972 19.3792 5.40661 19.3908 5.39349 19.4023C5.38662 19.4084 5.37959 19.4145 5.37272 19.4206C5.35554 19.4354 5.33836 19.4503 5.32118 19.4649C5.31853 19.4673 5.31572 19.4696 5.31306 19.4718C5.29339 19.4885 5.27355 19.5049 5.25372 19.5213C5.24716 19.5268 5.2406 19.5321 5.23389 19.5374C5.22015 19.5485 5.20656 19.5596 5.19282 19.5707C5.18532 19.5766 5.17782 19.5827 5.17017 19.5886C5.1569 19.5991 5.14362 19.6095 5.13035 19.6199C5.12301 19.6255 5.11583 19.6311 5.10849 19.6367C5.09287 19.6487 5.07725 19.6605 5.06164 19.6723C5.0568 19.6759 5.05211 19.6795 5.04727 19.6831C5.02712 19.6981 5.00682 19.7129 4.98652 19.7276C4.98059 19.732 4.9745 19.7362 4.96856 19.7404C4.95388 19.7509 4.9392 19.7613 4.92452 19.7716C4.91703 19.777 4.90953 19.7821 4.90188 19.7873C4.88829 19.7966 4.87471 19.806 4.86112 19.8152C4.85362 19.8204 4.84597 19.8255 4.83848 19.8305C4.82348 19.8405 4.80849 19.8504 4.7935 19.8602C4.78757 19.8641 4.78163 19.868 4.7757 19.8719C4.75493 19.8853 4.73431 19.8985 4.71339 19.9116C4.7087 19.9145 4.70402 19.9174 4.69933 19.9203C4.68294 19.9305 4.66669 19.9405 4.6503 19.9505C4.64296 19.955 4.63546 19.9594 4.62812 19.9637C4.61407 19.972 4.60017 19.9803 4.58611 19.9886C4.5783 19.9931 4.57065 19.9976 4.56284 20.002C4.54816 20.0104 4.53348 20.0187 4.51896 20.0268C4.51225 20.0306 4.50553 20.0343 4.49897 20.0381C4.47789 20.0498 4.45665 20.0613 4.43541 20.0726C4.4351 20.0727 4.43479 20.0729 4.43463 20.073C2.93295 19.2675 1.66754 17.4807 0.944333 15.1332ZM10.3844 17.7206C9.26202 19.541 7.78985 20.5436 6.23897 20.5436C5.93882 20.5436 5.64007 20.5058 5.34523 20.4307C5.34867 20.4283 5.3521 20.4258 5.35554 20.4235C5.37444 20.4104 5.39349 20.3971 5.41223 20.3837C5.41769 20.3798 5.42332 20.3759 5.42878 20.3719C5.45299 20.3546 5.47704 20.3371 5.50109 20.3193C5.50624 20.3156 5.51139 20.3117 5.51655 20.3078C5.53544 20.2937 5.55434 20.2795 5.57324 20.2651C5.58104 20.2592 5.5887 20.2533 5.59635 20.2473C5.61337 20.2342 5.63024 20.2211 5.64726 20.2078C5.6546 20.202 5.66194 20.1963 5.66928 20.1905C5.69067 20.1735 5.71207 20.1564 5.7333 20.1391C5.73565 20.1372 5.73799 20.1354 5.74018 20.1335C5.76376 20.1143 5.78718 20.0948 5.81061 20.0749C5.81732 20.0693 5.82388 20.0637 5.8306 20.0581C5.84762 20.0435 5.86464 20.029 5.88151 20.0143C5.88916 20.0076 5.89681 20.0011 5.90446 19.9943C5.92164 19.9793 5.93866 19.9644 5.95568 19.9491C5.96193 19.9434 5.96833 19.9378 5.97458 19.9322C5.99769 19.9114 6.02065 19.8905 6.04361 19.8693C6.04657 19.8664 6.04954 19.8636 6.05266 19.8608C6.07265 19.8422 6.09249 19.8237 6.11232 19.8048C6.11935 19.798 6.12637 19.7913 6.1334 19.7846C6.14964 19.769 6.16604 19.7532 6.18228 19.7374C6.18946 19.7304 6.19649 19.7235 6.20368 19.7165C6.22226 19.6983 6.24084 19.6797 6.25943 19.6611C6.26349 19.657 6.26739 19.6531 6.27145 19.6491C6.29409 19.6263 6.31658 19.6031 6.33892 19.5799C6.34407 19.5746 6.34907 19.5693 6.35422 19.5639C6.37155 19.5458 6.38889 19.5276 6.40606 19.5091C6.41294 19.5018 6.41981 19.4945 6.42668 19.4871C6.44308 19.4696 6.45932 19.4518 6.47556 19.434C6.48165 19.4273 6.48774 19.4207 6.49383 19.414C6.51585 19.3897 6.53787 19.3653 6.55973 19.3405C6.6197 19.2725 6.67889 19.2027 6.73729 19.1318C6.74901 19.1176 6.76103 19.1036 6.77274 19.0892C6.79258 19.0648 6.8121 19.0399 6.83177 19.0152C6.84676 18.9963 6.86191 18.9777 6.8769 18.9585C6.89518 18.9352 6.91298 18.9113 6.93109 18.8878C6.94718 18.8667 6.96342 18.8459 6.97935 18.8247C6.99684 18.8012 7.01417 18.7773 7.03151 18.7538C7.04759 18.7317 7.06383 18.71 7.07992 18.6879C7.09679 18.6644 7.11334 18.6405 7.13005 18.617C7.14629 18.5938 7.16269 18.571 7.17877 18.5478C7.19486 18.5245 7.21079 18.5008 7.22672 18.4772C7.24311 18.4531 7.25967 18.4292 7.27575 18.4047C7.29137 18.3812 7.30683 18.3573 7.32229 18.3335C7.33853 18.3087 7.35493 18.2839 7.37101 18.2587C7.38616 18.2351 7.401 18.2109 7.41599 18.187C7.43223 18.1613 7.44847 18.1357 7.4644 18.1097C7.47923 18.0857 7.4936 18.0613 7.50828 18.037C7.52421 18.0106 7.54014 17.9845 7.55591 17.9578C7.57028 17.9334 7.58434 17.9087 7.59855 17.8842C7.61432 17.8571 7.63009 17.8302 7.64571 17.8029C7.65961 17.7784 7.67319 17.7535 7.68693 17.7288C7.7024 17.701 7.71817 17.6733 7.73347 17.6451C7.74706 17.6203 7.76018 17.5952 7.77361 17.5702C7.78891 17.5416 7.80421 17.5133 7.81936 17.4844C7.83248 17.4595 7.84529 17.434 7.85825 17.4089C7.87324 17.3797 7.88839 17.3506 7.90322 17.3211C7.91603 17.2956 7.92852 17.2697 7.94133 17.2441C7.95601 17.2144 7.97069 17.1849 7.98521 17.1549C7.9977 17.1289 8.01004 17.1026 8.02253 17.0764C8.03565 17.0487 8.04893 17.0213 8.06189 16.9933C8.06907 16.9803 8.0761 16.9671 8.08313 16.954C8.08906 16.943 8.09515 16.9321 8.10093 16.921C8.10952 16.9048 8.1178 16.8882 8.12607 16.8718C8.13154 16.861 8.137 16.8504 8.14231 16.8396C8.15106 16.822 8.15949 16.8039 8.16793 16.7859C8.17261 16.7761 8.17745 16.7662 8.18198 16.7562C8.19229 16.7339 8.20212 16.7114 8.21196 16.6888C8.21446 16.683 8.21712 16.6772 8.21961 16.6715C8.2318 16.6429 8.24367 16.6141 8.25538 16.5851C8.25913 16.5759 8.26256 16.5665 8.26615 16.5571C8.27396 16.5371 8.28177 16.5172 8.28927 16.497C8.29364 16.4851 8.29786 16.473 8.30223 16.4609C8.30863 16.4431 8.31503 16.4255 8.32128 16.4075C8.32581 16.3944 8.33003 16.3811 8.3344 16.368C8.33924 16.3532 8.34439 16.3385 8.34908 16.3235C9.01731 14.6293 9.37056 12.6688 9.37056 10.6528C9.37056 8.58707 9.00107 6.58612 8.30192 4.86456C8.20072 4.52427 8.06033 4.21553 7.88402 3.94599C7.86168 3.90211 7.8392 3.85854 7.81655 3.81528C7.81171 3.80591 7.80671 3.79685 7.80172 3.78748C7.78173 3.74969 7.76158 3.71205 7.74128 3.67473C7.733 3.65943 7.72457 3.64412 7.71614 3.62882C7.69865 3.59696 7.681 3.56541 7.66335 3.53387C7.65461 3.51841 7.64602 3.50295 7.63728 3.48764C7.61775 3.45344 7.59823 3.41956 7.57856 3.38582C7.572 3.37458 7.5656 3.36334 7.55888 3.35209C7.53249 3.30743 7.5061 3.26308 7.47924 3.2192C7.47424 3.21108 7.46924 3.20295 7.46424 3.19483C7.44238 3.15923 7.42036 3.12378 7.39819 3.08864C7.38944 3.0749 7.3807 3.06131 7.37211 3.04757C7.3529 3.01743 7.33353 2.9876 7.31417 2.95793C7.30527 2.94419 7.29621 2.93045 7.28731 2.91686C7.26576 2.88438 7.24421 2.85221 7.2225 2.82019C7.2161 2.81067 7.20969 2.80114 7.20313 2.79162C7.17471 2.75007 7.14613 2.709 7.1174 2.6684C7.1124 2.66137 7.10741 2.6545 7.10241 2.64747C7.07867 2.61421 7.05478 2.5811 7.03073 2.54831C7.02183 2.53613 7.01277 2.52395 7.00371 2.51177C6.98294 2.48366 6.96201 2.45586 6.94093 2.42822C6.93172 2.41604 6.92251 2.40386 6.91314 2.39183C6.88971 2.36138 6.86613 2.33124 6.84255 2.30141C6.83615 2.29345 6.8299 2.28533 6.82365 2.27736C6.79336 2.23926 6.7629 2.20178 6.73214 2.16461C6.72699 2.15836 6.72168 2.15212 6.71652 2.14587C6.69122 2.11542 6.66577 2.08528 6.64031 2.05545C6.63094 2.04452 6.62157 2.03374 6.61205 2.02281C6.58987 1.9972 6.56754 1.97175 6.54521 1.9466C6.53553 1.93567 6.52585 1.9249 6.51616 1.91396C6.49118 1.88617 6.46619 1.85868 6.44089 1.83151C6.43449 1.82448 6.42793 1.81745 6.42153 1.81043C6.38951 1.77623 6.3575 1.74234 6.32517 1.70892C6.31939 1.70298 6.31346 1.69705 6.30768 1.69112C6.28145 1.6641 6.25505 1.63755 6.22851 1.61116C6.21851 1.60117 6.20836 1.59133 6.19837 1.58149C6.17525 1.55884 6.15198 1.53636 6.12872 1.51402C6.11841 1.50419 6.1081 1.49435 6.09779 1.48451C6.07187 1.45999 6.04579 1.43579 6.01956 1.41189C6.01253 1.40549 6.0055 1.39893 5.99847 1.39253C5.96521 1.36239 5.93164 1.33256 5.89806 1.3032C5.89119 1.29727 5.88432 1.29149 5.87745 1.28555C5.85074 1.26244 5.82404 1.2398 5.79702 1.21731C5.78609 1.2081 5.775 1.19904 5.76391 1.18998C5.74033 1.17062 5.7166 1.15125 5.69286 1.13236C5.68161 1.1233 5.67037 1.1144 5.65897 1.10534C5.63258 1.08457 5.60603 1.06396 5.57948 1.04365C5.57152 1.03756 5.56355 1.03132 5.55559 1.02523C5.52123 0.999303 5.48656 0.973848 5.45189 0.948706C5.44362 0.942771 5.43534 0.936993 5.42706 0.931059C5.40708 0.916848 5.38709 0.902481 5.36694 0.888426C5.65507 0.816902 5.94663 0.780828 6.23959 0.780828C7.79047 0.780828 9.26265 1.78341 10.385 3.60383C11.5436 5.48313 12.1817 7.9899 12.1817 10.6622C12.1811 13.3345 11.543 15.8413 10.3844 17.7206Z" fill="white"/>
</svg>
