<svg width="11" height="9" viewBox="0 0 11 9" fill="none" xmlns="http://www.w3.org/2000/svg">
<path opacity="0.39" d="M9.89992 4.1L5.80992 0.660002C5.60992 0.490002 5.31993 0.449996 5.07993 0.559996C4.83993 0.669996 4.68993 0.909991 4.68993 1.17999V2.45H1.09993C0.71993 2.45 0.419922 2.76 0.419922 3.13V6.1C0.419922 6.48 0.72993 6.78 1.09993 6.78H4.68993V8.05C4.68993 8.31 4.83993 8.56 5.07993 8.67C5.16993 8.71 5.26992 8.72999 5.36992 8.72999C5.52992 8.72999 5.67992 8.68001 5.80992 8.57001L9.89992 5.13C10.0499 5 10.1399 4.81 10.1399 4.61C10.1399 4.42 10.0499 4.23 9.89992 4.1Z" fill="white"/>
</svg>
