<svg width="11" height="9" viewBox="0 0 11 9" fill="none" xmlns="http://www.w3.org/2000/svg">
<path opacity="0.39" d="M9.69039 2.45H6.10039V1.17999C6.10039 0.919991 5.95039 0.669996 5.71039 0.559996C5.47039 0.449996 5.19039 0.490002 4.98039 0.660002L0.890388 4.1C0.740388 4.23 0.650391 4.41999 0.650391 4.61999C0.650391 4.81999 0.740388 5.01 0.890388 5.14L4.98039 8.58C5.11039 8.69 5.26039 8.74 5.42039 8.74C5.52039 8.74 5.62039 8.71999 5.71039 8.67999C5.95039 8.56999 6.10039 8.33 6.10039 8.06V6.78999H9.69039C10.0704 6.78999 10.3704 6.48 10.3704 6.11V3.14C10.3704 2.76 10.0704 2.45 9.69039 2.45Z" fill="white"/>
</svg>
