<svg width="8" height="14" viewBox="0 0 8 14" fill="none" xmlns="http://www.w3.org/2000/svg">
<path opacity="0.5" d="M7.99259 7.84857V5.49362V4.19482V2.35367C7.99259 1.15478 6.9935 0.169983 5.79462 0.169983H2.19797C0.999084 0.169983 0 1.15478 0 2.35367V4.19482V5.49362V7.84857V9.13309V11.8163C0 13.0152 0.999084 14 2.19797 14H5.79462C6.9935 14 7.99259 13.0152 7.99259 11.8163V9.13309V7.84857ZM2.19797 1.06915H5.79462C6.49397 1.06915 7.06486 1.64005 7.06486 2.3394V3.35275C6.82223 3.22429 6.56534 3.15293 6.2799 3.15293H1.71269C1.42724 3.15293 1.15608 3.22429 0.927723 3.35275V2.3394C0.91345 1.64005 1.48435 1.06915 2.19797 1.06915ZM5.79462 13.0866H2.19797C1.49862 13.0866 0.927723 12.5157 0.927723 11.8163V11.7164C1.17035 11.8449 1.42724 11.9162 1.71269 11.9162H6.2799C6.56534 11.9162 6.8365 11.8449 7.06486 11.7164V11.8163C7.06486 12.5157 6.49397 13.0866 5.79462 13.0866Z" fill="white"/>
<path d="M3.99771 7.60593C3.94062 7.60593 3.8978 7.62021 3.85498 7.66302C3.81216 7.70584 3.7979 7.74866 3.7979 7.80575V8.39092C3.7979 8.44801 3.81216 8.49083 3.85498 8.53364C3.8978 8.57646 3.94062 8.59074 3.99771 8.59074C4.0548 8.59074 4.09763 8.57646 4.14045 8.53364C4.18326 8.49083 4.19753 8.44801 4.19753 8.39092V7.80575C4.19753 7.74866 4.18326 7.70584 4.14045 7.66302C4.09763 7.62021 4.0548 7.60593 3.99771 7.60593ZM4.98252 6.82095V6.42133C4.98252 6.16442 4.88261 5.90751 4.69707 5.72197C4.51153 5.53643 4.26889 5.43652 3.99771 5.43652C3.72654 5.43652 3.4839 5.53643 3.29836 5.72197C3.11281 5.90751 3.01291 6.15015 3.01291 6.42133V6.82095C2.85591 6.82095 2.7132 6.87804 2.59902 6.99222C2.48484 7.1064 2.42773 7.24912 2.42773 7.40612V8.77627C2.42773 8.93327 2.48484 9.076 2.59902 9.19018C2.7132 9.30436 2.85591 9.36145 3.01291 9.36145H4.98252C5.13951 9.36145 5.28223 9.30436 5.39641 9.19018C5.51059 9.076 5.56769 8.93327 5.56769 8.77627V7.40612C5.56769 7.24912 5.51059 7.1064 5.39641 6.99222C5.28223 6.89231 5.13951 6.82095 4.98252 6.82095ZM3.41254 6.43559C3.41254 6.27859 3.46964 6.13587 3.58382 6.02169C3.698 5.90751 3.84072 5.85043 3.99771 5.85043C4.15471 5.85043 4.29745 5.90751 4.41163 6.02169C4.52581 6.13587 4.58289 6.27859 4.58289 6.43559V6.83523H3.39827V6.43559H3.41254ZM5.18233 8.79055C5.18233 8.84764 5.16807 8.89045 5.12525 8.93327C5.08243 8.97609 5.03961 8.99036 4.98252 8.99036H3.01291C2.95582 8.99036 2.91302 8.97609 2.8702 8.93327C2.82738 8.89045 2.8131 8.84764 2.8131 8.79055V7.42039C2.8131 7.3633 2.82738 7.32049 2.8702 7.27767C2.91302 7.23485 2.95582 7.22058 3.01291 7.22058H4.98252C5.03961 7.22058 5.08243 7.23485 5.12525 7.27767C5.16807 7.32049 5.18233 7.3633 5.18233 7.42039V8.79055Z" fill="white"/>
</svg>
