<svg width="8" height="14" viewBox="0 0 8 14" fill="none" xmlns="http://www.w3.org/2000/svg">
<path d="M7.99259 7.84857V5.49362V4.19482V2.35367C7.99259 1.15478 6.9935 0.169983 5.79462 0.169983H2.19797C0.999084 0.169983 0 1.15478 0 2.35367V4.19482V5.49362V7.84857V9.13309V11.8163C0 13.0152 0.999084 14 2.19797 14H5.79462C6.9935 14 7.99259 13.0152 7.99259 11.8163V9.13309V7.84857ZM2.19797 1.06915H5.79462C6.49397 1.06915 7.06486 1.64005 7.06486 2.3394V3.35275C6.82223 3.22429 6.56534 3.15293 6.2799 3.15293H1.71269C1.42724 3.15293 1.15608 3.22429 0.927723 3.35275V2.3394C0.91345 1.64005 1.48435 1.06915 2.19797 1.06915ZM5.79462 13.0866H2.19797C1.49862 13.0866 0.927723 12.5157 0.927723 11.8163V11.7164C1.17035 11.8449 1.42724 11.9162 1.71269 11.9162H6.2799C6.56534 11.9162 6.8365 11.8449 7.06486 11.7164V11.8163C7.06486 12.5157 6.49397 13.0866 5.79462 13.0866Z" fill="#FF4F4F"/>
</svg>
