<svg width="14" height="14" viewBox="0 0 14 14" fill="none" xmlns="http://www.w3.org/2000/svg">
<path d="M10.8328 7.84857V5.49362L12.9166 7.57739C13.0022 7.66303 13.1164 7.70584 13.2448 7.70584C13.359 7.70584 13.4732 7.66303 13.5731 7.57739C13.7444 7.40612 13.7444 7.10641 13.5731 6.93514L10.8471 4.19482V2.35367C10.8471 1.15478 9.848 0.169983 8.64911 0.169983H5.05245C3.85357 0.169983 2.85449 1.15478 2.85449 2.35367V4.19482L0.128452 6.93514C-0.0428174 7.10641 -0.0428174 7.40612 0.128452 7.57739C0.214087 7.66303 0.328266 7.70584 0.456718 7.70584C0.570898 7.70584 0.685077 7.66303 0.784984 7.57739L2.86877 5.49362V7.84857L0.142728 10.5746C-0.0285419 10.7459 -0.0285419 11.0456 0.142728 11.2169C0.228362 11.3025 0.342541 11.3453 0.470994 11.3453C0.585173 11.3453 0.699352 11.3025 0.799259 11.2169L2.88304 9.13309V11.8163C2.88304 13.0152 3.88211 14 5.081 14H8.67766C9.87654 14 10.8756 13.0152 10.8756 11.8163V9.13309L12.9594 11.2169C13.045 11.3025 13.1592 11.3453 13.2877 11.3453C13.4018 11.3453 13.516 11.3025 13.6159 11.2169C13.7872 11.0456 13.7872 10.7459 13.6159 10.5746L10.8328 7.84857ZM5.02391 1.06915H8.62057C9.31992 1.06915 9.89082 1.64005 9.89082 2.3394V3.35275C9.64819 3.22429 9.39128 3.15293 9.10583 3.15293H4.53864C4.25319 3.15293 3.98202 3.22429 3.75366 3.35275V2.3394C3.75366 1.64005 4.32456 1.06915 5.02391 1.06915ZM8.63484 13.0866H5.03818C4.33883 13.0866 3.76793 12.5157 3.76793 11.8163V11.7164C4.01056 11.8449 4.26746 11.9162 4.55291 11.9162H9.12011C9.40556 11.9162 9.67673 11.8449 9.90509 11.7164V11.8163C9.90509 12.5157 9.33419 13.0866 8.63484 13.0866Z" fill="#4FE16F"/>
<path d="M6.82192 7.27763C6.76483 7.27763 6.70774 7.29191 6.65065 7.33472C6.60784 7.36327 6.56502 7.42036 6.53648 7.47745C6.50793 7.53454 6.50793 7.59163 6.5222 7.64872C6.53647 7.70581 6.56502 7.76289 6.60784 7.80571V8.07689C6.60784 8.13398 6.62211 8.17679 6.66493 8.21961C6.70775 8.26243 6.75056 8.2767 6.80765 8.2767C6.86474 8.2767 6.90756 8.26243 6.95037 8.21961C6.99319 8.17679 7.00747 8.13398 7.00747 8.07689V7.80571C7.05028 7.76289 7.07883 7.72008 7.0931 7.64872C7.10737 7.59163 7.10737 7.53454 7.07883 7.47745C7.05028 7.42036 7.02174 7.37754 6.96465 7.33472C6.95038 7.29191 6.89328 7.27763 6.82192 7.27763ZM7.82099 6.49264H6.23675V6.09302C6.23675 5.97884 6.2653 5.86466 6.33666 5.76476C6.40802 5.66485 6.49366 5.59348 6.60784 5.55067C6.72202 5.50785 6.83619 5.49357 6.95037 5.52212C7.06455 5.55066 7.17874 5.60775 7.2501 5.67911C7.32146 5.75048 7.37855 5.85039 7.40709 5.95029C7.40709 5.97884 7.42137 5.99311 7.43564 6.02165C7.44991 6.03592 7.46418 6.06447 7.49273 6.07874C7.52127 6.09301 7.53555 6.10729 7.56409 6.10729C7.59263 6.10729 7.62118 6.10729 7.63546 6.10729C7.664 6.10729 7.67827 6.09301 7.70682 6.07874C7.73536 6.06447 7.74963 6.0502 7.7639 6.02165C7.77818 5.99311 7.79245 5.97884 7.79245 5.95029C7.79245 5.92175 7.79245 5.8932 7.79245 5.87893C7.74963 5.70766 7.664 5.55066 7.53554 5.42221C7.39282 5.27949 7.22155 5.19386 7.02174 5.15104C6.8362 5.10822 6.63638 5.13676 6.45084 5.20812C6.2653 5.27948 6.1083 5.40794 6.00839 5.57921C5.89421 5.7362 5.83712 5.93602 5.83712 6.13583V6.53546C5.68013 6.53546 5.52313 6.59255 5.42322 6.70673C5.30904 6.82091 5.25195 6.96364 5.25195 7.12064V8.50507C5.25195 8.66206 5.30904 8.81906 5.42322 8.91897C5.5374 9.03315 5.68013 9.09023 5.83712 9.09023H7.82099C7.97799 9.09023 8.13499 9.03315 8.2349 8.91897C8.34908 8.80479 8.40617 8.66206 8.40617 8.50507V7.12064C8.40617 6.96364 8.34908 6.80664 8.2349 6.70673C8.13499 6.54974 7.97799 6.49264 7.82099 6.49264ZM8.02081 8.46225C8.02081 8.51934 8.00654 8.56216 7.96372 8.60497C7.92091 8.64779 7.87808 8.66206 7.82099 8.66206H5.83712C5.78003 8.66206 5.73722 8.64779 5.6944 8.60497C5.65158 8.56216 5.63731 8.51934 5.63731 8.46225V7.07782C5.63731 7.02073 5.65158 6.97792 5.6944 6.9351C5.73722 6.89228 5.78003 6.87801 5.83712 6.87801H7.82099C7.87808 6.87801 7.92091 6.89228 7.96372 6.9351C8.00654 6.97792 8.02081 7.02073 8.02081 7.07782V8.46225Z" fill="black"/>
</svg>
