<svg width="12" height="9" viewBox="0 0 12 9" fill="none" xmlns="http://www.w3.org/2000/svg">
<path d="M3.25 5.83333L4.9 5.83333C5.04587 5.83333 5.18576 5.77714 5.28891 5.67712C5.39205 5.5771 5.45 5.44145 5.45 5.3C5.45 5.15855 5.39205 5.0229 5.28891 4.92288C5.18576 4.82286 5.04587 4.76667 4.9 4.76667L3.25 4.76667C3.10413 4.76667 2.96424 4.82286 2.86109 4.92288C2.75795 5.0229 2.7 5.15855 2.7 5.3C2.7 5.44145 2.75795 5.5771 2.86109 5.67712C2.96424 5.77714 3.10413 5.83333 3.25 5.83333ZM9.85 0.500002L2.15 0.5C1.71239 0.5 1.29271 0.668571 0.983274 0.968629C0.673839 1.26869 0.5 1.67565 0.5 2.1L0.499999 6.9C0.499999 7.32435 0.673838 7.73131 0.983273 8.03137C1.29271 8.33143 1.71239 8.5 2.15 8.5L9.85 8.5C10.2876 8.5 10.7073 8.33143 11.0167 8.03137C11.3262 7.73131 11.5 7.32435 11.5 6.9L11.5 2.1C11.5 1.67566 11.3262 1.26869 11.0167 0.968631C10.7073 0.668573 10.2876 0.500002 9.85 0.500002ZM10.4 6.9C10.4 7.04145 10.3421 7.17711 10.2389 7.27713C10.1358 7.37714 9.99587 7.43333 9.85 7.43333L2.15 7.43333C2.00413 7.43333 1.86424 7.37714 1.76109 7.27712C1.65795 7.1771 1.6 7.04145 1.6 6.9L1.6 3.7L10.4 3.7L10.4 6.9ZM10.4 2.63333L1.6 2.63333L1.6 2.1C1.6 1.95855 1.65795 1.8229 1.76109 1.72288C1.86424 1.62286 2.00413 1.56667 2.15 1.56667L9.85 1.56667C9.99587 1.56667 10.1358 1.62286 10.2389 1.72288C10.3421 1.8229 10.4 1.95855 10.4 2.1L10.4 2.63333Z" fill="white"/>
</svg>
