<svg width="10" height="12" viewBox="0 0 10 12" fill="none" xmlns="http://www.w3.org/2000/svg">
<path d="M9.49554 0.60003C9.31529 0.411723 9.09464 0.26098 8.84794 0.157607C8.60124 0.0542331 8.33402 0.000544636 8.06365 3.31692e-05H1.938C1.66617 -0.00150877 1.39707 0.0507258 1.14839 0.153303C0.899713 0.25588 0.677082 0.406477 0.495135 0.595195C0.313189 0.783912 0.176047 1.00648 0.0927247 1.24826C0.00940254 1.49004 -0.0182128 1.74556 0.0116937 1.99802L1.01337 10.398C1.06575 10.8403 1.2916 11.2488 1.64733 11.5446C2.00307 11.8404 2.46347 12.0027 2.93968 12H7.06197C7.53818 12.0027 7.99858 11.8404 8.35432 11.5446C8.71005 11.2488 8.9359 10.8403 8.98828 10.398L9.98995 1.99802C10.0177 1.7456 9.98792 1.49056 9.90271 1.24963C9.8175 1.0087 9.67874 0.787324 9.49554 0.60003ZM7.69765 10.266C7.68019 10.4134 7.60491 10.5496 7.48633 10.6482C7.36775 10.7468 7.21429 10.8009 7.05555 10.8H2.93968C2.78094 10.8009 2.62747 10.7468 2.5089 10.6482C2.39032 10.5496 2.31503 10.4134 2.29758 10.266L1.64905 4.80001H8.35259L7.69765 10.266ZM8.49386 3.60001H1.50779L1.30232 1.86602C1.29221 1.78185 1.30128 1.69662 1.32895 1.61596C1.35662 1.5353 1.40225 1.46103 1.46284 1.39803C1.52288 1.33587 1.59617 1.28614 1.678 1.25204C1.75983 1.21794 1.8484 1.20022 1.938 1.20003H8.06365C8.15325 1.20022 8.24182 1.21794 8.32365 1.25204C8.40548 1.28614 8.47877 1.33587 8.53881 1.39803C8.5994 1.46103 8.64503 1.5353 8.6727 1.61596C8.70037 1.69662 8.70944 1.78185 8.69933 1.86602L8.49386 3.60001ZM6.28503 9.59998C6.45532 9.59998 6.61864 9.53677 6.73906 9.42425C6.85948 9.31172 6.92713 9.15911 6.92713 8.99998V6.6C6.92713 6.44087 6.85948 6.28826 6.73906 6.17573C6.61864 6.06321 6.45532 6 6.28503 6C6.11473 6 5.95141 6.06321 5.83099 6.17573C5.71058 6.28826 5.64293 6.44087 5.64293 6.6V8.99998C5.64293 9.15911 5.71058 9.31172 5.83099 9.42425C5.95141 9.53677 6.11473 9.59998 6.28503 9.59998ZM3.71662 9.59998C3.88692 9.59998 4.05024 9.53677 4.17066 9.42425C4.29107 9.31172 4.35872 9.15911 4.35872 8.99998V6.6C4.35872 6.44087 4.29107 6.28826 4.17066 6.17573C4.05024 6.06321 3.88692 6 3.71662 6C3.54632 6 3.383 6.06321 3.26259 6.17573C3.14217 6.28826 3.07452 6.44087 3.07452 6.6V8.99998C3.07452 9.15911 3.14217 9.31172 3.26259 9.42425C3.383 9.53677 3.54632 9.59998 3.71662 9.59998Z" fill="white"/>
</svg>
