<svg width="12" height="12" viewBox="0 0 12 12" fill="none" xmlns="http://www.w3.org/2000/svg">
<path d="M3.91035 6.28913C3.79156 6.28913 3.67543 6.32432 3.57666 6.39023C3.47788 6.45615 3.4009 6.54984 3.35544 6.65945C3.30997 6.76906 3.29808 6.88968 3.32126 7.00605C3.34443 7.12241 3.40164 7.2293 3.48564 7.3132C3.56964 7.39709 3.67666 7.45422 3.79317 7.47737C3.90969 7.50052 4.03045 7.48864 4.14021 7.44323C4.24996 7.39783 4.34377 7.32094 4.40976 7.22229C4.47576 7.12364 4.51099 7.00766 4.51099 6.88902C4.51099 6.72992 4.44771 6.57733 4.33507 6.46484C4.22243 6.35234 4.06965 6.28913 3.91035 6.28913ZM3.91035 3.60167C3.79156 3.60167 3.67543 3.63685 3.57666 3.70277C3.47788 3.76868 3.4009 3.86237 3.35544 3.97198C3.30997 4.0816 3.29808 4.20221 3.32126 4.31858C3.34443 4.43495 3.40164 4.54183 3.48564 4.62573C3.56964 4.70962 3.67666 4.76676 3.79317 4.7899C3.90969 4.81305 4.03045 4.80117 4.14021 4.75577C4.24996 4.71036 4.34377 4.63348 4.40976 4.53483C4.47576 4.43618 4.51099 4.32019 4.51099 4.20155C4.51099 4.04245 4.44771 3.88987 4.33507 3.77737C4.22243 3.66487 4.06965 3.60167 3.91035 3.60167ZM6.00658 4.80143C5.84728 4.80143 5.69451 4.86463 5.58186 4.97713C5.46922 5.08963 5.40594 5.24221 5.40594 5.40131V6.00119C5.40594 6.16029 5.46922 6.31287 5.58186 6.42537C5.69451 6.53787 5.84728 6.60107 6.00658 6.60107C6.16588 6.60107 6.31865 6.53787 6.43129 6.42537C6.54394 6.31287 6.60722 6.16029 6.60722 6.00119V5.40131C6.60722 5.24221 6.54394 5.08963 6.43129 4.97713C6.31865 4.86463 6.16588 4.80143 6.00658 4.80143ZM11.112 3.9436C10.9048 3.82453 10.6759 3.74783 10.4388 3.71796C10.2016 3.6881 9.96084 3.70566 9.73053 3.76964C9.49083 3.83376 9.26762 3.94829 9.07584 4.10557L2.10844 0.0803688C2.01713 0.0277183 1.91355 0 1.80812 0C1.70269 0 1.59911 0.0277183 1.5078 0.0803688C1.41502 0.132454 1.33777 0.208225 1.28394 0.299927C1.23012 0.391629 1.20166 0.495968 1.20148 0.602265V8.5027C0.847012 8.62211 0.539675 8.85086 0.323777 9.15597C0.107879 9.46108 -0.00542553 9.82679 0.000199771 10.2004C3.27423e-05 10.6695 0.183267 11.1201 0.510868 11.4562C0.838469 11.7924 1.28454 11.9875 1.75406 12H2.10243C4.07056 11.9954 6.00243 11.4707 7.70189 10.4793C9.40135 9.48789 10.8079 8.065 11.7787 6.35512C12.0029 5.946 12.0594 5.46593 11.9361 5.01607C11.8129 4.56621 11.5195 4.18171 11.118 3.9436H11.112ZM2.40275 1.64006L8.34306 5.06538C7.68404 6.04751 6.80301 6.86111 5.77112 7.44049C4.73923 8.01987 3.58539 8.3488 2.40275 8.40071V1.64006ZM10.7336 5.76724C9.84193 7.33633 8.5397 8.63363 6.96638 9.52021C5.39307 10.4068 3.60792 10.8493 1.80211 10.8002C1.64281 10.8002 1.49004 10.737 1.3774 10.6245C1.26476 10.512 1.20148 10.3595 1.20148 10.2004C1.20101 10.12 1.21671 10.0403 1.24767 9.96613C1.27862 9.89193 1.32419 9.82471 1.38167 9.76844C1.49451 9.65981 1.64539 9.59954 1.80211 9.60048H2.10844C3.65071 9.59985 5.16515 9.19021 6.49694 8.41343C7.82874 7.63665 8.93012 6.52059 9.68849 5.17936C9.72495 5.11355 9.77477 5.05608 9.83476 5.01063C9.89475 4.96518 9.96359 4.93274 10.0369 4.91541C10.1883 4.87389 10.35 4.89327 10.4873 4.9694C10.6251 5.04338 10.7286 5.16814 10.7757 5.31714C10.8228 5.46615 10.8099 5.62763 10.7396 5.76724H10.7336Z" fill="white"/>
</svg>
