<svg width="12" height="13" viewBox="0 0 12 13" fill="none" xmlns="http://www.w3.org/2000/svg">
<path d="M11.5867 0.92187C11.3571 0.92187 11.1582 1.10937 11.1582 1.35937V1.84374C11.0969 1.82812 11.051 1.81251 10.9745 1.81251C10.6225 1.81251 10.3469 2.10936 10.3469 2.45311V4.03126C10.3469 4.21876 10.4235 4.39063 10.5612 4.51563V8.64063C10.5612 8.87501 10.3776 9.07813 10.1327 9.07813C9.88776 9.07813 9.70408 8.89063 9.70408 8.64063V7.01562C9.70408 6.34374 9.18368 5.78125 8.54082 5.73438V1.29688C8.54082 0.578128 7.97449 0 7.27041 0H1.27041C0.56633 0 0 0.578128 0 1.29688V11.7031C0 12.4219 0.56633 13 1.27041 13H7.27041C7.97449 13 8.54082 12.4219 8.54082 11.7031V6.60938C8.7245 6.65625 8.86225 6.81249 8.86225 7.01562V8.64063C8.86225 9.35938 9.42858 9.93751 10.1327 9.93751C10.8367 9.93751 11.4031 9.35938 11.4031 8.64063V4.51563C11.5255 4.39063 11.6173 4.23438 11.6173 4.03126V3.34375C11.8316 3.32813 12 3.14062 12 2.92187V1.34375C12 1.10938 11.8163 0.92187 11.5867 0.92187ZM7.22449 5.06249H1.33164V1.40624H7.22449V5.06249Z" fill="white"/>
</svg>
