<svg width="19" height="13" viewBox="0 0 19 13" fill="none" xmlns="http://www.w3.org/2000/svg">
<path d="M13.044 0.33197H9.99556C8.22691 0.33197 7.30664 3.32286 7.30664 6.285C7.30664 9.24714 8.22691 12.238 9.99556 12.238H13.044C16.3225 12.238 18.997 9.56348 18.997 6.285C19.0114 2.99214 16.3368 0.33197 13.044 0.33197Z" fill="#4FE16F"/>
<path d="M2.24578 5.65234H1.29676C0.951652 5.65234 0.664062 5.93993 0.664062 6.28504C0.664062 6.63014 0.951652 6.91772 1.29676 6.91772H2.24578C2.59089 6.91772 2.87848 6.63014 2.87848 6.28504C2.87848 5.93993 2.59089 5.65234 2.24578 5.65234Z" fill="#4FE16F"/>
<path d="M5.59539 5.65234H4.64636C4.30126 5.65234 4.01367 5.93993 4.01367 6.28504C4.01367 6.63014 4.30126 6.91772 4.64636 6.91772H5.59539C5.9405 6.91772 6.22809 6.63014 6.22809 6.28504C6.22809 5.93993 5.9405 5.65234 5.59539 5.65234Z" fill="#4FE16F"/>
<path d="M2.14375 9.92297L1.2091 10.0668C0.863999 10.1099 0.633926 10.4406 0.677064 10.7857C0.720202 11.1021 0.993409 11.3178 1.29537 11.3178C1.32413 11.3178 1.35289 11.3178 1.38165 11.3178L2.3163 11.174C2.66141 11.1308 2.89148 10.8001 2.84834 10.455C2.8052 10.1099 2.48885 9.87984 2.14375 9.92297Z" fill="#4FE16F"/>
<path d="M5.50899 9.43408L4.57434 9.57788C4.22923 9.62102 3.99916 9.95175 4.0423 10.2968C4.08544 10.6132 4.35864 10.8289 4.66061 10.8289C4.68937 10.8289 4.71813 10.8289 4.74689 10.8289L5.68154 10.6851C6.02664 10.6419 6.25671 10.3112 6.21358 9.96612C6.17044 9.62102 5.8541 9.39095 5.50899 9.43408Z" fill="#4FE16F"/>
<path d="M1.20956 2.50325L2.1442 2.64705C2.17296 2.64705 2.20173 2.64705 2.23049 2.64705C2.53245 2.64705 2.80566 2.41698 2.8488 2.11502C2.90632 1.76991 2.66186 1.45357 2.31676 1.39605L1.3821 1.25226C1.037 1.20912 0.720655 1.43918 0.663138 1.78429C0.62 2.12939 0.864455 2.44573 1.20956 2.50325Z" fill="#4FE16F"/>
<path d="M4.57422 2.99207L5.50888 3.13586C5.53764 3.13586 5.56639 3.13586 5.59515 3.13586C5.89712 3.13586 6.17032 2.90579 6.21346 2.60382C6.27098 2.25872 6.02653 1.94237 5.68142 1.88486L4.74678 1.74107C4.40167 1.68355 4.08533 1.928 4.02781 2.2731C3.99905 2.61821 4.22912 2.94893 4.57422 2.99207Z" fill="#4FE16F"/>
</svg>
