<svg width="18" height="16" viewBox="0 0 18 16" fill="none" xmlns="http://www.w3.org/2000/svg">
<path d="M12.1803 1.51892H10.5267C8.88744 1.51892 8.03906 4.29413 8.03906 7.0262C8.03906 9.77264 8.90181 12.5335 10.5267 12.5335H12.1803C15.2143 12.5335 17.6876 10.0602 17.6876 7.0262C17.702 3.99216 15.2287 1.51892 12.1803 1.51892Z" fill="white" fill-opacity="0.5"/>
<path d="M6.61722 4.1072C6.91919 4.00654 7.09174 3.6902 7.00546 3.37385C6.90481 3.07189 6.58846 2.89934 6.27211 2.98561L5.04987 3.37385C5.02112 2.28102 4.74791 1.21696 4.04333 0.239163C3.8564 -0.0196645 3.49692 -0.0771764 3.22371 0.109754C2.96488 0.296685 2.90736 0.656167 3.09429 0.929374C3.7126 1.77775 3.91391 2.74116 3.88515 3.74772L0.707331 4.73988C0.405365 4.84054 0.232808 5.15688 0.319084 5.47323C0.39098 5.71768 0.621048 5.87585 0.879875 5.87585C0.937393 5.87585 0.994914 5.86147 1.05243 5.84709L3.77012 4.99871C3.6407 5.78957 3.42501 6.60919 3.19494 7.45757L0.707331 8.23405C0.405365 8.33471 0.232808 8.65105 0.319084 8.9674C0.39098 9.21185 0.621048 9.37002 0.879875 9.37002C0.937393 9.37002 0.994914 9.35564 1.05243 9.34126L2.82109 8.78047C2.6054 9.58571 2.41846 10.4053 2.33219 11.2106L0.707331 11.7282C0.405365 11.8289 0.232808 12.1452 0.319084 12.4616C0.39098 12.706 0.621048 12.8642 0.879875 12.8642C0.937393 12.8642 0.994914 12.8498 1.05243 12.8354L2.27467 12.4472C2.30343 13.54 2.57664 14.6041 3.28123 15.5819C3.39626 15.74 3.5688 15.8263 3.75574 15.8263C3.87077 15.8263 3.98581 15.7976 4.10085 15.7113C4.35967 15.5244 4.41719 15.1649 4.23026 14.8917C3.61195 14.0433 3.41064 13.0799 3.4394 12.0733L6.61722 11.0812C6.91919 10.9805 7.09174 10.6642 7.00546 10.3478C6.90481 10.0458 6.58846 9.8733 6.27211 9.95957L3.55443 10.8079C3.68384 10.0171 3.89953 9.19747 4.1296 8.34909L6.61722 7.5726C6.91919 7.47195 7.09174 7.1556 7.00546 6.83926C6.90481 6.53729 6.58846 6.36475 6.27211 6.45102L4.50347 7.01181C4.71915 6.20657 4.90608 5.38695 4.99236 4.58171L6.61722 4.1072Z" fill="white" fill-opacity="0.5"/>
</svg>
