<svg width="24" height="24" viewBox="0 0 24 24" fill="none" xmlns="http://www.w3.org/2000/svg">
<path d="M8 23H16" stroke="white" stroke-linecap="round" stroke-linejoin="round"/>
<path d="M1 1L23 23" stroke="white" stroke-linecap="round" stroke-linejoin="round"/>
<path d="M15 9.33997V3.99997C15.0007 3.256 14.725 2.53829 14.2264 1.98617C13.7277 1.43405 13.0417 1.08691 12.3015 1.01214C11.5613 0.937375 10.8197 1.14031 10.2207 1.58156C9.62172 2.0228 9.20805 2.67088 9.06 3.39997M9 8.99997V12C9.00052 12.5929 9.17675 13.1724 9.50643 13.6653C9.83611 14.1582 10.3045 14.5423 10.8523 14.7691C11.4002 14.996 12.0029 15.0554 12.5845 14.9398C13.1661 14.8243 13.7005 14.539 14.12 14.12L9 8.99997Z" stroke="white" stroke-linecap="round" stroke-linejoin="round"/>
<path d="M17.0002 16.95C16.024 17.9464 14.7723 18.6285 13.4058 18.9086C12.0393 19.1887 10.6202 19.0542 9.33068 18.5223C8.04115 17.9903 6.93995 17.0853 6.16836 15.9232C5.39677 14.761 4.98998 13.3949 5.00019 12V10M19.0002 10V12C18.9998 12.4124 18.963 12.824 18.8902 13.23" stroke="white" stroke-linecap="round" stroke-linejoin="round"/>
<path d="M12 19V23" stroke="white" stroke-linecap="round" stroke-linejoin="round"/>
</svg>
