<svg width="14" height="10" viewBox="0 0 14 10" fill="none" xmlns="http://www.w3.org/2000/svg">
<path d="M3.18182 4.35714C3.05596 4.35714 2.93292 4.39485 2.82827 4.46548C2.72362 4.53612 2.64206 4.63652 2.59389 4.75399C2.54573 4.87146 2.53313 5.00071 2.55768 5.12542C2.58224 5.25012 2.64284 5.36466 2.73184 5.45457C2.82084 5.54447 2.93423 5.6057 3.05767 5.63051C3.18111 5.65531 3.30906 5.64258 3.42534 5.59392C3.54162 5.54527 3.64101 5.46287 3.71093 5.35715C3.78086 5.25144 3.81818 5.12715 3.81818 5C3.81818 4.8295 3.75114 4.66599 3.63179 4.54543C3.51245 4.42487 3.35059 4.35714 3.18182 4.35714ZM10.8182 4.35714C10.6923 4.35714 10.5693 4.39485 10.4646 4.46549C10.36 4.53612 10.2784 4.63652 10.2303 4.75399C10.1821 4.87146 10.1695 5.00071 10.194 5.12542C10.2186 5.25012 10.2792 5.36466 10.3682 5.45457C10.4572 5.54448 10.5706 5.6057 10.694 5.63051C10.8175 5.65531 10.9454 5.64258 11.0617 5.59392C11.178 5.54527 11.2774 5.46287 11.3473 5.35715C11.4172 5.25144 11.4545 5.12715 11.4545 5C11.4545 4.82951 11.3875 4.66599 11.2682 4.54543C11.1488 4.42487 10.987 4.35714 10.8182 4.35714ZM12.0909 0.500002L1.90909 0.5C1.40277 0.5 0.917184 0.703188 0.55916 1.06487C0.201136 1.42654 -2.47771e-07 1.91708 -3.37202e-07 2.42857L-1.23641e-06 7.57143C-1.32584e-06 8.08292 0.201134 8.57346 0.559158 8.93513C0.917182 9.29681 1.40277 9.5 1.90909 9.5L12.0909 9.5C12.5972 9.5 13.0828 9.29681 13.4408 8.93514C13.7989 8.57346 14 8.08292 14 7.57143L14 2.42857C14 1.91708 13.7989 1.42655 13.4408 1.06487C13.0828 0.703191 12.5972 0.500002 12.0909 0.500002ZM12.7273 7.57143C12.7273 7.74193 12.6602 7.90544 12.5409 8.026C12.4215 8.14656 12.2597 8.21429 12.0909 8.21429L1.90909 8.21429C1.74032 8.21429 1.57845 8.14656 1.45911 8.026C1.33977 7.90544 1.27273 7.74192 1.27273 7.57143L1.27273 2.42857C1.27273 2.25808 1.33977 2.09456 1.45911 1.974C1.57845 1.85344 1.74032 1.78571 1.90909 1.78571L12.0909 1.78572C12.2597 1.78572 12.4215 1.85345 12.5409 1.97401C12.6602 2.09456 12.7273 2.25808 12.7273 2.42857L12.7273 7.57143ZM7 3.07143C6.62242 3.07143 6.25331 3.18454 5.93937 3.39645C5.62542 3.60837 5.38072 3.90957 5.23623 4.26197C5.09173 4.61437 5.05393 5.00214 5.12759 5.37625C5.20125 5.75035 5.38308 6.09399 5.65007 6.36371C5.91706 6.63342 6.25723 6.8171 6.62755 6.89152C6.99788 6.96593 7.38174 6.92774 7.73058 6.78177C8.07942 6.6358 8.37758 6.38861 8.58735 6.07146C8.79712 5.75431 8.90909 5.38144 8.90909 5C8.90909 4.48851 8.70795 3.99797 8.34993 3.6363C7.99191 3.27462 7.50632 3.07143 7 3.07143ZM7 5.64286C6.87414 5.64286 6.7511 5.60516 6.64645 5.53452C6.5418 5.46388 6.46024 5.36348 6.41208 5.24601C6.36391 5.12855 6.35131 4.99929 6.37586 4.87459C6.40042 4.74988 6.46102 4.63534 6.55002 4.54543C6.63902 4.45553 6.75241 4.3943 6.87585 4.3695C6.99929 4.34469 7.12724 4.35742 7.24353 4.40608C7.35981 4.45473 7.45919 4.53713 7.52912 4.64285C7.59904 4.74857 7.63636 4.87286 7.63636 5C7.63636 5.1705 7.56932 5.33401 7.44998 5.45457C7.33063 5.57513 7.16877 5.64286 7 5.64286Z" fill="white"/>
</svg>
