<svg width="173" height="114" viewBox="0 0 173 114" fill="none" xmlns="http://www.w3.org/2000/svg">
<g opacity="0.5">
<g opacity="0.5">
<path opacity="0.5" d="M86.4004 10.79V0.669983" stroke="white" stroke-width="0.5" stroke-miterlimit="10"/>
</g>
</g>
<g opacity="0.5">
<g opacity="0.5">
<path opacity="0.5" d="M109.932 14.52L113.062 4.89996" stroke="white" stroke-width="0.5" stroke-miterlimit="10"/>
</g>
</g>
<g opacity="0.5">
<g opacity="0.5">
<path opacity="0.5" d="M131.162 25.34L137.112 17.15" stroke="white" stroke-width="0.5" stroke-miterlimit="10"/>
</g>
</g>
<g opacity="0.5">
<g opacity="0.5">
<path opacity="0.5" d="M148.012 42.19L156.202 36.24" stroke="white" stroke-width="0.5" stroke-miterlimit="10"/>
</g>
</g>
<g opacity="0.5">
<g opacity="0.5">
<path opacity="0.5" d="M158.832 63.42L168.462 60.29" stroke="white" stroke-width="0.5" stroke-miterlimit="10"/>
</g>
<g opacity="0.5">
<path opacity="0.5" d="M4.3418 113.62L13.9618 110.49" stroke="white" stroke-width="0.5" stroke-miterlimit="10"/>
</g>
</g>
<g opacity="0.5">
<g opacity="0.5">
<path opacity="0.5" d="M162.561 86.96H172.681" stroke="white" stroke-width="0.5" stroke-miterlimit="10"/>
</g>
<g opacity="0.5">
<path opacity="0.5" d="M0.111328 86.96H10.2313" stroke="white" stroke-width="0.5" stroke-miterlimit="10"/>
</g>
</g>
<g opacity="0.5">
<g opacity="0.5">
<path opacity="0.5" d="M158.832 110.49L168.462 113.62" stroke="white" stroke-width="0.5" stroke-miterlimit="10"/>
</g>
<g opacity="0.5">
<path opacity="0.5" d="M4.3418 60.29L13.9618 63.42" stroke="white" stroke-width="0.5" stroke-miterlimit="10"/>
</g>
</g>
<g opacity="0.5">
<g opacity="0.5">
<path opacity="0.5" d="M16.5918 36.24L24.7818 42.19" stroke="white" stroke-width="0.5" stroke-miterlimit="10"/>
</g>
</g>
<g opacity="0.5">
<g opacity="0.5">
<path opacity="0.5" d="M35.6816 17.15L41.6316 25.34" stroke="white" stroke-width="0.5" stroke-miterlimit="10"/>
</g>
</g>
<g opacity="0.5">
<g opacity="0.5">
<path opacity="0.5" d="M59.7305 4.89996L62.8605 14.52" stroke="white" stroke-width="0.5" stroke-miterlimit="10"/>
</g>
</g>
<path d="M19.24 111V110.805L20.545 109.625C20.835 109.362 21.0367 109.143 21.15 108.97C21.2633 108.793 21.32 108.613 21.32 108.43C21.32 108.21 21.2417 108.03 21.085 107.89C20.9317 107.75 20.7467 107.68 20.53 107.68C20.3167 107.68 20.13 107.733 19.97 107.84C19.8133 107.947 19.6583 108.11 19.505 108.33L19.31 108.2C19.4767 107.947 19.6533 107.758 19.84 107.635C20.0267 107.512 20.265 107.45 20.555 107.45C20.8517 107.45 21.0983 107.543 21.295 107.73C21.495 107.913 21.595 108.143 21.595 108.42C21.595 108.65 21.53 108.86 21.4 109.05C21.2733 109.24 21.0467 109.483 20.72 109.78L19.65 110.75H21.63V111H19.24ZM23.7192 111.06C23.2859 111.06 22.9359 110.885 22.6692 110.535C22.4059 110.182 22.2742 109.753 22.2742 109.25C22.2742 108.927 22.3326 108.628 22.4492 108.355C22.5659 108.082 22.7359 107.862 22.9592 107.695C23.1859 107.525 23.4426 107.44 23.7292 107.44C24.1626 107.44 24.5109 107.617 24.7742 107.97C25.0409 108.32 25.1742 108.747 25.1742 109.25C25.1742 109.573 25.1159 109.872 24.9992 110.145C24.8826 110.418 24.7109 110.64 24.4842 110.81C24.2609 110.977 24.0059 111.06 23.7192 111.06ZM22.8742 110.355C23.0942 110.668 23.3792 110.825 23.7292 110.825C24.0792 110.825 24.3626 110.67 24.5792 110.36C24.7959 110.047 24.9042 109.677 24.9042 109.25C24.9042 108.823 24.7942 108.455 24.5742 108.145C24.3542 107.832 24.0692 107.675 23.7192 107.675C23.3692 107.675 23.0859 107.83 22.8692 108.14C22.6526 108.45 22.5442 108.82 22.5442 109.25C22.5442 109.673 22.6542 110.042 22.8742 110.355Z" fill="white"/>
<path d="M17.225 88V87.145H15.33L15.24 86.95L17.24 84.475H17.475V86.92H18.045V87.145H17.475V88H17.225ZM15.555 86.92H17.225V84.85L15.555 86.92ZM20.0903 88.06C19.657 88.06 19.307 87.885 19.0403 87.535C18.777 87.1817 18.6453 86.7533 18.6453 86.25C18.6453 85.9267 18.7036 85.6283 18.8203 85.355C18.937 85.0817 19.107 84.8617 19.3303 84.695C19.557 84.525 19.8136 84.44 20.1003 84.44C20.5336 84.44 20.882 84.6167 21.1453 84.97C21.412 85.32 21.5453 85.7467 21.5453 86.25C21.5453 86.5733 21.487 86.8717 21.3703 87.145C21.2536 87.4183 21.082 87.64 20.8553 87.81C20.632 87.9767 20.377 88.06 20.0903 88.06ZM19.2453 87.355C19.4653 87.6683 19.7503 87.825 20.1003 87.825C20.4503 87.825 20.7336 87.67 20.9503 87.36C21.167 87.0467 21.2753 86.6767 21.2753 86.25C21.2753 85.8233 21.1653 85.455 20.9453 85.145C20.7253 84.8317 20.4403 84.675 20.0903 84.675C19.7403 84.675 19.457 84.83 19.2403 85.14C19.0236 85.45 18.9153 85.82 18.9153 86.25C18.9153 86.6733 19.0253 87.0417 19.2453 87.355Z" fill="white"/>
<path d="M19.655 66.06C19.295 66.06 18.9983 65.9433 18.765 65.71C18.6117 65.5567 18.4983 65.3767 18.425 65.17C18.355 64.9633 18.32 64.685 18.32 64.335C18.32 63.795 18.45 63.345 18.71 62.985C18.9733 62.6217 19.3183 62.44 19.745 62.44C20.0883 62.44 20.425 62.575 20.755 62.845L20.59 63.045C20.3133 62.7983 20.025 62.675 19.725 62.675C19.3817 62.675 19.105 62.835 18.895 63.155C18.685 63.475 18.58 63.8917 18.58 64.405V64.49C18.8333 64.0567 19.1983 63.84 19.675 63.84C20.0017 63.84 20.2833 63.9417 20.52 64.145C20.76 64.345 20.88 64.6 20.88 64.91C20.88 65.24 20.7617 65.515 20.525 65.735C20.2917 65.9517 20.0017 66.06 19.655 66.06ZM19.675 65.825C19.9517 65.825 20.1767 65.7367 20.35 65.56C20.5233 65.3833 20.61 65.1667 20.61 64.91C20.61 64.67 20.52 64.47 20.34 64.31C20.1633 64.15 19.9367 64.07 19.66 64.07C19.3833 64.07 19.1517 64.1583 18.965 64.335C18.7783 64.5117 18.685 64.715 18.685 64.945C18.685 65.195 18.7783 65.405 18.965 65.575C19.155 65.7417 19.3917 65.825 19.675 65.825ZM22.978 66.06C22.5447 66.06 22.1947 65.885 21.928 65.535C21.6647 65.1817 21.533 64.7533 21.533 64.25C21.533 63.9267 21.5913 63.6283 21.708 63.355C21.8247 63.0817 21.9947 62.8617 22.218 62.695C22.4447 62.525 22.7013 62.44 22.988 62.44C23.4213 62.44 23.7697 62.6167 24.033 62.97C24.2997 63.32 24.433 63.7467 24.433 64.25C24.433 64.5733 24.3747 64.8717 24.258 65.145C24.1413 65.4183 23.9697 65.64 23.743 65.81C23.5197 65.9767 23.2647 66.06 22.978 66.06ZM22.133 65.355C22.353 65.6683 22.638 65.825 22.988 65.825C23.338 65.825 23.6213 65.67 23.838 65.36C24.0547 65.0467 24.163 64.6767 24.163 64.25C24.163 63.8233 24.053 63.455 23.833 63.145C23.613 62.8317 23.328 62.675 22.978 62.675C22.628 62.675 22.3447 62.83 22.128 63.14C21.9113 63.45 21.803 63.82 21.803 64.25C21.803 64.6733 21.913 65.0417 22.133 65.355Z" fill="white"/>
<path d="M29.575 46.05C29.2017 46.05 28.8917 45.9583 28.645 45.775C28.3983 45.5883 28.275 45.3483 28.275 45.055C28.275 44.8583 28.3467 44.685 28.49 44.535C28.6333 44.3817 28.82 44.2667 29.05 44.19C28.6133 44.0133 28.395 43.7383 28.395 43.365C28.395 43.1017 28.5133 42.8833 28.75 42.71C28.9867 42.5367 29.2617 42.45 29.575 42.45C29.8883 42.45 30.1633 42.5367 30.4 42.71C30.6367 42.8833 30.755 43.105 30.755 43.375C30.755 43.7417 30.5367 44.0133 30.1 44.19C30.33 44.2667 30.5167 44.3817 30.66 44.535C30.8033 44.685 30.875 44.8617 30.875 45.065C30.875 45.3517 30.75 45.5883 30.5 45.775C30.2533 45.9583 29.945 46.05 29.575 46.05ZM28.825 45.6C29.0117 45.7433 29.2617 45.815 29.575 45.815C29.8883 45.815 30.1383 45.7433 30.325 45.6C30.5117 45.4533 30.605 45.275 30.605 45.065C30.605 44.8483 30.505 44.67 30.305 44.53C30.105 44.3867 29.8617 44.315 29.575 44.315C29.285 44.315 29.04 44.3867 28.84 44.53C28.6433 44.6733 28.545 44.855 28.545 45.075C28.545 45.2817 28.6383 45.4567 28.825 45.6ZM28.93 43.895C29.1067 44.0283 29.3217 44.095 29.575 44.095C29.8283 44.095 30.0433 44.0283 30.22 43.895C30.3967 43.7583 30.485 43.5817 30.485 43.365C30.485 43.1683 30.3967 43.0067 30.22 42.88C30.0467 42.75 29.8317 42.685 29.575 42.685C29.3183 42.685 29.1017 42.75 28.925 42.88C28.7517 43.01 28.665 43.175 28.665 43.375C28.665 43.585 28.7533 43.7583 28.93 43.895ZM32.9194 46.06C32.4861 46.06 32.1361 45.885 31.8694 45.535C31.6061 45.1817 31.4744 44.7533 31.4744 44.25C31.4744 43.9267 31.5327 43.6283 31.6494 43.355C31.7661 43.0817 31.9361 42.8617 32.1594 42.695C32.3861 42.525 32.6427 42.44 32.9294 42.44C33.3627 42.44 33.7111 42.6167 33.9744 42.97C34.2411 43.32 34.3744 43.7467 34.3744 44.25C34.3744 44.5733 34.3161 44.8717 34.1994 45.145C34.0827 45.4183 33.9111 45.64 33.6844 45.81C33.4611 45.9767 33.2061 46.06 32.9194 46.06ZM32.0744 45.355C32.2944 45.6683 32.5794 45.825 32.9294 45.825C33.2794 45.825 33.5627 45.67 33.7794 45.36C33.9961 45.0467 34.1044 44.6767 34.1044 44.25C34.1044 43.8233 33.9944 43.455 33.7744 43.145C33.5544 42.8317 33.2694 42.675 32.9194 42.675C32.5694 42.675 32.2861 42.83 32.0694 43.14C31.8527 43.45 31.7444 43.82 31.7444 44.25C31.7444 44.6733 31.8544 45.0417 32.0744 45.355Z" fill="white"/>
<path d="M39.895 34V30.745L39.22 30.975L39.15 30.77L39.95 30.475H40.15V34H39.895ZM42.4448 34.06C42.0115 34.06 41.6615 33.885 41.3948 33.535C41.1315 33.1817 40.9998 32.7533 40.9998 32.25C40.9998 31.9267 41.0581 31.6283 41.1748 31.355C41.2915 31.0817 41.4615 30.8617 41.6848 30.695C41.9115 30.525 42.1681 30.44 42.4548 30.44C42.8881 30.44 43.2365 30.6167 43.4998 30.97C43.7665 31.32 43.8998 31.7467 43.8998 32.25C43.8998 32.5733 43.8415 32.8717 43.7248 33.145C43.6081 33.4183 43.4365 33.64 43.2098 33.81C42.9865 33.9767 42.7315 34.06 42.4448 34.06ZM41.5998 33.355C41.8198 33.6683 42.1048 33.825 42.4548 33.825C42.8048 33.825 43.0881 33.67 43.3048 33.36C43.5215 33.0467 43.6298 32.6767 43.6298 32.25C43.6298 31.8233 43.5198 31.455 43.2998 31.145C43.0798 30.8317 42.7948 30.675 42.4448 30.675C42.0948 30.675 41.8115 30.83 41.5948 31.14C41.3781 31.45 41.2698 31.82 41.2698 32.25C41.2698 32.6733 41.3798 33.0417 41.5998 33.355ZM45.9946 34.06C45.5613 34.06 45.2113 33.885 44.9446 33.535C44.6813 33.1817 44.5496 32.7533 44.5496 32.25C44.5496 31.9267 44.6079 31.6283 44.7246 31.355C44.8413 31.0817 45.0113 30.8617 45.2346 30.695C45.4613 30.525 45.7179 30.44 46.0046 30.44C46.4379 30.44 46.7863 30.6167 47.0496 30.97C47.3163 31.32 47.4496 31.7467 47.4496 32.25C47.4496 32.5733 47.3913 32.8717 47.2746 33.145C47.1579 33.4183 46.9863 33.64 46.7596 33.81C46.5363 33.9767 46.2813 34.06 45.9946 34.06ZM45.1496 33.355C45.3696 33.6683 45.6546 33.825 46.0046 33.825C46.3546 33.825 46.6379 33.67 46.8546 33.36C47.0713 33.0467 47.1796 32.6767 47.1796 32.25C47.1796 31.8233 47.0696 31.455 46.8496 31.145C46.6296 30.8317 46.3446 30.675 45.9946 30.675C45.6446 30.675 45.3613 30.83 45.1446 31.14C44.9279 31.45 44.8196 31.82 44.8196 32.25C44.8196 32.6733 44.9296 33.0417 45.1496 33.355Z" fill="white"/>
<path d="M59.895 22V18.745L59.22 18.975L59.15 18.77L59.95 18.475H60.15V22H59.895ZM60.9148 22V21.805L62.2198 20.625C62.5098 20.3617 62.7115 20.1433 62.8248 19.97C62.9381 19.7933 62.9948 19.6133 62.9948 19.43C62.9948 19.21 62.9165 19.03 62.7598 18.89C62.6065 18.75 62.4215 18.68 62.2048 18.68C61.9915 18.68 61.8048 18.7333 61.6448 18.84C61.4881 18.9467 61.3331 19.11 61.1798 19.33L60.9848 19.2C61.1515 18.9467 61.3281 18.7583 61.5148 18.635C61.7015 18.5117 61.9398 18.45 62.2298 18.45C62.5265 18.45 62.7731 18.5433 62.9698 18.73C63.1698 18.9133 63.2698 19.1433 63.2698 19.42C63.2698 19.65 63.2048 19.86 63.0748 20.05C62.9481 20.24 62.7215 20.4833 62.3948 20.78L61.3248 21.75H63.3048V22H60.9148ZM65.394 22.06C64.9607 22.06 64.6107 21.885 64.344 21.535C64.0807 21.1817 63.949 20.7533 63.949 20.25C63.949 19.9267 64.0074 19.6283 64.124 19.355C64.2407 19.0817 64.4107 18.8617 64.634 18.695C64.8607 18.525 65.1174 18.44 65.404 18.44C65.8374 18.44 66.1857 18.6167 66.449 18.97C66.7157 19.32 66.849 19.7467 66.849 20.25C66.849 20.5733 66.7907 20.8717 66.674 21.145C66.5574 21.4183 66.3857 21.64 66.159 21.81C65.9357 21.9767 65.6807 22.06 65.394 22.06ZM64.549 21.355C64.769 21.6683 65.054 21.825 65.404 21.825C65.754 21.825 66.0374 21.67 66.254 21.36C66.4707 21.0467 66.579 20.6767 66.579 20.25C66.579 19.8233 66.469 19.455 66.249 19.145C66.029 18.8317 65.744 18.675 65.394 18.675C65.044 18.675 64.7607 18.83 64.544 19.14C64.3274 19.45 64.219 19.82 64.219 20.25C64.219 20.6733 64.329 21.0417 64.549 21.355Z" fill="white"/>
<path d="M82.895 19V15.745L82.22 15.975L82.15 15.77L82.95 15.475H83.15V19H82.895ZM85.8998 19V18.145H84.0048L83.9148 17.95L85.9148 15.475H86.1498V17.92H86.7198V18.145H86.1498V19H85.8998ZM84.2298 17.92H85.8998V15.85L84.2298 17.92ZM88.7651 19.06C88.3318 19.06 87.9818 18.885 87.7151 18.535C87.4518 18.1817 87.3201 17.7533 87.3201 17.25C87.3201 16.9267 87.3785 16.6283 87.4951 16.355C87.6118 16.0817 87.7818 15.8617 88.0051 15.695C88.2318 15.525 88.4885 15.44 88.7751 15.44C89.2085 15.44 89.5568 15.6167 89.8201 15.97C90.0868 16.32 90.2201 16.7467 90.2201 17.25C90.2201 17.5733 90.1618 17.8717 90.0451 18.145C89.9285 18.4183 89.7568 18.64 89.5301 18.81C89.3068 18.9767 89.0518 19.06 88.7651 19.06ZM87.9201 18.355C88.1401 18.6683 88.4251 18.825 88.7751 18.825C89.1251 18.825 89.4085 18.67 89.6251 18.36C89.8418 18.0467 89.9501 17.6767 89.9501 17.25C89.9501 16.8233 89.8401 16.455 89.6201 16.145C89.4001 15.8317 89.1151 15.675 88.7651 15.675C88.4151 15.675 88.1318 15.83 87.9151 16.14C87.6985 16.45 87.5901 16.82 87.5901 17.25C87.5901 17.6733 87.7001 18.0417 87.9201 18.355Z" fill="white"/>
<path d="M106.895 21V17.745L106.22 17.975L106.15 17.77L106.95 17.475H107.15V21H106.895ZM109.33 21.06C108.97 21.06 108.673 20.9433 108.44 20.71C108.286 20.5567 108.173 20.3767 108.1 20.17C108.03 19.9633 107.995 19.685 107.995 19.335C107.995 18.795 108.125 18.345 108.385 17.985C108.648 17.6217 108.993 17.44 109.42 17.44C109.763 17.44 110.1 17.575 110.43 17.845L110.265 18.045C109.988 17.7983 109.7 17.675 109.4 17.675C109.056 17.675 108.78 17.835 108.57 18.155C108.36 18.475 108.255 18.8917 108.255 19.405V19.49C108.508 19.0567 108.873 18.84 109.35 18.84C109.676 18.84 109.958 18.9417 110.195 19.145C110.435 19.345 110.555 19.6 110.555 19.91C110.555 20.24 110.436 20.515 110.2 20.735C109.966 20.9517 109.676 21.06 109.33 21.06ZM109.35 20.825C109.626 20.825 109.851 20.7367 110.025 20.56C110.198 20.3833 110.285 20.1667 110.285 19.91C110.285 19.67 110.195 19.47 110.015 19.31C109.838 19.15 109.611 19.07 109.335 19.07C109.058 19.07 108.826 19.1583 108.64 19.335C108.453 19.5117 108.36 19.715 108.36 19.945C108.36 20.195 108.453 20.405 108.64 20.575C108.83 20.7417 109.066 20.825 109.35 20.825ZM112.653 21.06C112.219 21.06 111.869 20.885 111.603 20.535C111.339 20.1817 111.208 19.7533 111.208 19.25C111.208 18.9267 111.266 18.6283 111.383 18.355C111.499 18.0817 111.669 17.8617 111.893 17.695C112.119 17.525 112.376 17.44 112.663 17.44C113.096 17.44 113.444 17.6167 113.708 17.97C113.974 18.32 114.108 18.7467 114.108 19.25C114.108 19.5733 114.049 19.8717 113.933 20.145C113.816 20.4183 113.644 20.64 113.418 20.81C113.194 20.9767 112.939 21.06 112.653 21.06ZM111.808 20.355C112.028 20.6683 112.313 20.825 112.663 20.825C113.013 20.825 113.296 20.67 113.513 20.36C113.729 20.0467 113.838 19.6767 113.838 19.25C113.838 18.8233 113.728 18.455 113.508 18.145C113.288 17.8317 113.003 17.675 112.653 17.675C112.303 17.675 112.019 17.83 111.803 18.14C111.586 18.45 111.478 18.82 111.478 19.25C111.478 19.6733 111.588 20.0417 111.808 20.355Z" fill="white"/>
<path d="M122.895 33V29.745L122.22 29.975L122.15 29.77L122.95 29.475H123.15V33H122.895ZM125.25 33.05C124.876 33.05 124.566 32.9583 124.32 32.775C124.073 32.5883 123.95 32.3483 123.95 32.055C123.95 31.8583 124.021 31.685 124.165 31.535C124.308 31.3817 124.495 31.2667 124.725 31.19C124.288 31.0133 124.07 30.7383 124.07 30.365C124.07 30.1017 124.188 29.8833 124.425 29.71C124.661 29.5367 124.936 29.45 125.25 29.45C125.563 29.45 125.838 29.5367 126.075 29.71C126.311 29.8833 126.43 30.105 126.43 30.375C126.43 30.7417 126.211 31.0133 125.775 31.19C126.005 31.2667 126.191 31.3817 126.335 31.535C126.478 31.685 126.55 31.8617 126.55 32.065C126.55 32.3517 126.425 32.5883 126.175 32.775C125.928 32.9583 125.62 33.05 125.25 33.05ZM124.5 32.6C124.686 32.7433 124.936 32.815 125.25 32.815C125.563 32.815 125.813 32.7433 126 32.6C126.186 32.4533 126.28 32.275 126.28 32.065C126.28 31.8483 126.18 31.67 125.98 31.53C125.78 31.3867 125.536 31.315 125.25 31.315C124.96 31.315 124.715 31.3867 124.515 31.53C124.318 31.6733 124.22 31.855 124.22 32.075C124.22 32.2817 124.313 32.4567 124.5 32.6ZM124.605 30.895C124.781 31.0283 124.996 31.095 125.25 31.095C125.503 31.095 125.718 31.0283 125.895 30.895C126.071 30.7583 126.16 30.5817 126.16 30.365C126.16 30.1683 126.071 30.0067 125.895 29.88C125.721 29.75 125.506 29.685 125.25 29.685C124.993 29.685 124.776 29.75 124.6 29.88C124.426 30.01 124.34 30.175 124.34 30.375C124.34 30.585 124.428 30.7583 124.605 30.895ZM128.594 33.06C128.161 33.06 127.811 32.885 127.544 32.535C127.281 32.1817 127.149 31.7533 127.149 31.25C127.149 30.9267 127.208 30.6283 127.324 30.355C127.441 30.0817 127.611 29.8617 127.834 29.695C128.061 29.525 128.318 29.44 128.604 29.44C129.038 29.44 129.386 29.6167 129.649 29.97C129.916 30.32 130.049 30.7467 130.049 31.25C130.049 31.5733 129.991 31.8717 129.874 32.145C129.758 32.4183 129.586 32.64 129.359 32.81C129.136 32.9767 128.881 33.06 128.594 33.06ZM127.749 32.355C127.969 32.6683 128.254 32.825 128.604 32.825C128.954 32.825 129.238 32.67 129.454 32.36C129.671 32.0467 129.779 31.6767 129.779 31.25C129.779 30.8233 129.669 30.455 129.449 30.145C129.229 29.8317 128.944 29.675 128.594 29.675C128.244 29.675 127.961 29.83 127.744 30.14C127.528 30.45 127.419 30.82 127.419 31.25C127.419 31.6733 127.529 32.0417 127.749 32.355Z" fill="white"/>
<path d="M135.24 46V45.805L136.545 44.625C136.835 44.3617 137.037 44.1433 137.15 43.97C137.263 43.7933 137.32 43.6133 137.32 43.43C137.32 43.21 137.242 43.03 137.085 42.89C136.932 42.75 136.747 42.68 136.53 42.68C136.317 42.68 136.13 42.7333 135.97 42.84C135.813 42.9467 135.658 43.11 135.505 43.33L135.31 43.2C135.477 42.9467 135.653 42.7583 135.84 42.635C136.027 42.5117 136.265 42.45 136.555 42.45C136.852 42.45 137.098 42.5433 137.295 42.73C137.495 42.9133 137.595 43.1433 137.595 43.42C137.595 43.65 137.53 43.86 137.4 44.05C137.273 44.24 137.047 44.4833 136.72 44.78L135.65 45.75H137.63V46H135.24ZM139.719 46.06C139.286 46.06 138.936 45.885 138.669 45.535C138.406 45.1817 138.274 44.7533 138.274 44.25C138.274 43.9267 138.333 43.6283 138.449 43.355C138.566 43.0817 138.736 42.8617 138.959 42.695C139.186 42.525 139.443 42.44 139.729 42.44C140.163 42.44 140.511 42.6167 140.774 42.97C141.041 43.32 141.174 43.7467 141.174 44.25C141.174 44.5733 141.116 44.8717 140.999 45.145C140.883 45.4183 140.711 45.64 140.484 45.81C140.261 45.9767 140.006 46.06 139.719 46.06ZM138.874 45.355C139.094 45.6683 139.379 45.825 139.729 45.825C140.079 45.825 140.363 45.67 140.579 45.36C140.796 45.0467 140.904 44.6767 140.904 44.25C140.904 43.8233 140.794 43.455 140.574 43.145C140.354 42.8317 140.069 42.675 139.719 42.675C139.369 42.675 139.086 42.83 138.869 43.14C138.653 43.45 138.544 43.82 138.544 44.25C138.544 44.6733 138.654 45.0417 138.874 45.355ZM143.269 46.06C142.836 46.06 142.486 45.885 142.219 45.535C141.956 45.1817 141.824 44.7533 141.824 44.25C141.824 43.9267 141.882 43.6283 141.999 43.355C142.116 43.0817 142.286 42.8617 142.509 42.695C142.736 42.525 142.992 42.44 143.279 42.44C143.712 42.44 144.061 42.6167 144.324 42.97C144.591 43.32 144.724 43.7467 144.724 44.25C144.724 44.5733 144.666 44.8717 144.549 45.145C144.432 45.4183 144.261 45.64 144.034 45.81C143.811 45.9767 143.556 46.06 143.269 46.06ZM142.424 45.355C142.644 45.6683 142.929 45.825 143.279 45.825C143.629 45.825 143.912 45.67 144.129 45.36C144.346 45.0467 144.454 44.6767 144.454 44.25C144.454 43.8233 144.344 43.455 144.124 43.145C143.904 42.8317 143.619 42.675 143.269 42.675C142.919 42.675 142.636 42.83 142.419 43.14C142.202 43.45 142.094 43.82 142.094 44.25C142.094 44.6733 142.204 45.0417 142.424 45.355Z" fill="white"/>
<path d="M146.24 65V64.805L147.545 63.625C147.835 63.3617 148.037 63.1433 148.15 62.97C148.263 62.7933 148.32 62.6133 148.32 62.43C148.32 62.21 148.242 62.03 148.085 61.89C147.932 61.75 147.747 61.68 147.53 61.68C147.317 61.68 147.13 61.7333 146.97 61.84C146.813 61.9467 146.658 62.11 146.505 62.33L146.31 62.2C146.477 61.9467 146.653 61.7583 146.84 61.635C147.027 61.5117 147.265 61.45 147.555 61.45C147.852 61.45 148.098 61.5433 148.295 61.73C148.495 61.9133 148.595 62.1433 148.595 62.42C148.595 62.65 148.53 62.86 148.4 63.05C148.273 63.24 148.047 63.4833 147.72 63.78L146.65 64.75H148.63V65H146.24ZM149.189 65V64.805L150.494 63.625C150.784 63.3617 150.986 63.1433 151.099 62.97C151.213 62.7933 151.269 62.6133 151.269 62.43C151.269 62.21 151.191 62.03 151.034 61.89C150.881 61.75 150.696 61.68 150.479 61.68C150.266 61.68 150.079 61.7333 149.919 61.84C149.763 61.9467 149.608 62.11 149.454 62.33L149.259 62.2C149.426 61.9467 149.603 61.7583 149.789 61.635C149.976 61.5117 150.214 61.45 150.504 61.45C150.801 61.45 151.048 61.5433 151.244 61.73C151.444 61.9133 151.544 62.1433 151.544 62.42C151.544 62.65 151.479 62.86 151.349 63.05C151.223 63.24 150.996 63.4833 150.669 63.78L149.599 64.75H151.579V65H149.189ZM153.668 65.06C153.235 65.06 152.885 64.885 152.618 64.535C152.355 64.1817 152.223 63.7533 152.223 63.25C152.223 62.9267 152.282 62.6283 152.398 62.355C152.515 62.0817 152.685 61.8617 152.908 61.695C153.135 61.525 153.392 61.44 153.678 61.44C154.112 61.44 154.46 61.6167 154.723 61.97C154.99 62.32 155.123 62.7467 155.123 63.25C155.123 63.5733 155.065 63.8717 154.948 64.145C154.832 64.4183 154.66 64.64 154.433 64.81C154.21 64.9767 153.955 65.06 153.668 65.06ZM152.823 64.355C153.043 64.6683 153.328 64.825 153.678 64.825C154.028 64.825 154.312 64.67 154.528 64.36C154.745 64.0467 154.853 63.6767 154.853 63.25C154.853 62.8233 154.743 62.455 154.523 62.145C154.303 61.8317 154.018 61.675 153.668 61.675C153.318 61.675 153.035 61.83 152.818 62.14C152.602 62.45 152.493 62.82 152.493 63.25C152.493 63.6733 152.603 64.0417 152.823 64.355Z" fill="white"/>
<path d="M148.24 88V87.805L149.545 86.625C149.835 86.3617 150.037 86.1433 150.15 85.97C150.263 85.7933 150.32 85.6133 150.32 85.43C150.32 85.21 150.242 85.03 150.085 84.89C149.932 84.75 149.747 84.68 149.53 84.68C149.317 84.68 149.13 84.7333 148.97 84.84C148.813 84.9467 148.658 85.11 148.505 85.33L148.31 85.2C148.477 84.9467 148.653 84.7583 148.84 84.635C149.027 84.5117 149.265 84.45 149.555 84.45C149.852 84.45 150.098 84.5433 150.295 84.73C150.495 84.9133 150.595 85.1433 150.595 85.42C150.595 85.65 150.53 85.86 150.4 86.05C150.273 86.24 150.047 86.4833 149.72 86.78L148.65 87.75H150.63V88H148.24ZM153.023 88V87.145H151.128L151.038 86.95L153.038 84.475H153.273V86.92H153.843V87.145H153.273V88H153.023ZM151.353 86.92H153.023V84.85L151.353 86.92ZM155.888 88.06C155.455 88.06 155.105 87.885 154.838 87.535C154.575 87.1817 154.443 86.7533 154.443 86.25C154.443 85.9267 154.501 85.6283 154.618 85.355C154.735 85.0817 154.905 84.8617 155.128 84.695C155.355 84.525 155.611 84.44 155.898 84.44C156.331 84.44 156.68 84.6167 156.943 84.97C157.21 85.32 157.343 85.7467 157.343 86.25C157.343 86.5733 157.285 86.8717 157.168 87.145C157.051 87.4183 156.88 87.64 156.653 87.81C156.43 87.9767 156.175 88.06 155.888 88.06ZM155.043 87.355C155.263 87.6683 155.548 87.825 155.898 87.825C156.248 87.825 156.531 87.67 156.748 87.36C156.965 87.0467 157.073 86.6767 157.073 86.25C157.073 85.8233 156.963 85.455 156.743 85.145C156.523 84.8317 156.238 84.675 155.888 84.675C155.538 84.675 155.255 84.83 155.038 85.14C154.821 85.45 154.713 85.82 154.713 86.25C154.713 86.6733 154.823 87.0417 155.043 87.355Z" fill="white"/>
<path d="M144.24 110V109.805L145.545 108.625C145.835 108.362 146.037 108.143 146.15 107.97C146.263 107.793 146.32 107.613 146.32 107.43C146.32 107.21 146.242 107.03 146.085 106.89C145.932 106.75 145.747 106.68 145.53 106.68C145.317 106.68 145.13 106.733 144.97 106.84C144.813 106.947 144.658 107.11 144.505 107.33L144.31 107.2C144.477 106.947 144.653 106.758 144.84 106.635C145.027 106.512 145.265 106.45 145.555 106.45C145.852 106.45 146.098 106.543 146.295 106.73C146.495 106.913 146.595 107.143 146.595 107.42C146.595 107.65 146.53 107.86 146.4 108.05C146.273 108.24 146.047 108.483 145.72 108.78L144.65 109.75H146.63V110H144.24ZM148.604 110.06C148.244 110.06 147.948 109.943 147.714 109.71C147.561 109.557 147.448 109.377 147.374 109.17C147.304 108.963 147.269 108.685 147.269 108.335C147.269 107.795 147.399 107.345 147.659 106.985C147.923 106.622 148.268 106.44 148.694 106.44C149.038 106.44 149.374 106.575 149.704 106.845L149.539 107.045C149.263 106.798 148.974 106.675 148.674 106.675C148.331 106.675 148.054 106.835 147.844 107.155C147.634 107.475 147.529 107.892 147.529 108.405V108.49C147.783 108.057 148.148 107.84 148.624 107.84C148.951 107.84 149.233 107.942 149.469 108.145C149.709 108.345 149.829 108.6 149.829 108.91C149.829 109.24 149.711 109.515 149.474 109.735C149.241 109.952 148.951 110.06 148.604 110.06ZM148.624 109.825C148.901 109.825 149.126 109.737 149.299 109.56C149.473 109.383 149.559 109.167 149.559 108.91C149.559 108.67 149.469 108.47 149.289 108.31C149.113 108.15 148.886 108.07 148.609 108.07C148.333 108.07 148.101 108.158 147.914 108.335C147.728 108.512 147.634 108.715 147.634 108.945C147.634 109.195 147.728 109.405 147.914 109.575C148.104 109.742 148.341 109.825 148.624 109.825ZM151.927 110.06C151.494 110.06 151.144 109.885 150.877 109.535C150.614 109.182 150.482 108.753 150.482 108.25C150.482 107.927 150.541 107.628 150.657 107.355C150.774 107.082 150.944 106.862 151.167 106.695C151.394 106.525 151.651 106.44 151.937 106.44C152.371 106.44 152.719 106.617 152.982 106.97C153.249 107.32 153.382 107.747 153.382 108.25C153.382 108.573 153.324 108.872 153.207 109.145C153.091 109.418 152.919 109.64 152.692 109.81C152.469 109.977 152.214 110.06 151.927 110.06ZM151.082 109.355C151.302 109.668 151.587 109.825 151.937 109.825C152.287 109.825 152.571 109.67 152.787 109.36C153.004 109.047 153.112 108.677 153.112 108.25C153.112 107.823 153.002 107.455 152.782 107.145C152.562 106.832 152.277 106.675 151.927 106.675C151.577 106.675 151.294 106.83 151.077 107.14C150.861 107.45 150.752 107.82 150.752 108.25C150.752 108.673 150.862 109.042 151.082 109.355Z" fill="white"/>
</svg>
