<svg width="16" height="18" viewBox="0 0 16 18" fill="none" xmlns="http://www.w3.org/2000/svg">
<path d="M14.6762 2.3191L14.9742 1.91755L14.9736 1.91714L14.6762 2.3191ZM14.3286 2.16278L14.2222 2.65133L14.2222 2.65133L14.3286 2.16278ZM14.9156 2.5976L15.3594 2.36739L15.3594 2.36738L14.9156 2.5976ZM15 2.94329L14.5 2.94143V2.94329H15ZM15 8.90516H14.5V8.9055L15 8.90516ZM14.128 12.2038L14.5638 12.4488V12.4488L14.128 12.2038ZM11.7012 14.771L11.9742 15.1899L11.9746 15.1896L11.7012 14.771ZM8.5075 16.8516L8.78034 17.2706L8.78043 17.2706L8.5075 16.8516ZM7.4925 16.8516L7.21957 17.2706L7.21966 17.2706L7.4925 16.8516ZM4.29875 14.771L4.02536 15.1896L4.02582 15.1899L4.29875 14.771ZM1.00001 8.90516L1.50001 8.9055V8.90516H1.00001ZM1.00001 2.94329H1.50001L1.5 2.94143L1.00001 2.94329ZM1.08444 2.5976L0.640586 2.36739H0.640585L1.08444 2.5976ZM1.32375 2.3191L1.02638 1.91714L1.02584 1.91755L1.32375 2.3191ZM1.67139 2.16278L1.77778 2.65133L1.77778 2.65133L1.67139 2.16278ZM2.05875 2.15905L1.96188 2.64958L1.96463 2.65011L2.05875 2.15905ZM4.89495 2.16576L4.80317 1.67425L4.89495 2.16576ZM7.50125 1.14273L7.23338 0.720534L7.2322 0.721289L7.50125 1.14273ZM8.49875 1.14273L8.7678 0.721287L8.76662 0.720536L8.49875 1.14273ZM11.1051 2.16576L11.0133 2.65726L11.1051 2.16576ZM13.9412 2.15905L14.0354 2.65012L14.0381 2.64957L13.9412 2.15905ZM14.9736 1.91714C14.8134 1.79864 14.6292 1.71651 14.435 1.67423L14.2222 2.65133C14.2824 2.66444 14.3357 2.68914 14.3789 2.72105L14.9736 1.91714ZM15.3594 2.36738C15.267 2.18926 15.1343 2.03633 14.9742 1.91755L14.3783 2.72065C14.4213 2.7525 14.4521 2.7899 14.4717 2.82781L15.3594 2.36738ZM15.5 2.94515C15.5007 2.74336 15.4519 2.54576 15.3594 2.36739L14.4717 2.82781C14.4912 2.86547 14.5001 2.90412 14.5 2.94143L15.5 2.94515ZM15.5 8.90516V2.94329H14.5V8.90516H15.5ZM14.5638 12.4488C15.1789 11.3552 15.5008 10.1399 15.5 8.90482L14.5 8.9055C14.5007 9.96509 14.2248 11.0117 13.6922 11.9587L14.5638 12.4488ZM11.9746 15.1896C13.06 14.4808 13.949 13.5422 14.5638 12.4488L13.6922 11.9587C13.1595 12.906 12.3844 13.7277 11.4279 14.3524L11.9746 15.1896ZM8.78043 17.2706L11.9742 15.1899L11.4283 14.3521L8.23457 16.4327L8.78043 17.2706ZM8 17.5C8.27585 17.5 8.54854 17.4216 8.78034 17.2706L8.23466 16.4326C8.17008 16.4747 8.08798 16.5 8 16.5V17.5ZM7.21966 17.2706C7.45146 17.4216 7.72415 17.5 8 17.5V16.5C7.91202 16.5 7.82992 16.4747 7.76534 16.4326L7.21966 17.2706ZM4.02582 15.1899L7.21957 17.2706L7.76543 16.4327L4.57168 14.3521L4.02582 15.1899ZM1.43616 12.4488C2.05102 13.5422 2.93999 14.4808 4.02536 15.1896L4.57214 14.3524C3.61558 13.7277 2.84051 12.906 2.30779 11.9587L1.43616 12.4488ZM0.500005 8.90482C0.499168 10.1399 0.821123 11.3552 1.43616 12.4488L2.30779 11.9587C1.77524 11.0117 1.49929 9.96509 1.5 8.9055L0.500005 8.90482ZM0.500005 2.94329V8.90516H1.50001V2.94329H0.500005ZM0.640585 2.36739C0.548067 2.54576 0.499258 2.74336 0.500009 2.94515L1.5 2.94143C1.49986 2.90412 1.50875 2.86547 1.52829 2.82781L0.640585 2.36739ZM1.02584 1.91755C0.865725 2.03633 0.732973 2.18926 0.640586 2.36739L1.52829 2.82781C1.54795 2.7899 1.57875 2.7525 1.62167 2.72065L1.02584 1.91755ZM1.56501 1.67423C1.37083 1.71651 1.18655 1.79864 1.02638 1.91714L1.62113 2.72105C1.66426 2.68914 1.71756 2.66444 1.77778 2.65133L1.56501 1.67423ZM2.15563 1.66852C1.96071 1.63002 1.75916 1.63195 1.56501 1.67423L1.77778 2.65133C1.83802 2.63821 1.9012 2.63759 1.96188 2.64957L2.15563 1.66852ZM4.80317 1.67425C3.92861 1.83756 3.02646 1.83543 2.15288 1.66799L1.96463 2.65011C2.96103 2.84109 3.9893 2.84352 4.98673 2.65726L4.80317 1.67425ZM7.2322 0.721289C6.50425 1.18602 5.67771 1.51094 4.80317 1.67425L4.98673 2.65726C5.98418 2.471 6.93157 2.09962 7.7703 1.56417L7.2322 0.721289ZM8 0.5C7.72964 0.5 7.46226 0.57532 7.23338 0.720536L7.76912 1.56492C7.83318 1.52428 7.91383 1.5 8 1.5V0.5ZM8.76662 0.720536C8.53774 0.57532 8.27036 0.5 8 0.5V1.5C8.08617 1.5 8.16682 1.52428 8.23088 1.56492L8.76662 0.720536ZM11.1968 1.67425C10.3223 1.51094 9.49575 1.18602 8.7678 0.721289L8.2297 1.56417C9.06843 2.09962 10.0158 2.471 11.0133 2.65726L11.1968 1.67425ZM13.8471 1.66799C12.9735 1.83543 12.0714 1.83756 11.1968 1.67425L11.0133 2.65726C12.0107 2.84352 13.039 2.84109 14.0354 2.65011L13.8471 1.66799ZM14.435 1.67423C14.2408 1.63195 14.0393 1.63002 13.8444 1.66852L14.0381 2.64957C14.0988 2.63759 14.162 2.63821 14.2222 2.65133L14.435 1.67423Z" fill="white"/>
</svg>
