<svg width="68" height="22" viewBox="0 0 68 22" fill="none" xmlns="http://www.w3.org/2000/svg">
<path fill-rule="evenodd" clip-rule="evenodd" d="M9.53714 20.0827L0.292152 10.9458C-0.097384 10.5612 -0.097384 9.93981 0.292152 9.5542L9.53714 0.417333C10.0995 -0.139111 11.0144 -0.139111 11.5777 0.417333C12.14 0.973776 12.14 1.87687 11.5777 2.43332L3.66913 10.2505L11.5777 18.0657C12.14 18.6231 12.14 19.5262 11.5777 20.0827C11.0144 20.6391 10.0995 20.6391 9.53714 20.0827" fill="#0A84FF"/>
<path d="M29.1729 16V4.02197H27.6787V9.20166H21.1045V4.02197H19.6104V16H21.1045V10.5464H27.6787V16H29.1729ZM34.5588 14.9043C33.5212 14.9043 32.7492 14.373 32.7492 13.46C32.7492 12.5635 33.3469 12.0903 34.7082 11.999L37.1154 11.8413V12.6631C37.1154 13.9414 36.028 14.9043 34.5588 14.9043ZM34.2932 16.1577C35.4885 16.1577 36.468 15.6348 37.049 14.6802H37.1818V16H38.5432V9.87402C38.5432 8.01465 37.323 6.89404 35.1399 6.89404C33.2307 6.89404 31.8195 7.84033 31.6286 9.27637H33.073C33.2722 8.5708 34.0192 8.16406 35.09 8.16406C36.4265 8.16406 37.1154 8.77002 37.1154 9.87402V10.6875L34.5339 10.8452C32.4504 10.9697 31.2717 11.8911 31.2717 13.4932C31.2717 15.1284 32.5583 16.1577 34.2932 16.1577ZM43.9789 16.1494C46.0624 16.1494 47.4985 15.0205 47.4985 13.3604C47.4985 12.3311 46.8842 11.584 45.6972 11.3267V11.1938C46.5771 10.9946 47.1498 10.1978 47.1498 9.30957C47.1498 7.88184 45.996 6.89404 43.9789 6.89404C42.1029 6.89404 40.7748 7.82373 40.5839 9.29297H41.995C42.1112 8.5708 42.9081 8.10596 43.9789 8.10596C45.1493 8.10596 45.7387 8.66211 45.7387 9.41748C45.7387 10.314 45.1078 10.7539 43.9789 10.7539H42.5844V11.9492H43.9789C45.3486 11.9492 46.079 12.4141 46.079 13.4351C46.079 14.3232 45.2987 14.9458 43.9789 14.9458C42.8583 14.9458 42.0697 14.4893 41.8954 13.709H40.4262C40.5839 15.1948 42.0365 16.1494 43.9789 16.1494ZM52.2535 14.9043C51.2159 14.9043 50.444 14.373 50.444 13.46C50.444 12.5635 51.0416 12.0903 52.403 11.999L54.8102 11.8413V12.6631C54.8102 13.9414 53.7228 14.9043 52.2535 14.9043ZM51.9879 16.1577C53.1832 16.1577 54.1627 15.6348 54.7438 14.6802H54.8766V16H56.2379V9.87402C56.2379 8.01465 55.0177 6.89404 52.8346 6.89404C50.9254 6.89404 49.5143 7.84033 49.3234 9.27637H50.7677C50.9669 8.5708 51.714 8.16406 52.7848 8.16406C54.1212 8.16406 54.8102 8.77002 54.8102 9.87402V10.6875L52.2286 10.8452C50.1451 10.9697 48.9664 11.8911 48.9664 13.4932C48.9664 15.1284 50.2531 16.1577 51.9879 16.1577ZM64.3216 14.8047H59.9056V14.6719C60.3289 14.1157 60.5614 13.1611 60.6444 12.0737L60.9266 8.24707H64.3216V14.8047ZM58.8348 18.3657V16H65.8324V18.3657H67.1771V14.8047H65.7493V7.05176H59.6483L59.2996 12.0405C59.2166 13.2441 58.8929 14.373 58.2371 14.8047H57.4901V18.3657H58.8348Z" fill="#0A84FF"/>
</svg>
