<svg width="28" height="28" viewBox="0 0 28 28" fill="none" xmlns="http://www.w3.org/2000/svg">
<path d="M14 26.6377C20.8115 26.6377 26.4512 20.998 26.4512 14.1865C26.4512 7.38721 20.7993 1.73535 13.9878 1.73535C7.18848 1.73535 1.54883 7.38721 1.54883 14.1865C1.54883 20.998 7.20068 26.6377 14 26.6377ZM14 18.3491C10.3257 18.3491 7.50586 19.6553 6.26074 21.1201C4.625 19.2891 3.63623 16.8599 3.63623 14.1865C3.63623 8.43701 8.22607 3.81055 13.9878 3.81055C19.7495 3.81055 24.3638 8.43701 24.376 14.1865C24.3882 16.8721 23.3872 19.3013 21.7393 21.1323C20.5063 19.6675 17.6743 18.3491 14 18.3491ZM14 16.2739C16.3438 16.2983 18.187 14.2964 18.187 11.6719C18.187 9.20605 16.3438 7.15527 14 7.15527C11.6562 7.15527 9.80078 9.20605 9.81299 11.6719C9.8252 14.2964 11.6562 16.2495 14 16.2739Z" fill="#828282"/>
</svg>
