<svg width="30" height="29" viewBox="0 0 30 29" fill="none" xmlns="http://www.w3.org/2000/svg">
<path d="M7.13818 27.8086C7.63867 28.1992 8.27344 28.0649 9.03027 27.5156L15.4878 22.7671L21.9575 27.5156C22.7144 28.0649 23.3369 28.1992 23.8496 27.8086C24.3501 27.4302 24.46 26.8076 24.1548 25.9287L21.6035 18.3237L28.1221 13.6484C28.8789 13.1113 29.1841 12.5376 28.9888 11.9395C28.7935 11.3413 28.2197 11.0483 27.2798 11.0605L19.2842 11.1216L16.855 3.47998C16.562 2.58887 16.1226 2.125 15.4878 2.125C14.8652 2.125 14.4258 2.58887 14.1328 3.47998L11.7036 11.1216L3.70801 11.0605C2.76807 11.0483 2.19434 11.3413 1.99902 11.9395C1.7915 12.5376 2.10889 13.1113 2.86572 13.6484L9.38428 18.3237L6.83301 25.9287C6.52783 26.8076 6.6377 27.4302 7.13818 27.8086Z" fill="#757575"/>
</svg>
