<svg width="30" height="28" viewBox="0 0 30 28" fill="none" xmlns="http://www.w3.org/2000/svg">
<path d="M15.5 10.438C17.4165 10.438 19.0156 8.85107 19.0156 6.92236C19.0156 4.99365 17.4165 3.40674 15.5 3.41895C13.5713 3.43115 11.9722 4.99365 11.9722 6.92236C11.9722 8.85107 13.5713 10.438 15.5 10.438ZM24.3501 10.438C26.2788 10.438 27.8535 8.85107 27.8535 6.92236C27.8535 4.99365 26.2788 3.40674 24.3501 3.41895C22.4214 3.43115 20.8467 4.99365 20.8467 6.92236C20.8467 8.85107 22.4214 10.438 24.3501 10.438ZM6.6377 10.4258C8.56641 10.4258 10.1411 8.85107 10.1411 6.93457C10.1411 5.01807 8.56641 3.41895 6.6377 3.41895C4.70898 3.41895 3.13428 5.01807 3.13428 6.93457C3.13428 8.85107 4.70898 10.4258 6.6377 10.4258ZM15.5 18.7144C17.4165 18.7144 19.0156 17.1274 19.0156 15.1987C19.0156 13.2822 17.4165 11.6831 15.5 11.6953C13.5713 11.7075 11.9722 13.2822 11.9722 15.1987C11.9722 17.1274 13.5713 18.7144 15.5 18.7144ZM6.6377 18.7144C8.56641 18.7144 10.1411 17.1274 10.1411 15.1987C10.1411 13.2822 8.56641 11.6831 6.6377 11.6953C4.70898 11.7075 3.13428 13.2822 3.13428 15.1987C3.13428 17.1274 4.70898 18.7144 6.6377 18.7144ZM24.3501 18.7144C26.2788 18.7144 27.8535 17.1274 27.8535 15.1987C27.8535 13.2822 26.2788 11.6831 24.3501 11.6953C22.4214 11.7075 20.8467 13.2822 20.8467 15.1987C20.8467 17.1274 22.4214 18.7144 24.3501 18.7144ZM6.6377 26.9907C8.56641 26.9907 10.1411 25.4038 10.1411 23.4751C10.1411 21.5586 8.56641 19.9717 6.6377 19.9717C4.70898 19.9717 3.13428 21.5586 3.13428 23.4751C3.13428 25.4038 4.70898 26.9907 6.6377 26.9907ZM15.5 26.9907C17.4165 26.9907 19.0156 25.4038 19.0156 23.4751C19.0156 21.5586 17.4165 19.9717 15.5 19.9717C13.5713 19.9717 11.9722 21.5586 11.9722 23.4751C11.9722 25.4038 13.5713 26.9907 15.5 26.9907ZM24.3501 26.9907C26.2788 26.9907 27.8535 25.4038 27.8535 23.4751C27.8535 21.5586 26.2788 19.9717 24.3501 19.9717C22.4214 19.9717 20.8467 21.5586 20.8467 23.4751C20.8467 25.4038 22.4214 26.9907 24.3501 26.9907Z" fill="#757575"/>
</svg>
