<svg width="30" height="28" viewBox="0 0 30 28" fill="none" xmlns="http://www.w3.org/2000/svg">
<path d="M15 27.6377C21.8115 27.6377 27.4512 21.998 27.4512 15.1865C27.4512 8.38721 21.7993 2.73535 14.9878 2.73535C8.18848 2.73535 2.54883 8.38721 2.54883 15.1865C2.54883 21.998 8.20068 27.6377 15 27.6377ZM8.61572 16.5049C8.12744 16.5049 7.76123 16.1387 7.76123 15.6504C7.76123 15.1743 8.12744 14.8081 8.61572 14.8081H14.1455V7.42285C14.1455 6.94678 14.5117 6.58057 14.9878 6.58057C15.4639 6.58057 15.8423 6.94678 15.8423 7.42285V15.6504C15.8423 16.1387 15.4639 16.5049 14.9878 16.5049H8.61572Z" fill="#757575"/>
</svg>
