<svg width="16" height="16" viewBox="0 0 16 16" fill="none" xmlns="http://www.w3.org/2000/svg">
<path fill-rule="evenodd" clip-rule="evenodd" d="M12.6666 10.4563L15.7824 13.4956C16.073 13.7822 16.073 14.2456 15.7793 14.5321L14.8948 15.3948C14.6042 15.6814 14.1292 15.6814 13.8354 15.3948L10.7195 12.3555C10.5789 12.2183 10.5008 12.0324 10.5008 11.8373V11.3404C9.39756 12.1817 8.00996 12.6817 6.50048 12.6817C2.90959 12.6817 0 9.84355 0 6.34084C0 2.83814 2.90959 0 6.50048 0C10.0914 0 13.001 2.83814 13.001 6.34084C13.001 7.81326 12.4884 9.16679 11.6259 10.2429H12.1353C12.3353 10.2429 12.5259 10.3191 12.6666 10.4563ZM2.48544 6.28937C2.48544 8.42695 4.29345 10.1539 6.52427 10.1539C8.75825 10.1539 10.5631 8.42393 10.5631 6.28937C10.5631 4.15179 8.7551 2.42482 6.52427 2.42482C4.29029 2.42482 2.48544 4.15481 2.48544 6.28937Z" fill="#878B95" fill-opacity="0.5"/>
</svg>
