<svg width="16" height="12" viewBox="0 0 16 12" fill="none" xmlns="http://www.w3.org/2000/svg">
<path fill-rule="evenodd" clip-rule="evenodd" d="M8.3004 2.69638C10.5348 2.69648 12.6838 3.55504 14.3031 5.09459C14.4251 5.21345 14.62 5.21195 14.7401 5.09123L15.9058 3.91482C15.9666 3.85359 16.0005 3.77065 16 3.68435C15.9995 3.59806 15.9646 3.51552 15.9031 3.45501C11.6527 -0.618303 4.94737 -0.618303 0.697047 3.45501C0.635477 3.51547 0.600547 3.59799 0.599983 3.68428C0.599408 3.77058 0.633259 3.85354 0.694022 3.91482L1.86003 5.09123C1.98004 5.21214 2.17511 5.21364 2.29698 5.09459C3.91655 3.55493 6.06577 2.69638 8.3004 2.69638ZM8.3004 6.52377C9.52806 6.5237 10.7119 6.98001 11.6219 7.80405C11.745 7.921 11.9389 7.91846 12.0589 7.79833L13.2232 6.62192C13.2845 6.56021 13.3185 6.4765 13.3177 6.38952C13.3168 6.30253 13.281 6.21953 13.2185 6.15908C10.4473 3.58134 6.15582 3.58134 3.38466 6.15908C3.32206 6.21953 3.28635 6.30257 3.28553 6.38959C3.2847 6.4766 3.31885 6.5603 3.38028 6.62192L4.54427 7.79833C4.66425 7.91846 4.85814 7.921 4.98122 7.80405C5.89063 6.98055 7.07354 6.52428 8.3004 6.52377ZM10.5379 9.33137C10.6002 9.27026 10.6345 9.18616 10.6327 9.09893C10.6309 9.0117 10.5932 8.92907 10.5285 8.87055C9.2423 7.78265 7.35849 7.78265 6.07226 8.87055C6.00751 8.92903 5.96974 9.01163 5.9679 9.09886C5.96605 9.18609 6.00029 9.27021 6.06251 9.33137L8.07688 11.3639C8.13592 11.4236 8.2164 11.4572 8.3004 11.4572C8.38439 11.4572 8.46487 11.4236 8.52391 11.3639L10.5379 9.33137Z" fill="white"/>
</svg>
