<svg width="394" height="178" viewBox="0 0 394 178" fill="none" xmlns="http://www.w3.org/2000/svg">
<path d="M228.729 120.731C221.601 127.859 212.264 132.356 202.247 133.485C192.23 134.614 182.126 132.308 173.59 126.946C165.054 121.583 158.592 113.481 155.261 103.967C151.931 94.452 151.93 84.0886 155.258 74.5732C158.586 65.0578 165.046 56.9544 173.581 51.5896C182.115 46.2249 192.218 43.9168 202.236 45.0433C212.253 46.1699 221.591 50.6642 228.721 57.7905C235.851 64.9167 240.35 74.2526 241.481 84.2695" stroke="#4FE16F"/>
<path d="M169.673 136.123C158.981 129.95 150.702 120.33 146.191 108.837C141.681 97.345 141.205 84.6616 144.843 72.8639C148.482 61.0663 156.018 50.8534 166.218 43.8976C176.417 36.9419 188.677 33.6553 200.988 34.5762C213.3 35.497 224.934 40.5707 233.986 48.9664C243.037 57.3621 248.97 68.5824 250.813 80.79C252.656 92.9976 250.299 105.469 244.129 116.163C237.958 126.856 228.34 135.138 216.849 139.651" stroke="#4FE16F"/>
<path d="M164.542 32.9337C177.195 25.6281 191.955 22.8352 206.403 25.0124C220.851 27.1896 234.131 34.2077 244.07 44.9178C254.009 55.6278 260.017 69.3951 261.111 83.9653C262.204 98.5355 258.318 113.045 250.089 125.119C241.86 137.192 229.776 146.114 215.814 150.423C201.853 154.733 186.842 154.174 173.24 148.839C159.638 143.504 148.25 133.708 140.941 121.056C133.632 108.405 130.836 93.646 133.009 79.1974" stroke="#4FE16F"/>
<path d="M271.292 88.793C271.292 105.669 265.562 122.046 255.04 135.241C244.518 148.436 229.828 157.667 213.375 161.424C196.922 165.18 179.681 163.239 164.475 155.919C149.269 148.598 136.999 136.331 129.674 121.127C122.35 105.923 120.404 88.6822 124.157 72.2282C127.909 55.7741 137.137 41.0817 150.329 30.5565C163.522 20.0314 179.897 14.2972 196.773 14.293C213.65 14.2887 230.028 20.0147 243.225 30.5332" stroke="#4FE16F"/>
<path d="M196.792 103.793C196.792 103.793 208.792 97.793 208.792 88.793V78.293L196.792 73.793L184.792 78.293V88.793C184.792 97.793 196.792 103.793 196.792 103.793Z" stroke="white" stroke-linecap="round" stroke-linejoin="round"/>
<path d="M193.695 91.1004C192.622 91.1004 191.668 90.7271 190.835 89.9804L191.325 89.4004C191.698 89.7404 192.072 89.9904 192.445 90.1504C192.825 90.3104 193.252 90.3904 193.725 90.3904C194.192 90.3904 194.568 90.2804 194.855 90.0604C195.142 89.8337 195.285 89.5404 195.285 89.1804C195.285 88.8404 195.158 88.5704 194.905 88.3704C194.652 88.1704 194.172 87.9971 193.465 87.8504C192.632 87.6704 192.032 87.4271 191.665 87.1204C191.298 86.8137 191.115 86.3771 191.115 85.8104C191.115 85.2571 191.332 84.8004 191.765 84.4404C192.198 84.0804 192.748 83.9004 193.415 83.9004C194.342 83.9004 195.162 84.1871 195.875 84.7604L195.415 85.3704C194.795 84.8637 194.122 84.6104 193.395 84.6104C192.948 84.6104 192.588 84.7204 192.315 84.9404C192.042 85.1537 191.905 85.4271 191.905 85.7604C191.905 86.1071 192.035 86.3804 192.295 86.5804C192.562 86.7804 193.065 86.9604 193.805 87.1204C194.598 87.2937 195.175 87.5371 195.535 87.8504C195.902 88.1571 196.085 88.5804 196.085 89.1204C196.085 89.7137 195.862 90.1937 195.415 90.5604C194.968 90.9204 194.395 91.1004 193.695 91.1004Z" fill="white"/>
<path d="M199.994 91.1004C198.92 91.1004 197.967 90.7271 197.134 89.9804L197.624 89.4004C197.997 89.7404 198.37 89.9904 198.744 90.1504C199.124 90.3104 199.55 90.3904 200.024 90.3904C200.49 90.3904 200.867 90.2804 201.154 90.0604C201.44 89.8337 201.584 89.5404 201.584 89.1804C201.584 88.8404 201.457 88.5704 201.204 88.3704C200.95 88.1704 200.47 87.9971 199.764 87.8504C198.93 87.6704 198.33 87.4271 197.964 87.1204C197.597 86.8137 197.414 86.3771 197.414 85.8104C197.414 85.2571 197.63 84.8004 198.064 84.4404C198.497 84.0804 199.047 83.9004 199.714 83.9004C200.64 83.9004 201.46 84.1871 202.174 84.7604L201.714 85.3704C201.094 84.8637 200.42 84.6104 199.694 84.6104C199.247 84.6104 198.887 84.7204 198.614 84.9404C198.34 85.1537 198.204 85.4271 198.204 85.7604C198.204 86.1071 198.334 86.3804 198.594 86.5804C198.86 86.7804 199.364 86.9604 200.104 87.1204C200.897 87.2937 201.474 87.5371 201.834 87.8504C202.2 88.1571 202.384 88.5804 202.384 89.1204C202.384 89.7137 202.16 90.1937 201.714 90.5604C201.267 90.9204 200.694 91.1004 199.994 91.1004Z" fill="white"/>
<path d="M36 78.5H44.9013C70.9352 78.5 95.9429 68.3472 114.609 50.1995L139.5 26" stroke="#4FE16F"/>
<path d="M358.5 97H349.599C323.565 97 298.557 107.153 279.891 125.301L255 149.5" stroke="#4FE16F"/>
<path d="M112.5 88C112.5 71.9802 117.054 56.2904 125.631 42.7599C134.207 29.2295 146.454 18.4158 160.942 11.5798" stroke="#4FE16F"/>
<path d="M112.5 88V88C112.5 92.4183 108.918 96 104.5 96H0" stroke="#4FE16F"/>
<path d="M281.5 88C281.5 104.02 276.946 119.71 268.369 133.24C259.793 146.771 247.546 157.584 233.058 164.42" stroke="#4FE16F"/>
<path d="M281.5 88V88C281.5 83.5817 285.082 80 289.5 80H394" stroke="#4FE16F"/>
</svg>
