<svg width="15" height="15" viewBox="0 0 15 15" fill="none" xmlns="http://www.w3.org/2000/svg">
<path d="M8.22415 8.22258L13.7279 8.22666C13.8926 8.22665 14.0505 8.16124 14.1669 8.04482C14.2833 7.9284 14.3487 7.7705 14.3487 7.60587C14.3487 7.44123 14.2833 7.28334 14.1669 7.16693C14.0505 7.05053 13.8926 6.98513 13.728 6.98514L8.22422 6.98981L8.22888 1.48602C8.22889 1.32139 8.1635 1.1635 8.04709 1.04709C7.93068 0.93068 7.77279 0.865287 7.60815 0.865295C7.44352 0.865304 7.28562 0.930714 7.1692 1.04714C7.05278 1.16356 6.98737 1.32145 6.98736 1.48609L6.99144 6.98987L1.48765 6.98579C1.40604 6.98546 1.32517 7.0013 1.2497 7.03238C1.17424 7.06346 1.10567 7.10918 1.04796 7.16689C0.990243 7.2246 0.944527 7.29317 0.913445 7.36864C0.882364 7.4441 0.866532 7.52497 0.866862 7.60659C0.866523 7.6882 0.882346 7.76907 0.91342 7.84454C0.944493 7.92 0.990202 7.98856 1.04791 8.04627C1.10562 8.10397 1.17418 8.14968 1.24964 8.18076C1.32511 8.21183 1.40598 8.22765 1.48759 8.22731L6.99137 8.22265L6.98671 13.7264C6.98637 13.808 7.00219 13.8889 7.03327 13.9644C7.06434 14.0398 7.11005 14.1084 7.16776 14.1661C7.22546 14.2238 7.29402 14.2695 7.36949 14.3006C7.44495 14.3317 7.52582 14.3475 7.60744 14.3472C7.68905 14.3475 7.76992 14.3317 7.84539 14.3006C7.92085 14.2695 7.98942 14.2238 8.04713 14.1661C8.10485 14.1084 8.15056 14.0398 8.18165 13.9643C8.21273 13.8889 8.22856 13.808 8.22823 13.7264L8.22415 8.22258Z" fill="white" fill-opacity="0.5"/>
</svg>
