<svg width="25" height="25" viewBox="0 0 25 25" fill="none" xmlns="http://www.w3.org/2000/svg">
<path d="M13.2389 6.97852L14.5827 5.63477L14.5827 17.7077C14.5827 17.9839 14.6924 18.2489 14.8878 18.4443C15.0831 18.6396 15.3481 18.7493 15.6243 18.7493C15.9006 18.7493 16.1656 18.6396 16.3609 18.4443C16.5563 18.2489 16.666 17.9839 16.666 17.7077L16.666 5.62435L18.0098 6.97852C18.1066 7.07615 18.2218 7.15365 18.3487 7.20653C18.4757 7.25941 18.6118 7.28664 18.7494 7.28664C18.8869 7.28664 19.023 7.25941 19.15 7.20653C19.2769 7.15365 19.3921 7.07615 19.4889 6.97852C19.6829 6.78335 19.7918 6.51934 19.7918 6.24414C19.7918 5.96895 19.6829 5.70494 19.4889 5.50977L16.3639 2.38477C16.2671 2.28714 16.1519 2.20964 16.025 2.15675C15.898 2.10387 15.7619 2.07664 15.6244 2.07664C15.4868 2.07664 15.3507 2.10387 15.2237 2.15675C15.0968 2.20964 14.9816 2.28714 14.8848 2.38477L11.7598 5.50977C11.5658 5.70494 11.4569 5.96895 11.4569 6.24414C11.4569 6.51934 11.5658 6.78335 11.7598 6.97852C11.8566 7.07615 11.9718 7.15365 12.0987 7.20653C12.2257 7.25941 12.3618 7.28664 12.4993 7.28664C12.6369 7.28664 12.773 7.25941 12.9 7.20653C13.0269 7.15365 13.1421 7.07615 13.2389 6.97852ZM2.08268 21.8743C2.08268 22.1506 2.19243 22.4156 2.38778 22.6109C2.58313 22.8063 2.84808 22.916 3.12435 22.916L21.8743 22.916C22.1506 22.916 22.4156 22.8063 22.6109 22.6109C22.8063 22.4156 22.916 22.1506 22.916 21.8743L22.916 15.6244C22.916 15.3481 22.8063 15.0831 22.6109 14.8878C22.4156 14.6924 22.1506 14.5827 21.8743 14.5827L19.791 14.5827C19.5147 14.5827 19.2498 14.6924 19.0544 14.8878C18.8591 15.0831 18.7493 15.3481 18.7493 15.6243C18.7493 15.9006 18.8591 16.1656 19.0544 16.3609C19.2498 16.5563 19.5147 16.666 19.791 16.666L20.8327 16.666L20.8327 20.8327L4.16601 20.8327L4.16601 16.666L11.4577 16.666C11.7339 16.666 11.9989 16.5563 12.1943 16.3609C12.3896 16.1656 12.4993 15.9006 12.4993 15.6243C12.4993 15.3481 12.3896 15.0831 12.1943 14.8878C11.9989 14.6924 11.7339 14.5827 11.4577 14.5827L10.416 14.5827L10.416 9.37435C10.416 9.09808 10.3063 8.83313 10.1109 8.63778C9.91557 8.44243 9.65062 8.33268 9.37435 8.33268L3.12435 8.33268C2.84808 8.33268 2.58313 8.44243 2.38778 8.63778C2.19243 8.83313 2.08268 9.09808 2.08268 9.37435L2.08268 15.6243L2.08268 21.8743ZM4.16601 10.416L8.33268 10.416L8.33268 14.5827L4.16601 14.5827L4.16601 10.416Z" fill="white"/>
</svg>
