<svg width="24" height="24" viewBox="0 0 24 24" fill="none" xmlns="http://www.w3.org/2000/svg">
<path d="M20 2H10C9.20435 2 8.44129 2.31607 7.87868 2.87868C7.31607 3.44129 7 4.20435 7 5V12C7 12.7956 7.31607 13.5587 7.87868 14.1213C8.44129 14.6839 9.20435 15 10 15H20C20.7956 15 21.5587 14.6839 22.1213 14.1213C22.6839 13.5587 23 12.7956 23 12V5C23 4.20435 22.6839 3.44129 22.1213 2.87868C21.5587 2.31607 20.7956 2 20 2ZM21 12C21 12.2652 20.8946 12.5196 20.7071 12.7071C20.5196 12.8946 20.2652 13 20 13H10C9.73478 13 9.48043 12.8946 9.29289 12.7071C9.10536 12.5196 9 12.2652 9 12V5C9 4.73478 9.10536 4.48043 9.29289 4.29289C9.48043 4.10536 9.73478 4 10 4H20C20.2652 4 20.5196 4.10536 20.7071 4.29289C20.8946 4.48043 21 4.73478 21 5V12ZM17.5 8C17.1298 8.00125 16.7733 8.14028 16.5 8.39C16.285 8.19455 16.0178 8.06577 15.7309 8.0193C15.4441 7.97284 15.1499 8.01069 14.8842 8.12826C14.6185 8.24582 14.3926 8.43805 14.234 8.68157C14.0755 8.92509 13.9911 9.20942 13.9911 9.5C13.9911 9.79058 14.0755 10.0749 14.234 10.3184C14.3926 10.562 14.6185 10.7542 14.8842 10.8717C15.1499 10.9893 15.4441 11.0272 15.7309 10.9807C16.0178 10.9342 16.285 10.8054 16.5 10.61C16.6806 10.7741 16.8985 10.8917 17.1348 10.9526C17.3711 11.0134 17.6187 11.0157 17.8561 10.9592C18.0935 10.9027 18.3135 10.7892 18.4971 10.6284C18.6807 10.4676 18.8223 10.2645 18.9096 10.0366C18.9969 9.80877 19.0273 9.56304 18.9981 9.32076C18.969 9.07848 18.8812 8.84697 18.7423 8.64632C18.6034 8.44567 18.4177 8.28192 18.2012 8.1693C17.9847 8.05667 17.744 7.99856 17.5 8ZM16 17C15.7348 17 15.4804 17.1054 15.2929 17.2929C15.1054 17.4804 15 17.7348 15 18V19C15 19.2652 14.8946 19.5196 14.7071 19.7071C14.5196 19.8946 14.2652 20 14 20H4C3.73478 20 3.48043 19.8946 3.29289 19.7071C3.10536 19.5196 3 19.2652 3 19V15H4C4.26522 15 4.51957 14.8946 4.70711 14.7071C4.89464 14.5196 5 14.2652 5 14C5 13.7348 4.89464 13.4804 4.70711 13.2929C4.51957 13.1054 4.26522 13 4 13H3V12C3 11.7348 3.10536 11.4804 3.29289 11.2929C3.48043 11.1054 3.73478 11 4 11C4.26522 11 4.51957 10.8946 4.70711 10.7071C4.89464 10.5196 5 10.2652 5 10C5 9.73478 4.89464 9.48043 4.70711 9.29289C4.51957 9.10536 4.26522 9 4 9C3.20435 9 2.44129 9.31607 1.87868 9.87868C1.31607 10.4413 1 11.2044 1 12V19C1 19.7956 1.31607 20.5587 1.87868 21.1213C2.44129 21.6839 3.20435 22 4 22H14C14.7956 22 15.5587 21.6839 16.1213 21.1213C16.6839 20.5587 17 19.7956 17 19V18C17 17.7348 16.8946 17.4804 16.7071 17.2929C16.5196 17.1054 16.2652 17 16 17ZM6 18H7C7.26522 18 7.51957 17.8946 7.70711 17.7071C7.89464 17.5196 8 17.2652 8 17C8 16.7348 7.89464 16.4804 7.70711 16.2929C7.51957 16.1054 7.26522 16 7 16H6C5.73478 16 5.48043 16.1054 5.29289 16.2929C5.10536 16.4804 5 16.7348 5 17C5 17.2652 5.10536 17.5196 5.29289 17.7071C5.48043 17.8946 5.73478 18 6 18Z" fill="white"/>
</svg>
