<svg width="25" height="25" viewBox="0 0 25 25" fill="none" xmlns="http://www.w3.org/2000/svg">
<path d="M11.7611 18.0215L10.4173 19.3652V7.29232C10.4173 7.01605 10.3076 6.7511 10.1122 6.55575C9.91687 6.3604 9.65192 6.25065 9.37565 6.25065C9.09938 6.25065 8.83443 6.3604 8.63908 6.55575C8.44373 6.7511 8.33398 7.01605 8.33398 7.29232V19.3756L6.99023 18.0215C6.8934 17.9238 6.77819 17.8464 6.65125 17.7935C6.52432 17.7406 6.38816 17.7134 6.25065 17.7134C6.11314 17.7134 5.97699 17.7406 5.85005 17.7935C5.72311 17.8464 5.6079 17.9238 5.51107 18.0215C5.31706 18.2167 5.20816 18.4807 5.20816 18.7559C5.20816 19.031 5.31706 19.2951 5.51107 19.4902L8.63607 22.6152C8.7329 22.7129 8.84811 22.7904 8.97505 22.8432C9.10199 22.8961 9.23814 22.9234 9.37565 22.9234C9.51316 22.9234 9.64932 22.8961 9.77625 22.8432C9.90319 22.7904 10.0184 22.7129 10.1152 22.6152L13.2402 19.4902C13.4342 19.2951 13.5431 19.031 13.5431 18.7559C13.5431 18.4807 13.4342 18.2167 13.2402 18.0215C13.1434 17.9238 13.0282 17.8464 12.9013 17.7935C12.7743 17.7406 12.6382 17.7134 12.5007 17.7134C12.3631 17.7134 12.227 17.7406 12.1001 17.7935C11.9731 17.8464 11.8579 17.9238 11.7611 18.0215ZM22.9173 3.12565C22.9173 2.84938 22.8076 2.58443 22.6122 2.38908C22.4169 2.19373 22.1519 2.08398 21.8757 2.08398H3.12565C2.84938 2.08398 2.58443 2.19373 2.38908 2.38908C2.19373 2.58443 2.08398 2.84938 2.08398 3.12565V9.37565C2.08398 9.65192 2.19373 9.91687 2.38908 10.1122C2.58443 10.3076 2.84938 10.4173 3.12565 10.4173H5.20898C5.48525 10.4173 5.7502 10.3076 5.94555 10.1122C6.1409 9.91687 6.25065 9.65192 6.25065 9.37565C6.25065 9.09938 6.1409 8.83443 5.94555 8.63908C5.7502 8.44373 5.48525 8.33398 5.20898 8.33398H4.16732V4.16732H20.834V8.33398H13.5423C13.2661 8.33398 13.0011 8.44373 12.8057 8.63908C12.6104 8.83443 12.5007 9.09938 12.5007 9.37565C12.5007 9.65192 12.6104 9.91687 12.8057 10.1122C13.0011 10.3076 13.2661 10.4173 13.5423 10.4173H14.584V15.6256C14.584 15.9019 14.6937 16.1669 14.8891 16.3622C15.0844 16.5576 15.3494 16.6673 15.6257 16.6673H21.8757C22.1519 16.6673 22.4169 16.5576 22.6122 16.3622C22.8076 16.1669 22.9173 15.9019 22.9173 15.6256V9.37565V3.12565ZM20.834 14.584H16.6673V10.4173H20.834V14.584Z" fill="white"/>
</svg>
