<svg width="17" height="17" viewBox="0 0 17 17" fill="none" xmlns="http://www.w3.org/2000/svg">
<path d="M0 13.8571H17M0 16H17M2.83333 4.75V3.14286H4.53333M12.4667 3.14286H14.1667V4.75M2.83333 7.96429V9.57143H4.53333M12.4667 9.57143H14.1667V7.96429M8.5 8.5C7.24815 8.5 6.23333 7.54061 6.23333 6.35714C6.23333 5.17368 7.24815 4.21429 8.5 4.21429C9.75185 4.21429 10.7667 5.17368 10.7667 6.35714C10.7667 7.54061 9.75185 8.5 8.5 8.5ZM1.7 1H15.3C15.9259 1 16.4333 1.47969 16.4333 2.07143V10.6429C16.4333 11.2346 15.9259 11.7143 15.3 11.7143H1.7C1.07408 11.7143 0.566667 11.2346 0.566667 10.6429V2.07143C0.566667 1.4797 1.07408 1 1.7 1Z" stroke="white"/>
</svg>
