<svg width="14" height="15" viewBox="0 0 14 15" fill="none" xmlns="http://www.w3.org/2000/svg">
<path d="M0.140703 5.63475C0.422111 4.29807 1.05528 3.03174 2.0402 2.04681C3.23618 0.850834 4.85427 0.147316 6.54271 0.00661275C8.23116 -0.063739 9.84925 0.428723 11.1859 1.41365C12.5226 2.46892 13.5075 3.94631 13.7889 5.63475C14.1407 7.3232 13.8593 9.01164 13.0151 10.489L14 14.077L10.2714 13.092C9.21608 13.6549 8.09045 13.9363 6.96482 13.9363C5.55779 13.9363 4.22111 13.5141 3.09548 12.7403C1.96985 11.9664 1.05528 10.9111 0.562815 9.6448C0 8.37847 -0.140703 6.97144 0.140703 5.63475ZM1.68844 9.3634C2.18091 10.4187 2.95477 11.2629 3.86935 11.8961C4.78392 12.4589 5.8392 12.8106 6.96482 12.8106C8.0201 12.8106 9.00503 12.5292 9.9196 12.0368L10.1307 11.8961L12.3116 12.4589L11.7487 10.3483L11.8894 10.0669C12.5226 9.08199 12.804 7.95636 12.804 6.83073C12.804 5.7051 12.3819 4.57948 11.7487 3.6649C11.1156 2.75033 10.1307 2.04681 9.07538 1.6247C8.0201 1.20259 6.82412 1.13224 5.69849 1.41365C4.57286 1.69506 3.58794 2.25787 2.74372 3.10209C1.96985 3.94631 1.40704 5.00159 1.26633 6.12722C1.12563 7.25284 1.19598 8.30812 1.68844 9.3634Z" fill="white"/>
<path d="M6.59937 7.59739L6.33203 4.47377V4.22754H7.33103V4.47377L7.07072 7.59739H6.59937ZM6.36721 9.15216V8.18834H7.30289V9.15216H6.36721Z" fill="white"/>
</svg>
