<svg width="24" height="24" viewBox="0 0 24 24" fill="none" xmlns="http://www.w3.org/2000/svg">
<path d="M18 10.7273C18 15.1818 12 19 12 19C12 19 6 15.1818 6 10.7273C6 9.20831 6.63214 7.75155 7.75736 6.67748C8.88258 5.60341 10.4087 5 12 5C13.5913 5 15.1174 5.60341 16.2426 6.67748C17.3679 7.75155 18 9.20831 18 10.7273Z" stroke="white" stroke-width="0.5" stroke-linecap="round" stroke-linejoin="round"/>
<path d="M12 13C13.1046 13 14 12.1046 14 11C14 9.89543 13.1046 9 12 9C10.8954 9 10 9.89543 10 11C10 12.1046 10.8954 13 12 13Z" stroke="white" stroke-width="0.5" stroke-linecap="round" stroke-linejoin="round"/>
</svg>
