<svg width="10" height="12" viewBox="0 0 10 12" fill="none" xmlns="http://www.w3.org/2000/svg">
<path d="M9.44443 3.61004L6.11112 0.457811C5.80555 0.162991 5.40998 0 5.00002 0C4.59006 0 4.19448 0.162991 3.88891 0.457811L0.555604 3.61004C0.379144 3.78028 0.238329 3.98912 0.142536 4.22265C0.0467433 4.45619 -0.00182919 4.70905 5.2663e-05 4.96442V10.2022C5.2663e-05 10.679 0.175646 11.1363 0.488205 11.4734C0.800763 11.8106 1.22468 12 1.66671 12H8.33333C8.77535 12 9.19927 11.8106 9.51183 11.4734C9.82439 11.1363 9.99998 10.679 9.99998 10.2022V4.95843C10.0011 4.70407 9.95212 4.45236 9.85635 4.21992C9.76059 3.98748 9.62019 3.77961 9.44443 3.61004ZM6.11112 10.8014H3.88891V7.80502C3.88891 7.64608 3.94745 7.49365 4.05163 7.38126C4.15582 7.26888 4.29712 7.20574 4.44447 7.20574H5.55557C5.70291 7.20574 5.84422 7.26888 5.9484 7.38126C6.05259 7.49365 6.11112 7.64608 6.11112 7.80502V10.8014ZM8.88888 10.2022C8.88888 10.3611 8.83035 10.5135 8.72616 10.6259C8.62197 10.7383 8.48067 10.8014 8.33333 10.8014H7.22222V7.80502C7.22222 7.3282 7.04663 6.87091 6.73407 6.53375C6.42151 6.19659 5.99759 6.00717 5.55557 6.00717H4.44447C4.00244 6.00717 3.57852 6.19659 3.26596 6.53375C2.9534 6.87091 2.77781 7.3282 2.77781 7.80502V10.8014H1.66671C1.51937 10.8014 1.37806 10.7383 1.27387 10.6259C1.16969 10.5135 1.11116 10.3611 1.11116 10.2022V4.95843C1.11126 4.87334 1.12815 4.78925 1.16072 4.71175C1.19329 4.63425 1.24078 4.56512 1.30004 4.50896L4.63335 1.36273C4.73473 1.26665 4.86507 1.21367 5.00002 1.21367C5.13496 1.21367 5.2653 1.26665 5.36668 1.36273L8.69999 4.50896C8.75925 4.56512 8.80674 4.63425 8.83931 4.71175C8.87188 4.78925 8.88878 4.87334 8.88888 4.95843V10.2022Z" fill="white"/>
</svg>
