<svg width="14" height="14" viewBox="0 0 14 14" fill="none" xmlns="http://www.w3.org/2000/svg">
<path d="M8.33301 4.33301H8.99967C9.17649 4.33301 9.34606 4.26277 9.47108 4.13775C9.5961 4.01272 9.66634 3.84315 9.66634 3.66634C9.66634 3.48953 9.5961 3.31996 9.47108 3.19494C9.34606 3.06991 9.17649 2.99967 8.99967 2.99967H8.33301C8.1562 2.99967 7.98663 3.06991 7.8616 3.19494C7.73658 3.31996 7.66634 3.48953 7.66634 3.66634C7.66634 3.84315 7.73658 4.01272 7.8616 4.13775C7.98663 4.26277 8.1562 4.33301 8.33301 4.33301ZM8.33301 6.99967H8.99967C9.17649 6.99967 9.34606 6.92944 9.47108 6.80441C9.5961 6.67939 9.66634 6.50982 9.66634 6.33301C9.66634 6.1562 9.5961 5.98663 9.47108 5.8616C9.34606 5.73658 9.17649 5.66634 8.99967 5.66634H8.33301C8.1562 5.66634 7.98663 5.73658 7.8616 5.8616C7.73658 5.98663 7.66634 6.1562 7.66634 6.33301C7.66634 6.50982 7.73658 6.67939 7.8616 6.80441C7.98663 6.92944 8.1562 6.99967 8.33301 6.99967ZM4.99967 4.33301H5.66634C5.84315 4.33301 6.01272 4.26277 6.13775 4.13775C6.26277 4.01272 6.33301 3.84315 6.33301 3.66634C6.33301 3.48953 6.26277 3.31996 6.13775 3.19494C6.01272 3.06991 5.84315 2.99967 5.66634 2.99967H4.99967C4.82286 2.99967 4.65329 3.06991 4.52827 3.19494C4.40325 3.31996 4.33301 3.48953 4.33301 3.66634C4.33301 3.84315 4.40325 4.01272 4.52827 4.13775C4.65329 4.26277 4.82286 4.33301 4.99967 4.33301ZM4.99967 6.99967H5.66634C5.84315 6.99967 6.01272 6.92944 6.13775 6.80441C6.26277 6.67939 6.33301 6.50982 6.33301 6.33301C6.33301 6.1562 6.26277 5.98663 6.13775 5.8616C6.01272 5.73658 5.84315 5.66634 5.66634 5.66634H4.99967C4.82286 5.66634 4.65329 5.73658 4.52827 5.8616C4.40325 5.98663 4.33301 6.1562 4.33301 6.33301C4.33301 6.50982 4.40325 6.67939 4.52827 6.80441C4.65329 6.92944 4.82286 6.99967 4.99967 6.99967ZM12.9997 12.333H12.333V0.999674C12.333 0.822863 12.2628 0.653294 12.1377 0.52827C12.0127 0.403246 11.8432 0.333008 11.6663 0.333008H2.33301C2.1562 0.333008 1.98663 0.403246 1.8616 0.52827C1.73658 0.653294 1.66634 0.822863 1.66634 0.999674V12.333H0.999674C0.822863 12.333 0.653294 12.4032 0.52827 12.5283C0.403246 12.6533 0.333008 12.8229 0.333008 12.9997C0.333008 13.1765 0.403246 13.3461 0.52827 13.4711C0.653294 13.5961 0.822863 13.6663 0.999674 13.6663H12.9997C13.1765 13.6663 13.3461 13.5961 13.4711 13.4711C13.5961 13.3461 13.6663 13.1765 13.6663 12.9997C13.6663 12.8229 13.5961 12.6533 13.4711 12.5283C13.3461 12.4032 13.1765 12.333 12.9997 12.333ZM7.66634 12.333H6.33301V9.66634H7.66634V12.333ZM10.9997 12.333H8.99967V8.99967C8.99967 8.82286 8.92944 8.65329 8.80441 8.52827C8.67939 8.40325 8.50982 8.33301 8.33301 8.33301H5.66634C5.48953 8.33301 5.31996 8.40325 5.19494 8.52827C5.06991 8.65329 4.99967 8.82286 4.99967 8.99967V12.333H2.99967V1.66634H10.9997V12.333Z" fill="white"/>
</svg>
