<svg width="12" height="12" viewBox="0 0 12 12" fill="none" xmlns="http://www.w3.org/2000/svg">
<path d="M10.0837 2.5H8.33366V1.91667C8.33366 1.60725 8.21074 1.3105 7.99195 1.09171C7.77316 0.872916 7.47641 0.75 7.16699 0.75H4.83366C4.52424 0.75 4.22749 0.872916 4.0087 1.09171C3.78991 1.3105 3.66699 1.60725 3.66699 1.91667V2.5H1.91699C1.45286 2.5 1.00774 2.68437 0.679555 3.01256C0.351367 3.34075 0.166992 3.78587 0.166992 4.25V9.5C0.166992 9.96413 0.351367 10.4092 0.679555 10.7374C1.00774 11.0656 1.45286 11.25 1.91699 11.25H10.0837C10.5478 11.25 10.9929 11.0656 11.3211 10.7374C11.6493 10.4092 11.8337 9.96413 11.8337 9.5V4.25C11.8337 3.78587 11.6493 3.34075 11.3211 3.01256C10.9929 2.68437 10.5478 2.5 10.0837 2.5ZM4.83366 1.91667H7.16699V2.5H4.83366V1.91667ZM10.667 9.5C10.667 9.65471 10.6055 9.80308 10.4961 9.91248C10.3867 10.0219 10.2384 10.0833 10.0837 10.0833H1.91699C1.76228 10.0833 1.61391 10.0219 1.50451 9.91248C1.39512 9.80308 1.33366 9.65471 1.33366 9.5V6.2275L4.06366 7.16667C4.1256 7.17507 4.18839 7.17507 4.25033 7.16667H7.75033C7.81359 7.1655 7.87639 7.15568 7.93699 7.1375L10.667 6.2275V9.5ZM10.667 4.99667L7.65699 6H4.34366L1.33366 4.99667V4.25C1.33366 4.09529 1.39512 3.94692 1.50451 3.83752C1.61391 3.72812 1.76228 3.66667 1.91699 3.66667H10.0837C10.2384 3.66667 10.3867 3.72812 10.4961 3.83752C10.6055 3.94692 10.667 4.09529 10.667 4.25V4.99667Z" fill="white"/>
</svg>
