<svg width="14" height="14" viewBox="0 0 14 14" fill="none" xmlns="http://www.w3.org/2000/svg">
<path d="M0.21 5.59974C0.49 4.26974 1.12 3.00974 2.1 2.02974C3.29 0.839744 4.9 0.139744 6.58 -0.000256247C8.26 -0.0702562 9.87 0.419744 11.2 1.39974C12.53 2.44974 13.51 3.91974 13.79 5.59974C14.14 7.27974 13.86 8.95974 13.02 10.4297L14 13.9997L10.29 13.0197C9.24 13.5797 8.12 13.8597 7 13.8597C5.6 13.8597 4.27 13.4397 3.15 12.6697C2.03 11.8997 1.12 10.8497 0.63 9.58974C0.0699997 8.32974 -0.0700006 6.92974 0.21 5.59974ZM1.75 9.30974C2.24 10.3597 3.01 11.1997 3.92 11.8297C4.83 12.3897 5.88 12.7397 7 12.7397C8.05 12.7397 9.03 12.4597 9.94 11.9697L10.15 11.8297L12.32 12.3897L11.76 10.2897L11.9 10.0097C12.53 9.02974 12.81 7.90974 12.81 6.78974C12.81 5.66974 12.39 4.54974 11.76 3.63974C11.13 2.72974 10.15 2.02974 9.1 1.60974C8.05 1.18974 6.86 1.11974 5.74 1.39974C4.62 1.67974 3.64 2.23974 2.8 3.07974C2.03 3.91974 1.47 4.96974 1.33 6.08974C1.19 7.20974 1.26 8.25974 1.75 9.30974Z" fill="white"/>
<path d="M6.88061 7.6162L6.74061 6.4822L6.77561 6.4472C7.63894 6.41453 8.07061 6.14853 8.07061 5.6492C8.07061 5.44853 7.99828 5.28753 7.85361 5.1662C7.70894 5.04486 7.51294 4.9842 7.26561 4.9842C6.85028 4.9842 6.46994 5.16853 6.12461 5.5372L5.59961 4.9772C6.05694 4.4592 6.61928 4.2002 7.28661 4.2002C7.78128 4.2002 8.17794 4.33086 8.47661 4.5922C8.77528 4.84886 8.92461 5.19653 8.92461 5.6352C8.92461 6.05053 8.79628 6.37253 8.53961 6.6012C8.28294 6.8252 7.94228 6.97453 7.51761 7.0492L7.44761 7.6162H6.88061ZM6.67761 9.1632V8.2042H7.61561V9.1632H6.67761Z" fill="white"/>
</svg>
