<svg width="25" height="25" viewBox="0 0 25 25" fill="none" xmlns="http://www.w3.org/2000/svg">
<path d="M22.4997 8.5V2.66667C22.4997 1.74619 21.7535 1 20.833 1L2.49968 1C1.5792 1 0.833009 1.74619 0.833009 2.66667L0.833008 19.3333C0.833008 20.2538 1.5792 21 2.49967 21L20.833 21C21.7535 21 22.4997 20.2538 22.4997 19.3333V13.5M24.0508 7.66667H15.833C13.9921 7.66667 12.4997 9.15905 12.4997 11C12.4997 12.841 13.9921 14.3333 15.833 14.3333H24.0508C24.1146 14.3333 24.1663 14.2816 24.1663 14.2178V7.78218C24.1663 7.71838 24.1146 7.66667 24.0508 7.66667Z" stroke="white"/>
</svg>
