<svg width="123" height="123" viewBox="0 0 123 123" fill="none" xmlns="http://www.w3.org/2000/svg">
<path d="M53.6877 20.9493C54.0222 20.9493 54.1747 21.1313 54.1747 21.4363V24.4671C54.1747 24.7721 54.0222 24.9541 53.6877 24.9541H50.1699V44.7129C50.1699 45.0474 50.0173 45.195 49.6828 45.195H46.5291C46.224 45.195 46.042 45.0425 46.042 44.7129V24.9492H42.5242C42.2191 24.9492 42.0371 24.7672 42.0371 24.4621V21.4314C42.0371 21.1264 42.2191 20.9443 42.5242 20.9443L53.6877 20.9493Z" fill="white"/>
<path d="M80.2502 20.9493C80.5847 20.9493 80.7373 21.1313 80.7373 21.4363V24.4671C80.7373 24.7721 80.5847 24.9541 80.2502 24.9541H76.7324V44.7129C76.7324 45.0474 76.5799 45.195 76.2453 45.195H73.0916C72.7865 45.195 72.6045 45.0425 72.6045 44.7129V24.9492H69.0867C68.7816 24.9492 68.5996 24.7672 68.5996 24.4621V21.4314C68.5996 21.1264 68.7816 20.9443 69.0867 20.9443L80.2502 20.9493Z" fill="white"/>
<path d="M74.6376 42.8975C70.3474 42.8926 66.1654 44.2505 62.6968 46.7744C71.2231 54.3119 72.5811 67.1137 65.821 76.2649L63.479 80.1714C66.1162 81.9081 69.1223 83.0053 72.2563 83.3694L61.9883 101.155H76.1726L92.1528 73.4802C93.9831 70.3658 94.9474 66.8185 94.9425 63.2023C94.9474 51.9896 85.8552 42.8975 74.6376 42.8975Z" fill="url(#paint0_linear)"/>
<path d="M32.4618 45.1901H35.832C37.0817 44.3193 38.4248 43.5862 39.827 42.9958C40.0878 42.3906 40.2206 41.6674 40.2206 40.8261V33.8249C40.2206 33.2493 39.95 32.9147 39.4334 32.7031L32.2158 30.3415V26.1595C32.2158 25.3723 32.6684 24.9492 33.431 24.9492H34.8873C35.7041 24.9492 36.1026 25.3723 36.1026 26.1595V28.5211C36.1026 28.8262 36.2846 29.0033 36.5897 29.0033H39.7434C40.0779 29.0033 40.2305 28.8213 40.2305 28.5211V25.3084C40.2305 22.4597 38.7151 20.9443 35.8615 20.9443H32.4667C29.6475 20.9443 28.0977 22.4597 28.0977 25.3084V32.4621C28.0977 33.0377 28.3683 33.4018 28.9145 33.5838L36.1026 35.9454V39.9749C36.1026 40.7916 35.6795 41.1852 34.8873 41.1852H33.431C32.6733 41.1852 32.2158 40.7916 32.2158 39.9749V37.6428C32.2158 37.3083 32.0633 37.1607 31.7287 37.1607H28.575C28.2699 37.1607 28.0879 37.3132 28.0879 37.6428V40.8261C28.0928 43.6747 29.6377 45.1901 32.4618 45.1901Z" fill="white"/>
<path d="M87.06 45.1901H94.4745C94.8386 45.1901 94.9616 45.0081 94.9616 44.7079V41.6723C94.9616 41.3377 94.8386 41.1901 94.4745 41.1901H86.8928V35.0697H92.6836C92.9886 35.0697 93.1707 34.8876 93.1707 34.5531V31.5519C93.1707 31.2173 92.9886 31.0353 92.6836 31.0353H86.8928V24.9787H94.4745C94.8386 24.9787 94.9616 24.7672 94.9616 24.4621V21.4314C94.9616 21.1264 94.8386 20.9443 94.4745 20.9443H83.3159C83.0404 20.9443 82.8633 21.1264 82.8633 21.4314V42.9121C84.3393 43.5173 85.7464 44.2799 87.06 45.1901Z" fill="white"/>
<path d="M58.5371 40.3438H63.9343L64.5887 43.7583C65.799 43.1286 67.0684 42.6169 68.3771 42.2233L63.8753 21.3772C63.8162 21.0722 63.6342 20.9541 63.3587 20.9541H59.1422C58.8667 20.9541 58.6896 21.0771 58.6256 21.3772L54.1484 42.115C55.4572 42.4791 56.7265 42.9711 57.9418 43.5714L58.5371 40.3438ZM61.2382 26.2529L63.1766 36.826H59.2948L61.2382 26.2529Z" fill="white"/>
<path d="M74.6371 42.9024C70.3469 42.8974 66.1698 44.2504 62.7012 46.7793C71.2275 54.3168 72.5805 67.1137 65.8205 76.2698L63.4687 80.2009C66.7848 82.3903 70.6667 83.5514 74.642 83.5465C85.8645 83.5465 94.9616 74.4494 94.9616 63.2269C94.9616 52.0044 85.8596 42.9024 74.6371 42.9024Z" fill="url(#paint1_linear)"/>
<path d="M48.216 42.8975C36.9984 42.8975 27.9062 51.9896 27.9062 63.2072C27.9062 73.6179 35.7389 82.1984 45.8347 83.3743L35.5667 101.155H49.7511L65.7312 73.4802C67.5615 70.3658 68.5258 66.8185 68.5208 63.2023C68.5258 51.9896 59.4336 42.8975 48.216 42.8975ZM56.1372 73.6524L48.2406 69.4999L40.344 73.6524L41.8545 64.8554L35.4634 58.6267L44.2948 57.3426L48.2455 49.3427L52.1963 57.3426L61.0277 58.6267L54.6366 64.8554L56.1372 73.6524Z" fill="url(#paint2_linear)"/>
<path d="M48.2395 42.9028C37.017 42.9028 27.9199 51.9999 27.9199 63.2224C27.9199 74.445 37.017 83.542 48.2395 83.542C59.462 83.542 68.5591 74.445 68.5591 63.2224C68.5591 51.9999 59.462 42.9028 48.2395 42.9028ZM56.1361 73.6528L48.2395 69.5004L40.3429 73.6528L41.8534 64.8559L35.4623 58.6272L44.2937 57.343L48.2444 49.3431L52.1952 57.343L61.0266 58.6272L54.6355 64.8559L56.1361 73.6528Z" fill="url(#paint3_linear)"/>
<path d="M73.0611 33.9727H76.2738C76.5247 33.9727 76.7314 34.1744 76.7314 34.4302V57.2885C76.7314 57.5395 76.5297 57.7461 76.2738 57.7461H73.0611C72.8102 57.7461 72.6035 57.5444 72.6035 57.2885V34.4302C72.6084 34.1744 72.8102 33.9727 73.0611 33.9727Z" fill="white"/>
<path d="M48.2412 49.3476L50.1748 53.259V33.9824H46.0469V53.7953L48.2412 49.3476Z" fill="white"/>
<defs>
<linearGradient id="paint0_linear" x1="52.972" y1="93.5875" x2="89.9395" y2="49.5317" gradientUnits="userSpaceOnUse">
<stop offset="0.01" stop-color="#F1E865"/>
<stop offset="0.16" stop-color="#F19F46"/>
<stop offset="0.19" stop-color="#ED9545"/>
<stop offset="0.39" stop-color="#DB603E"/>
<stop offset="0.58" stop-color="#CC3739"/>
<stop offset="0.75" stop-color="#C11935"/>
<stop offset="0.9" stop-color="#BA0633"/>
<stop offset="1" stop-color="#B80032"/>
</linearGradient>
<linearGradient id="paint1_linear" x1="58.9592" y1="70.5325" x2="93.0573" y2="54.6324" gradientUnits="userSpaceOnUse">
<stop offset="0.01" stop-color="#F1E865"/>
<stop offset="0.16" stop-color="#F19F46"/>
<stop offset="0.19" stop-color="#ED9545"/>
<stop offset="0.39" stop-color="#DB603E"/>
<stop offset="0.58" stop-color="#CC3739"/>
<stop offset="0.75" stop-color="#C11935"/>
<stop offset="0.9" stop-color="#BA0633"/>
<stop offset="1" stop-color="#B80032"/>
</linearGradient>
<linearGradient id="paint2_linear" x1="26.3194" y1="93.3941" x2="63.2871" y2="49.3381" gradientUnits="userSpaceOnUse">
<stop offset="0.01" stop-color="#F1E865"/>
<stop offset="0.16" stop-color="#F19F46"/>
<stop offset="0.19" stop-color="#ED9545"/>
<stop offset="0.39" stop-color="#DB603E"/>
<stop offset="0.58" stop-color="#CC3739"/>
<stop offset="0.75" stop-color="#C11935"/>
<stop offset="0.9" stop-color="#BA0633"/>
<stop offset="1" stop-color="#B80032"/>
</linearGradient>
<linearGradient id="paint3_linear" x1="29.8194" y1="71.8119" x2="66.6597" y2="54.633" gradientUnits="userSpaceOnUse">
<stop offset="0.01" stop-color="#F1E865"/>
<stop offset="0.16" stop-color="#F19F46"/>
<stop offset="0.19" stop-color="#ED9545"/>
<stop offset="0.39" stop-color="#DB603E"/>
<stop offset="0.58" stop-color="#CC3739"/>
<stop offset="0.75" stop-color="#C11935"/>
<stop offset="0.9" stop-color="#BA0633"/>
<stop offset="1" stop-color="#B80032"/>
</linearGradient>
</defs>
</svg>
