<svg width="512" height="512" viewBox="0 0 512 512" fill="none" xmlns="http://www.w3.org/2000/svg">
<path d="M232 416C226.888 416 221.91 414.36 217.8 411.32C217.572 411.161 217.351 410.991 217.14 410.81L125.76 336H56C49.6348 336 43.5303 333.471 39.0294 328.971C34.5286 324.47 32 318.365 32 312V200C32 193.635 34.5286 187.53 39.0294 183.029C43.5303 178.529 49.6348 176 56 176H125.75L217.12 101.19C217.331 101.009 217.552 100.839 217.78 100.68C221.354 98.0511 225.587 96.4645 230.009 96.0964C234.43 95.7283 238.867 96.5931 242.827 98.5947C246.787 100.596 250.114 103.656 252.44 107.435C254.765 111.214 255.997 115.563 256 120V392C256 398.365 253.471 404.47 248.971 408.971C244.47 413.471 238.365 416 232 416ZM320 336C317.27 335.999 314.585 335.3 312.201 333.969C309.818 332.637 307.814 330.718 306.382 328.394C304.95 326.069 304.136 323.417 304.018 320.689C303.901 317.962 304.483 315.249 305.71 312.81C315.2 293.94 320.01 274.81 320.01 256C320.01 236.62 315.35 218.06 305.76 199.27C303.923 195.501 303.638 191.161 304.968 187.185C306.298 183.208 309.136 179.912 312.871 178.007C316.606 176.101 320.94 175.738 324.94 176.995C328.94 178.253 332.287 181.03 334.26 184.73C346.19 208.12 352 231.44 352 256C352 279.86 346 303.81 334.3 327.19C332.967 329.84 330.924 332.067 328.399 333.622C325.874 335.178 322.966 336.001 320 336Z" fill="white"/>
<path d="M368 384C365.191 384.001 362.431 383.262 359.998 381.858C357.566 380.454 355.545 378.434 354.141 376.002C352.736 373.569 351.996 370.81 351.996 368.001C351.996 365.192 352.735 362.433 354.14 360C373.05 327.09 384 299.51 384 256C384 211.83 373.07 184.44 354.18 152.06C352.108 148.398 351.562 144.068 352.66 140.007C353.757 135.945 356.41 132.48 360.045 130.36C363.679 128.24 368.002 127.638 372.077 128.682C376.153 129.726 379.653 132.334 381.82 135.94C402.92 172.11 416 204.81 416 256C416 306.43 402.94 339.29 381.87 376C380.464 378.434 378.442 380.455 376.007 381.86C373.573 383.264 370.811 384.002 368 384V384Z" fill="white"/>
<path d="M416 432C413.119 431.998 410.292 431.218 407.817 429.742C405.342 428.266 403.312 426.15 401.941 423.616C400.569 421.082 399.908 418.225 400.025 415.346C400.143 412.467 401.036 409.673 402.61 407.26C429.85 365.47 448 323.76 448 256C448 189.5 429.82 147.38 402.51 104.61C401.379 102.837 400.609 100.859 400.243 98.7884C399.877 96.7178 399.922 94.5953 400.376 92.5422C400.83 90.4891 401.684 88.5456 402.889 86.8225C404.094 85.0995 405.627 83.6307 407.4 82.5C409.173 81.3693 411.151 80.5989 413.222 80.2327C415.292 79.8665 417.415 79.9118 419.468 80.3658C421.521 80.8199 423.464 81.6739 425.187 82.8791C426.911 84.0844 428.379 85.6171 429.51 87.39C459.81 134.89 480 181.74 480 256C480 320.75 465.34 369.63 429.4 424.74C427.946 426.969 425.96 428.8 423.62 430.068C421.28 431.336 418.661 432 416 432V432Z" fill="white"/>
</svg>
