<svg width="512" height="512" viewBox="0 0 512 512" fill="none" xmlns="http://www.w3.org/2000/svg">
<path d="M416 432L64 80" stroke="white" stroke-width="32" stroke-miterlimit="10" stroke-linecap="round"/>
<path d="M243.33 98.8599C239.338 96.7064 234.815 95.7339 230.29 96.0562C225.766 96.3785 221.427 97.9823 217.78 100.68L217.12 101.19L188.6 124.54C187.735 125.248 187.027 126.129 186.524 127.127C186.02 128.125 185.731 129.218 185.676 130.334C185.62 131.451 185.799 132.566 186.201 133.609C186.603 134.652 187.219 135.6 188.01 136.39L242.34 190.72C243.459 191.84 244.885 192.603 246.438 192.912C247.99 193.221 249.6 193.063 251.062 192.457C252.525 191.851 253.775 190.825 254.654 189.508C255.533 188.191 256.001 186.643 256 185.06V120.57C256.045 116.144 254.891 111.789 252.66 107.967C250.429 104.145 247.205 100.998 243.33 98.8599V98.8599ZM251.33 335.29L96.69 180.69C93.6909 177.689 89.6227 176.002 85.38 176H56C49.6348 176 43.5303 178.529 39.0294 183.029C34.5286 187.53 32 193.635 32 200V312C32 318.365 34.5286 324.47 39.0294 328.97C43.5303 333.471 49.6348 336 56 336H125.76L217.76 411.31C221.453 414.051 225.857 415.668 230.446 415.967C235.035 416.267 239.612 415.237 243.63 413C247.425 410.836 250.573 407.698 252.748 403.909C254.923 400.12 256.046 395.818 256 391.45V346.59C256.001 342.354 254.321 338.29 251.33 335.29V335.29ZM352 256C352 231.44 346.19 208.13 334.25 184.73C333.303 182.844 331.993 181.164 330.394 179.786C328.795 178.409 326.94 177.361 324.934 176.704C322.929 176.047 320.814 175.792 318.71 175.956C316.606 176.12 314.555 176.698 312.675 177.658C310.796 178.617 309.125 179.939 307.758 181.547C306.392 183.155 305.357 185.018 304.713 187.028C304.069 189.037 303.829 191.155 304.007 193.257C304.185 195.36 304.778 197.407 305.75 199.28C315.34 218.06 320 236.62 320 256C320 258.667 319.897 261.377 319.69 264.13C319.605 265.277 319.768 266.43 320.168 267.508C320.568 268.587 321.197 269.566 322.01 270.38L336.37 284.74C337.407 285.779 338.711 286.513 340.137 286.861C341.564 287.209 343.059 287.158 344.458 286.713C345.857 286.268 347.107 285.446 348.071 284.338C349.034 283.23 349.674 281.878 349.92 280.43C351.297 272.359 351.993 264.187 352 256V256ZM416 256C416 204.82 402.92 172.11 381.82 135.94C379.653 132.334 376.153 129.726 372.077 128.682C368.002 127.638 363.679 128.24 360.045 130.36C356.411 132.479 353.758 135.945 352.66 140.007C351.562 144.068 352.108 148.398 354.18 152.06C373.07 184.44 384 211.83 384 256C384 279.83 380.71 298.88 374.63 316.65C374.141 318.067 374.06 319.592 374.396 321.052C374.732 322.513 375.471 323.849 376.53 324.91L389 337.4C389.943 338.344 391.107 339.037 392.386 339.416C393.664 339.795 395.018 339.849 396.323 339.572C397.628 339.294 398.843 338.695 399.857 337.829C400.871 336.962 401.652 335.856 402.13 334.61C411 311.76 416 287.26 416 256Z" fill="white"/>
<path d="M480.001 256C480.001 181.75 459.811 134.89 429.491 87.39C427.207 83.8096 423.595 81.283 419.448 80.3659C415.302 79.4488 410.961 80.2165 407.381 82.5C403.8 84.7835 401.273 88.3959 400.356 92.5423C399.439 96.6887 400.207 101.03 402.491 104.61C429.821 147.38 448.001 189.5 448.001 256C448.001 302.19 439.571 336.27 425.571 366.53C424.885 368.013 424.67 369.67 424.954 371.279C425.238 372.888 426.008 374.372 427.161 375.53L439.081 387.45C439.982 388.366 441.09 389.051 442.313 389.448C443.535 389.845 444.835 389.942 446.102 389.73C447.37 389.518 448.567 389.004 449.594 388.231C450.621 387.458 451.446 386.449 452.001 385.29C471.601 344.9 480.001 305 480.001 256Z" fill="white"/>
</svg>
