<svg width="13" height="13" viewBox="0 0 13 13" fill="none" xmlns="http://www.w3.org/2000/svg">
<path d="M7.64479 6.49931L12.7598 1.39184C12.9127 1.23894 12.9986 1.03156 12.9986 0.815321C12.9986 0.599084 12.9127 0.391704 12.7598 0.238802C12.607 0.0858997 12.3996 0 12.1834 0C11.9672 0 11.7598 0.0858997 11.6069 0.238802L6.5 5.35439L1.39308 0.238802C1.24019 0.0858997 1.03283 1.91984e-07 0.816619 1.93595e-07C0.600406 1.95207e-07 0.393048 0.0858997 0.240162 0.238802C0.0872761 0.391704 0.0013858 0.599084 0.0013858 0.815321C0.0013858 1.03156 0.0872761 1.23894 0.240162 1.39184L5.3552 6.49931L0.240162 11.6068C0.164063 11.6823 0.103661 11.7721 0.0624418 11.871C0.0212221 11.97 0 12.0761 0 12.1833C0 12.2905 0.0212221 12.3966 0.0624418 12.4956C0.103661 12.5945 0.164063 12.6843 0.240162 12.7598C0.31564 12.8359 0.405438 12.8963 0.504377 12.9376C0.603316 12.9788 0.709437 13 0.816619 13C0.923801 13 1.02992 12.9788 1.12886 12.9376C1.2278 12.8963 1.3176 12.8359 1.39308 12.7598L6.5 7.64422L11.6069 12.7598C11.6824 12.8359 11.7722 12.8963 11.8711 12.9376C11.9701 12.9788 12.0762 13 12.1834 13C12.2906 13 12.3967 12.9788 12.4956 12.9376C12.5946 12.8963 12.6844 12.8359 12.7598 12.7598C12.8359 12.6843 12.8963 12.5945 12.9376 12.4956C12.9788 12.3966 13 12.2905 13 12.1833C13 12.0761 12.9788 11.97 12.9376 11.871C12.8963 11.7721 12.8359 11.6823 12.7598 11.6068L7.64479 6.49931Z" fill="white"/>
</svg>
